<?xml version="1.0" encoding="utf-8"?>
<svg xmlns="http://www.w3.org/2000/svg" viewBox="0 0 1800 1000">
    <style></style>
    <style>
        text{
        font-family: 'Tensentype-JiaLiDaYuanJF',sans-serif;
        fill:#111;
        font-size:30px;
        }
        #标题,
        #分数,#进度{font-size:60px;}
        .fs24{font-size:24px;}
        .xq{font-size:40px;}
        .xx{font-size:20px;}
        #地点 path,
        .边框{
        fill-rule:evenodd;
        clip-rule:evenodd;
        stroke:#000;
        stroke-width:4;
        stroke-linecap:round;
        stroke-linejoin:round;
        }
        #地点 path{
        fill:#FFF;
        cursor: pointer;
        pointer-events: auto;
        }
        .边框{fill:none;}
        <!--        #地点 path[level="5"]{fill:#FF7E7E;}-->
        #地点 path[level="4"]{fill:#FF7E7E;}
        #地点 path[level="3"]{fill:#FFB57E;}
        #地点 path[level="2"]{fill:#FFE57E;}
        #地点 path[level="1"]{fill:#A8FFBE;}
    </style>
    <text x="1000" y="100" id="标题">制霸华师</text>
    <g id="地点">
        <path id="国交" d="M25 13 v88 h100 v-88 z"/>
        <path id="八号楼" d="M131 108 v86 h250 v-86 z"/>
        <path id="YY楼" d="M111 53 v108 h87 v-108 z"/>
        <path id="三号楼" d="M180 180 v51 h35 v50 h80 v-50 h35 v-51 z"/>
        <path id="恽代英广场" d="M400 264 v107 h173 v-107 z"/>
        <path id="西区球场" d="M128 330 v136 h286 v-136 z"/>
        <path id="桂香园" d="M65 275 v115 h103 v-115 z"/>
        <path id="乒羽中心" d="M270 312 v60 h135 v-60 z"/>
        <path id="一号楼" d="M100 240 v43 h115 v-43 h-40 v-21 h-35 v21 z"/>
        <path id="二号楼" d="M294 240 v43 h115 v-43 h-40 v-21 h-35 v21 z"/>
        <path id="南门小吃街" d="M0 455 v184 h64 v-184 z"/>
        <path id="佑铭田径场" d="M282 436 v201 h132 v-201 z"/>
        <path id="佑铭体育馆" d="M56 495 v78 h92 v40 h146 v-158 h-146 v40 z"/>
        <path id="社会学院" d="M66 607 v138 h55 v-138 z"/>
        <path id="管理教育综合楼" d="M66 745 v64 h130 v-64 z"/>
        <path id="新大学生活动中心" d="M396 514 v113 h172 v-113 z"/>
        <path id="露天电影场" d="M395 452 v71 h105 v-71 z"/>
        <path id="音乐学院" d="M491 452 v71 h95 v-71 z"/>
        <path id="东一食堂" d="M525 600 v71 h95 v-71 z"/>
        <path id="东区小树林" d="M607 615 v110 h87 v-110 z"/>
        <path id="高职田径场" d="M685 714 v113 h232 v-113 z"/>
        <path id="东区球场" d="M705 627 v47 h130 v-174 h-58 v75 h-41 v52 z"/>
        <path id="东区网球馆" d="M784 585 v130 h172 v-130 z"/>
        <path id="学子餐厅" d="M705 672 v58 h120 v-58 z"/>
        <path id="东二食堂" d="M695 815 v58 h130 v-58 z"/>
        <path id="沁园春食堂" d="M874 537 v76 h98 v-76 z"/>
        <path id="文华公书林" d="M414 230 v47 h163 v-47 z"/>
        <path id="田家炳楼" d="M433 181 v45 h122 v-45 z"/>
        <path id="图书馆" d="M433 95 h170 v110 h-45 v-45 h-125 z"/>
        <path id="附幼附小" d="M433 0 v104 h120 v-104 z"/>
        <path id="九号楼" d="M686 145 v65 h173 v-65 z"/>
        <path id="校医院" d="M595 68 v52 h72 v35 h112 v-35 h-60 v-52 z"/>
        <path id="四号楼" d="M545 279 v33 h122 v-33 z"/>
        <path id="七号楼" d="M545 362 v38 h122 v-87 h-42 v49 z"/>
        <path id="六号楼" d="M663 286 v47 h215 v-47 z"/>
        <path id="五号楼" d="M668 332 v63 h200 v-63 z"/>
        <path id="老大活" d="M792 398 v60 h100 v-60 z"/>
        <path id="博雅广场" d="M687 212 v72 h173 v-72 z"/>
        <path id="科学会堂" d="M860 209 v43 h119 v-83 h-36 v40 z"/>
        <path id="化学学院" d="M977 178 v99 h66 v-50 h136 v-50 h-202 z"/>
        <path id="桂苑宾馆" d="M1179 178 v160 l140 10 z"/>
        <path id="十号楼" d="M907 280 v111 h105 v-38 h-72 v-41 h69 v-32 z"/>
        <path id="南湖食堂" d="M1000 600 v80 h160 v-80 z"/>
        <path id="民族餐厅" d="M1000 570 v40 h100 v-40 z"/>
        <path id="露天球场" d="M1180 730 v120 h160 v-120 z"/>
        <path id="南湖田径场" d="M1000 780 v180 h150 v-180 z"/>
        <path id="南湖体育馆" d="M1030 700 v100 h70 v-100 z"/>
        <path id="南湖综合楼" d="M1130 500 v80 h200 v-80 z"/>
        <path id="图书馆" d="m1210 570 v100 h60 v-100 z"/>
    </g>
    <g id="地名">
        <text x="40" y="70">国交</text>
        <text x="120" y="123">YY楼</text>
        <text x="215" y="160">八号楼</text>
        <text x="240" y="210">三</text>
        <text x="240" y="240">号</text>
        <text x="240" y="270">楼</text>
        <text x="120" y="270">一号楼</text>
        <text x="310" y="270">二号楼</text>
        <text x="75" y="350">桂香园</text>
        <text x="215" y="415">西区球场</text>
        <text x="280" y="350">乒羽中心</text>
        <text x="140" y="540">佑铭体育馆</text>
        <text x="15" y="500">南</text>
        <text x="15" y="530">门</text>
        <text x="15" y="560">小</text>
        <text x="15" y="590">吃</text>
        <text x="15" y="620">街</text>
        <text x="75" y="643">社</text>
        <text x="75" y="673">会</text>
        <text x="75" y="703">学</text>
        <text x="75" y="733">院</text>
        <text x="75" y="773">管理教育</text>
        <text x="85" y="803">综合楼</text>
        <text x="315" y="520">佑铭</text>
        <text x="300" y="550">田径场</text>
        <text x="415" y="570">新大学生</text>
        <text x="415" y="600">活动中心</text>
        <text x="415" y="480">露天</text>
        <text x="400" y="510">电影场</text>
        <text x="505" y="480">音乐</text>
        <text x="505" y="510">学院</text>
        <text x="540" y="630">东一</text>
        <text x="540" y="660">食堂</text>
        <text x="620" y="660">东区</text>
        <text x="605" y="690">小树林</text>
        <text x="705" y="710">学子餐厅</text>
        <text x="725" y="780">高职田径场</text>
        <text x="700" y="860">东二食堂</text>
        <text x="800" y="660">东区网球馆</text>
        <text x="790" y="540">东</text>
        <text x="790" y="570">区</text>
        <text x="750" y="610">球</text>
        <text x="750" y="640">场</text>
        <text x="880" y="570">沁园春</text>
        <text x="895" y="600">餐厅</text>
        <text x="420" y="265">文华公书林</text>
        <text x="415" y="340">恽代英广场</text>
        <text x="435" y="215">田家炳楼</text>
        <text x="460" y="50">附幼</text>
        <text x="445" y="80">＆附小</text>
        <text x="480" y="140">图书馆</text>
        <text x="610" y="105">校医院</text>
        <text x="720" y="190">九号楼</text>
        <text x="705" y="260">博雅广场</text>
        <text x="720" y="320">六号楼</text>
        <text x="720" y="375">五号楼</text>
        <text x="560" y="392">七号楼</text>
        <text x="560" y="308">四号楼</text>
        <text x="990" y="215">化学学院</text>
        <text x="860" y="240">科学会堂</text>
        <text x="915" y="385">十号楼</text>
        <text x="1200" y="300">桂苑</text>
        <text x="1200" y="330">宾馆</text>
        <text x="795" y="440">老大活</text>
        <text class="xq" x="1080" y="450">南湖校区</text>
        <text x="1160" y="550">南湖综合楼</text>
        <text x="1225" y="600">图</text>
        <text x="1225" y="630">书</text>
        <text x="1225" y="660">馆</text>
        <text x="1020" y="650">南湖食堂</text>
        <text class="xx" x="1010" y="600">民族餐厅</text>
        <text x="1200" y="800">露天球场</text>
        <text x="1040" y="870">南湖</text>
        <text x="1025" y="900">田径场</text>
        <text x="1050" y="730">体</text>
        <text x="1050" y="760">育</text>
        <text x="1050" y="790">馆</text>
    </g>
    <!--    <a href="https://lab.magiconch.com" target="_blank">-->
    <!--        <text x="37" y="937">神奇海螺试验场</text>-->
    <!--    </a>-->
    <text id="进度" x="1350" y="503">探索进度：</text>
    <text id="分数" x="1470" y="583">得分：</text>
    <g id="等级">
        <path fill="#FF7E7E" d="M1510 100h150v50H1510Z"/>
        <path fill="#FFB57E" d="M1510 150h150v50H1510Z"/>
        <path fill="#FFE57E" d="M1510 200h150v50H1510Z"/>
        <path fill="#A8FFBE" d="M1510 250h150v50H1510Z"/>
        <path fill="#FFF" d="M1510 300h150v50H1510Z"/>
        <path class="边框" d="M1510 98h150v254H1510Z"/>
        <text x="1517" y="135">每日必去4</text>
        <text x="1517" y="185">经常出没3</text>
        <text x="1517" y="235">偶尔会去2</text>
        <text x="1517" y="285">只是路过1</text>
        <text x="1515" y="335">从未踏足</text>
    </g>
</svg>