<?xml version="1.0" encoding="utf-8"?>
<svg xmlns="http://www.w3.org/2000/svg" viewBox="0 0 2000 1000">
    <style></style>
    <style>
        text {
            font-family: 'Tensentype-JiaLiDaYuanJF', sans-serif;
            fill: #111;
            font-size: 30px;
        }

        #标题 {
            font-size: 120px;
            font-family: 'simpleShangShouZhiZunShuFaTi', sans-serif;
        }

        #分数,
        #进度 {
            font-size: 55px;
        }

        .fs24 {
            font-size: 24px;
        }

        .xq {
            font-size: 40px;
        }

        .xx {
            font-size: 20px;
        }

        .xa {
            font-size: 25px;
        }

        .abc {
            font-size: 120px;
            font-family: 'simpleShangShouZhiZunShuFaTi', sans-serif;
        }

        .red {
            fill: red
        }

        #地点 path,
        .边框 {
            fill-rule: evenodd;
            clip-rule: evenodd;
            stroke: #000;
            stroke-width: 4;
            stroke-linecap: round;
            stroke-linejoin: round;
        }

        #地点 path {
            fill: #FFF;
            cursor: pointer;
            pointer-events: auto;
        }

        .边框 {
            fill: none;
        }

        < !-- #地点 path[level="5"] {
            fill: #FF7E7E;
        }

        -->#地点 path[level="4"] {
            fill: #FF7E7E;
        }

        #地点 path[level="3"] {
            fill: #FFB57E;
        }

        #地点 path[level="2"] {
            fill: #FFE57E;
        }

        #地点 path[level="1"] {
            fill: #A8FFBE;
        }
    </style>
    <text x="1100" y="100" id="标题">制霸华师</text>
    <g id="地点">
        <path id="国交" d="M285 13 v88 h100 v-88 z" />
        <path id="八号楼" d="M391 108 v86 h250 v-86 z" />
        <path id="YY楼" d="M371 53 v108 h87 v-108 z" />
        <path id="三号楼" d="M440 180 v51 h35 v50 h80 v-50 h35 v-51 z" />
        <path id="恽代英广场" d="M660 264 v107 h173 v-107 z" />
        <path id="西区球场" d="M388 330 v136 h286 v-136 z" />
        <path id="桂香园" d="M325 275 v115 h103 v-115 z" />
        <path id="乒羽中心" d="M530 312 v60 h135 v-60 z" />
        <path id="一号楼" d="M360 240 v43 h115 v-43 h-40 v-21 h-35 v21 z" />
        <path id="二号楼" d="M554 240 v43 h115 v-43 h-40 v-21 h-35 v21 z" />
        <path id="南门小吃街" d="M260 455 v184 h64 v-184 z" />
        <path id="佑铭田径场" d="M542 436 v201 h132 v-201 z" />
        <path id="佑铭体育馆" d="M316 495 v78 h92 v40 h146 v-158 h-146 v40 z" />
        <path id="社会学院" d="M326 607 v138 h55 v-138 z" />
        <path id="管理教育综合楼" d="M326 745 v64 h130 v-64 z" />
        <path id="新大学生活动中心" d="M656 514 v113 h172 v-113 z" />
        <path id="露天电影场" d="M655 452 v71 h105 v-71 z" />
        <path id="音乐学院" d="M751 452 v71 h95 v-71 z" />
        <path id="东一食堂" d="M785 600 v71 h95 v-71 z" />
        <path id="东区小树林" d="M867 615 v110 h87 v-110 z" />
        <path id="高职田径场" d="M945 714 v113 h232 v-113 z" />
        <path id="东区球场" d="M965 627 v47 h130 v-174 h-58 v75 h-41 v52 z" />
        <path id="东区网球馆" d="M1044 585 v130 h172 v-130 z" />
        <path id="学子餐厅" d="M965 672 v58 h120 v-58 z" />
        <path id="东二食堂" d="M955 815 v58 h130 v-58 z" />
        <path id="沁园春食堂" d="M1134 537 v76 h98 v-76 z" />
        <path id="文华公书林" d="M674 230 v47 h163 v-47 z" />
        <path id="田家炳楼" d="M693 181 v45 h122 v-45 z" />
        <path id="图书馆" d="M693 95 h170 v110 h-45 v-45 h-125 z" />
        <path id="附幼附小" d="M693 0 v104 h120 v-104 z" />
        <path id="九号楼" d="M946 145 v65 h173 v-65 z" />
        <path id="校医院" d="M855 68 v52 h72 v35 h112 v-35 h-60 v-52 z" />
        <path id="四号楼" d="M805 279 v33 h122 v-33 z" />
        <path id="七号楼" d="M805 362 v38 h122 v-87 h-42 v49 z" />
        <path id="六号楼" d="M923 286 v47 h215 v-47 z" />
        <path id="五号楼" d="M928 332 v63 h200 v-63 z" />
        <path id="老大活" d="M1052 398 v60 h100 v-60 z" />
        <path id="博雅广场" d="M947 212 v72 h173 v-72 z" />
        <path id="科学会堂" d="M1120 209 v43 h119 v-83 h-36 v40 z" />
        <path id="化学学院" d="M1237 178 v99 h66 v-50 h136 v-50 h-202 z" />
        <path id="桂苑宾馆" d="M1439 178 v160 h100 v-160 z" />
        <path id="十号楼" d="M1167 280 v111 h105 v-38 h-72 v-41 h69 v-32 z" />
        <path id="南湖食堂" d="M1260 600 v80 h160 v-80 z" />
        <path id="民族餐厅" d="M1260 570 v40 h100 v-40 z" />
        <path id="露天球场" d="M1440 730 v120 h160 v-120 z" />
        <path id="南湖田径场" d="M1260 780 v180 h150 v-180 z" />
        <path id="南湖体育馆" d="M1290 700 v100 h70 v-100 z" />
        <path id="南湖综合楼" d="M1390 500 v80 h200 v-80 z" />
        <path id="图书馆" d="m1470 570 v100 h60 v-100 z" />
    </g>
    <g id="地名">
        <text x="300" y="70">国交</text>
        <text x="380" y="123">YY楼</text>
        <text x="475" y="160">八号楼</text>
        <text x="500" y="210">三</text>
        <text x="500" y="240">号</text>
        <text x="500" y="270">楼</text>
        <text x="380" y="270">一号楼</text>
        <text x="570" y="270">二号楼</text>
        <text x="335" y="350">桂香园</text>
        <text x="475" y="415">西区球场</text>
        <text x="540" y="350">乒羽中心</text>
        <text x="400" y="540">佑铭体育馆</text>
        <text x="275" y="500">南</text>
        <text x="275" y="530">门</text>
        <text x="275" y="560">小</text>
        <text x="275" y="590">吃</text>
        <text x="275" y="620">街</text>
        <text x="335" y="643">社</text>
        <text x="335" y="673">会</text>
        <text x="335" y="703">学</text>
        <text x="335" y="733">院</text>
        <text class="xa" x="345" y="770">管理教育</text>
        <text class="xa" x="355" y="800">综合楼</text>
        <text x="575" y="520">佑铭</text>
        <text x="560" y="550">田径场</text>
        <text x="675" y="570">新大学生</text>
        <text x="675" y="600">活动中心</text>
        <text x="675" y="480">露天</text>
        <text x="660" y="510">电影场</text>
        <text x="765" y="480">音乐</text>
        <text x="765" y="510">学院</text>
        <text x="800" y="630">东一</text>
        <text x="800" y="660">食堂</text>
        <text x="880" y="660">东区</text>
        <text x="865" y="690">小树林</text>
        <text x="965" y="710">学子餐厅</text>
        <text x="985" y="780">高职田径场</text>
        <text x="960" y="860">东二食堂</text>
        <text x="1060" y="660">东区网球馆</text>
        <text x="1050" y="540">东</text>
        <text x="1050" y="570">区</text>
        <text x="1010" y="610">球</text>
        <text x="1010" y="640">场</text>
        <text x="1140" y="570">沁园春</text>
        <text x="1155" y="600">餐厅</text>
        <text x="680" y="265">文华公书林</text>
        <text x="675" y="340">恽代英广场</text>
        <text x="695" y="215">田家炳楼</text>
        <text x="720" y="50">附幼</text>
        <text x="705" y="80">＆附小</text>
        <text x="740" y="140">图书馆</text>
        <text x="870" y="105">校医院</text>
        <text x="980" y="190">九号楼</text>
        <text x="965" y="260">博雅广场</text>
        <text x="980" y="320">六号楼</text>
        <text x="980" y="375">五号楼</text>
        <text x="820" y="392">七号楼</text>
        <text x="820" y="308">四号楼</text>
        <text x="1250" y="215">化学学院</text>
        <text x="1120" y="240">科学会堂</text>
        <text x="1175" y="385">十号楼</text>
        <text x="1460" y="250">桂苑</text>
        <text x="1460" y="290">宾馆</text>
        <text x="1055" y="440">老大活</text>
        <text class="xq" x="1340" y="450">南湖校区</text>
        <path d="M1240 400 v590 h365 v-590 Z" fill="transparent" stroke-dasharray="5 4" stroke="black" />
        <text x="1420" y="550">南湖综合楼</text>
        <text x="1485" y="600">图</text>
        <text x="1485" y="630">书</text>
        <text x="1485" y="660">馆</text>
        <text x="1280" y="650">南湖食堂</text>
        <text class="xx" x="1270" y="600">民族餐厅</text>
        <text x="1460" y="800">露天球场</text>
        <text x="1300" y="870">南湖</text>
        <text x="1285" y="900">田径场</text>
        <text x="1310" y="730">体</text>
        <text x="1310" y="760">育</text>
        <text x="1310" y="790">馆</text>
    </g>
    <!--    <a href="https://lab.magiconch.com" target="_blank">-->
    <!--        <text x="37" y="937">神奇海螺试验场</text>-->
    <!--    </a>-->
    <text id="进度" x="1610" y="503">探索进度：</text>
    <text id="分数" x="1730" y="583">得分：</text>
    <text class="abc red" x="0" y="100">评</text>
    <text class="abc red" x="0" y="250">级</text>
    <text class="abc" id="称号1" x="120" y="300">华</text>
    <text class="abc" id="称号2" x="120" y="450">师</text>
    <text class="abc" id="称号3" x="120" y="600">万</text>
    <text class="abc" id="称号4" x="120" y="750">事</text>
    <text class="abc" id="称号5" x="120" y="900">通</text>
    <g id="等级">
        <path fill="#FF7E7E" d="M1770 100h150v50H1770Z" />
        <path fill="#FFB57E" d="M1770 150h150v50H1770Z" />
        <path fill="#FFE57E" d="M1770 200h150v50H1770Z" />
        <path fill="#A8FFBE" d="M1770 250h150v50H1770Z" />
        <path fill="#FFF" d="M1770 300h150v50H1770Z" />
        <path class="边框" d="M1770 98h150v254H1770Z" />
        <text x="1777" y="135">每日必去4</text>
        <text x="1777" y="185">经常出没3</text>
        <text x="1777" y="235">偶尔会去2</text>
        <text x="1777" y="285">只是路过1</text>
        <text x="1775" y="335">从未踏足</text>
        <text style="display:none">桂子山庄主登山强者小有探索初入华师足不出户</text>
    </g>
    <text x="1650" y="680">游玩链接</text>
    <text x="1790" y="680">团队空间</text>
    <text style="font-size:40px" x="1920" y="640">木</text>
    <text style="font-size:40px" x="1920" y="685">犀</text>
    <text style="font-size:40px" x="1920" y="730">团</text>
    <text style="font-size:40px" x="1920" y="775">队</text>
    <text style="font-size:40px" x="1920" y="820">开</text>
    <text style="font-size:40px" x="1920" y="865">发</text>

    <svg version="1.0" xmlns="http://www.w3.org/2000/svg" x="1650" y="695" width="115.000000px" height="115.000000px"
        viewBox="0 0 400.000000 400.000000" preserveAspectRatio="xMidYMid meet">
        <path
            d="M0 0 C22.44 0 44.88 0 68 0 C68 22.44 68 44.88 68 68 C45.56 68 23.12 68 0 68 C0 45.56 0 23.12 0 0 Z M10 10 C10 26.17 10 42.34 10 59 C26.17 59 42.34 59 59 59 C59 42.83 59 26.66 59 10 C42.83 10 26.66 10 10 10 Z "
            fill="#000000" transform="translate(19,19)" />
        <path d="M0 0 C3.3 0 6.6 0 10 0 C10 3.3 10 6.6 10 10 C6.7 10 3.4 10 0 10 C0 6.7 0 3.4 0 0 Z " fill="#000000"
            transform="translate(97,19)" />
        <path
            d="M0 0 C2.97 0 5.94 0 9 0 C9 6.6 9 13.2 9 20 C2.73 20 -3.54 20 -10 20 C-10 16.7 -10 13.4 -10 10 C-6.7 10 -3.4 10 0 10 C0 6.7 0 3.4 0 0 Z "
            fill="#000000" transform="translate(117,19)" />
        <path
            d="M0 0 C2.97 0 5.94 0 9 0 C9 3.3 9 6.6 9 10 C12.3 10 15.6 10 19 10 C19 6.7 19 3.4 19 0 C31.87 0 44.74 0 58 0 C58 3.3 58 6.6 58 10 C54.7 10 51.4 10 48 10 C48 13.3 48 16.6 48 20 C45.03 20 42.06 20 39 20 C39 16.7 39 13.4 39 10 C35.7 10 32.4 10 29 10 C29 13.3 29 16.6 29 20 C22.4 20 15.8 20 9 20 C9 22.97 9 25.94 9 29 C6.03 29 3.06 29 0 29 C0 19.43 0 9.86 0 0 Z "
            fill="#000000" transform="translate(156,19)" />
        <path
            d="M0 0 C12.87 0 25.74 0 39 0 C39 3.3 39 6.6 39 10 C35.7 10 32.4 10 29 10 C29 13.3 29 16.6 29 20 C22.73 20 16.46 20 10 20 C10 16.7 10 13.4 10 10 C6.7 10 3.4 10 0 10 C0 6.7 0 3.4 0 0 Z "
            fill="#000000" transform="translate(263,19)" />
        <path
            d="M0 0 C22.44 0 44.88 0 68 0 C68 22.44 68 44.88 68 68 C45.56 68 23.12 68 0 68 C0 45.56 0 23.12 0 0 Z M9 10 C9 26.17 9 42.34 9 59 C25.17 59 41.34 59 58 59 C58 42.83 58 26.66 58 10 C41.83 10 25.66 10 9 10 Z "
            fill="#000000" transform="translate(312,19)" />
        <path
            d="M0 0 C3.3 0 6.6 0 10 0 C10 6.27 10 12.54 10 19 C6.7 19 3.4 19 0 19 C0 22.3 0 25.6 0 29 C9.57 29 19.14 29 29 29 C29 25.7 29 22.4 29 19 C32.3 19 35.6 19 39 19 C39 25.6 39 32.2 39 39 C42.3 39 45.6 39 49 39 C49 32.4 49 25.8 49 19 C55.27 19 61.54 19 68 19 C68 22.3 68 25.6 68 29 C71.3 29 74.6 29 78 29 C78 41.87 78 54.74 78 68 C81.3 68 84.6 68 88 68 C88 74.6 88 81.2 88 88 C84.7 88 81.4 88 78 88 C78 90.97 78 93.94 78 97 C81.3 97 84.6 97 88 97 C88 100.3 88 103.6 88 107 C90.97 107 93.94 107 97 107 C97 110.3 97 113.6 97 117 C100.3 117 103.6 117 107 117 C107 120.3 107 123.6 107 127 C103.7 127 100.4 127 97 127 C97 129.97 97 132.94 97 136 C100.3 136 103.6 136 107 136 C107 139.3 107 142.6 107 146 C103.7 146 100.4 146 97 146 C97 152.6 97 159.2 97 166 C94.03 166 91.06 166 88 166 C88 168.97 88 171.94 88 175 C90.97 175 93.94 175 97 175 C97 178.3 97 181.6 97 185 C100.3 185 103.6 185 107 185 C107 188.3 107 191.6 107 195 C103.7 195 100.4 195 97 195 C97 198.3 97 201.6 97 205 C94.03 205 91.06 205 88 205 C88 207.97 88 210.94 88 214 C90.97 214 93.94 214 97 214 C97 217.3 97 220.6 97 224 C94.03 224 91.06 224 88 224 C88 230.6 88 237.2 88 244 C84.7 244 81.4 244 78 244 C78 234.1 78 224.2 78 214 C74.7 214 71.4 214 68 214 C68 211.03 68 208.06 68 205 C71.3 205 74.6 205 78 205 C78 201.7 78 198.4 78 195 C71.4 195 64.8 195 58 195 C58 191.7 58 188.4 58 185 C61.3 185 64.6 185 68 185 C68 175.43 68 165.86 68 156 C64.7 156 61.4 156 58 156 C58 152.7 58 149.4 58 146 C61.3 146 64.6 146 68 146 C68 142.7 68 139.4 68 136 C71.3 136 74.6 136 78 136 C78 139.3 78 142.6 78 146 C81.3 146 84.6 146 88 146 C88 136.43 88 126.86 88 117 C78.1 117 68.2 117 58 117 C58 113.7 58 110.4 58 107 C61.3 107 64.6 107 68 107 C68 103.7 68 100.4 68 97 C64.7 97 61.4 97 58 97 C58 94.03 58 91.06 58 88 C55.03 88 52.06 88 49 88 C49 81.4 49 74.8 49 68 C39.1 68 29.2 68 19 68 C19 64.7 19 61.4 19 58 C16.03 58 13.06 58 10 58 C10 51.73 10 45.46 10 39 C6.7 39 3.4 39 0 39 C0 45.27 0 51.54 0 58 C-3.3 58 -6.6 58 -10 58 C-10 55.03 -10 52.06 -10 49 C-13.3 49 -16.6 49 -20 49 C-20 36.13 -20 23.26 -20 10 C-13.4 10 -6.8 10 0 10 C0 6.7 0 3.4 0 0 Z M49 39 C49 42.3 49 45.6 49 49 C51.97 49 54.94 49 58 49 C58 45.7 58 42.4 58 39 C55.03 39 52.06 39 49 39 Z M19 49 C19 51.97 19 54.94 19 58 C22.3 58 25.6 58 29 58 C29 55.03 29 52.06 29 49 C25.7 49 22.4 49 19 49 Z M39 49 C39 51.97 39 54.94 39 58 C42.3 58 45.6 58 49 58 C49 55.03 49 52.06 49 49 C45.7 49 42.4 49 39 49 Z M58 49 C58 55.27 58 61.54 58 68 C61.3 68 64.6 68 68 68 C68 61.73 68 55.46 68 49 C64.7 49 61.4 49 58 49 Z "
            fill="#000000" transform="translate(224,29)" />
        <path
            d="M0 0 C6.6 0 13.2 0 20 0 C20 3.3 20 6.6 20 10 C16.7 10 13.4 10 10 10 C10 12.97 10 15.94 10 19 C6.7 19 3.4 19 0 19 C0 12.73 0 6.46 0 0 Z "
            fill="#000000" transform="translate(243,29)" />
        <path d="M0 0 C9.57 0 19.14 0 29 0 C29 9.57 29 19.14 29 29 C19.43 29 9.86 29 0 29 C0 19.43 0 9.86 0 0 Z "
            fill="#000000" transform="translate(39,39)" />
        <path
            d="M0 0 C6.6 0 13.2 0 20 0 C20 6.27 20 12.54 20 19 C16.7 19 13.4 19 10 19 C10 15.7 10 12.4 10 9 C6.7 9 3.4 9 0 9 C0 6.03 0 3.06 0 0 Z "
            fill="#000000" transform="translate(126,39)" />
        <path d="M0 0 C9.57 0 19.14 0 29 0 C29 9.57 29 19.14 29 29 C19.43 29 9.86 29 0 29 C0 19.43 0 9.86 0 0 Z "
            fill="#000000" transform="translate(331,39)" />
        <path d="M0 0 C6.6 0 13.2 0 20 0 C20 3.3 20 6.6 20 10 C13.4 10 6.8 10 0 10 C0 6.7 0 3.4 0 0 Z " fill="#000000"
            transform="translate(97,48)" />
        <path d="M0 0 C3.3 0 6.6 0 10 0 C10 3.3 10 6.6 10 10 C6.7 10 3.4 10 0 10 C0 6.7 0 3.4 0 0 Z " fill="#000000"
            transform="translate(175,48)" />
        <path d="M0 0 C3.3 0 6.6 0 10 0 C10 3.3 10 6.6 10 10 C6.7 10 3.4 10 0 10 C0 6.7 0 3.4 0 0 Z " fill="#000000"
            transform="translate(126,58)" />
        <path d="M0 0 C3.3 0 6.6 0 10 0 C10 3.3 10 6.6 10 10 C6.7 10 3.4 10 0 10 C0 6.7 0 3.4 0 0 Z " fill="#000000"
            transform="translate(165,58)" />
        <path
            d="M0 0 C6.27 0 12.54 0 19 0 C19 6.27 19 12.54 19 19 C16.03 19 13.06 19 10 19 C10 16.03 10 13.06 10 10 C6.7 10 3.4 10 0 10 C0 6.7 0 3.4 0 0 Z "
            fill="#000000" transform="translate(107,68)" />
        <path d="M0 0 C3.3 0 6.6 0 10 0 C10 3.3 10 6.6 10 10 C6.7 10 3.4 10 0 10 C0 6.7 0 3.4 0 0 Z " fill="#000000"
            transform="translate(146,68)" />
        <path d="M0 0 C3.3 0 6.6 0 10 0 C10 2.97 10 5.94 10 9 C6.7 9 3.4 9 0 9 C0 6.03 0 3.06 0 0 Z " fill="#000000"
            transform="translate(97,78)" />
        <path
            d="M0 0 C3.3 0 6.6 0 10 0 C10 2.97 10 5.94 10 9 C13.3 9 16.6 9 20 9 C20 12.3 20 15.6 20 19 C16.7 19 13.4 19 10 19 C10 22.3 10 25.6 10 29 C6.7 29 3.4 29 0 29 C0 25.7 0 22.4 0 19 C-3.3 19 -6.6 19 -10 19 C-10 15.7 -10 12.4 -10 9 C-6.7 9 -3.4 9 0 9 C0 6.03 0 3.06 0 0 Z "
            fill="#000000" transform="translate(136,78)" />
        <path d="M0 0 C2.97 0 5.94 0 9 0 C9 2.97 9 5.94 9 9 C6.03 9 3.06 9 0 9 C0 6.03 0 3.06 0 0 Z " fill="#000000"
            transform="translate(156,78)" />
        <path d="M0 0 C3.3 0 6.6 0 10 0 C10 2.97 10 5.94 10 9 C6.7 9 3.4 9 0 9 C0 6.03 0 3.06 0 0 Z " fill="#000000"
            transform="translate(175,78)" />
        <path d="M0 0 C2.97 0 5.94 0 9 0 C9 2.97 9 5.94 9 9 C6.03 9 3.06 9 0 9 C0 6.03 0 3.06 0 0 Z " fill="#000000"
            transform="translate(195,78)" />
        <path d="M0 0 C3.3 0 6.6 0 10 0 C10 3.3 10 6.6 10 10 C6.7 10 3.4 10 0 10 C0 6.7 0 3.4 0 0 Z " fill="#000000"
            transform="translate(107,87)" />
        <path
            d="M0 0 C3.3 0 6.6 0 10 0 C10 3.3 10 6.6 10 10 C13.3 10 16.6 10 20 10 C20 6.7 20 3.4 20 0 C23.3 0 26.6 0 30 0 C30 3.3 30 6.6 30 10 C32.97 10 35.94 10 39 10 C39 6.7 39 3.4 39 0 C42.3 0 45.6 0 49 0 C49 6.6 49 13.2 49 20 C42.73 20 36.46 20 30 20 C30 23.3 30 26.6 30 30 C32.97 30 35.94 30 39 30 C39 32.97 39 35.94 39 39 C32.73 39 26.46 39 20 39 C20 42.3 20 45.6 20 49 C10.43 49 0.86 49 -9 49 C-9 61.87 -9 74.74 -9 88 C-6.03 88 -3.06 88 0 88 C0 94.6 0 101.2 0 108 C-2.97 108 -5.94 108 -9 108 C-9 110.97 -9 113.94 -9 117 C-15.6 117 -22.2 117 -29 117 C-29 114.03 -29 111.06 -29 108 C-32.3 108 -35.6 108 -39 108 C-39 101.4 -39 94.8 -39 88 C-41.97 88 -44.94 88 -48 88 C-48 84.7 -48 81.4 -48 78 C-45.03 78 -42.06 78 -39 78 C-39 75.03 -39 72.06 -39 69 C-32.4 69 -25.8 69 -19 69 C-19 62.4 -19 55.8 -19 49 C-22.3 49 -25.6 49 -29 49 C-29 45.7 -29 42.4 -29 39 C-32.3 39 -35.6 39 -39 39 C-39 36.03 -39 33.06 -39 30 C-29.1 30 -19.2 30 -9 30 C-9 32.97 -9 35.94 -9 39 C-6.03 39 -3.06 39 0 39 C0 26.13 0 13.26 0 0 Z M10 20 C10 23.3 10 26.6 10 30 C13.3 30 16.6 30 20 30 C20 26.7 20 23.4 20 20 C16.7 20 13.4 20 10 20 Z M-29 98 C-29 101.3 -29 104.6 -29 108 C-25.7 108 -22.4 108 -19 108 C-19 104.7 -19 101.4 -19 98 C-22.3 98 -25.6 98 -29 98 Z "
            fill="#000000" transform="translate(165,87)" />
        <path d="M0 0 C3.3 0 6.6 0 10 0 C10 3.3 10 6.6 10 10 C6.7 10 3.4 10 0 10 C0 6.7 0 3.4 0 0 Z " fill="#000000"
            transform="translate(224,87)" />
        <path d="M0 0 C2.97 0 5.94 0 9 0 C9 3.3 9 6.6 9 10 C6.03 10 3.06 10 0 10 C0 6.7 0 3.4 0 0 Z " fill="#000000"
            transform="translate(39,97)" />
        <path d="M0 0 C9.57 0 19.14 0 29 0 C29 3.3 29 6.6 29 10 C19.43 10 9.86 10 0 10 C0 6.7 0 3.4 0 0 Z "
            fill="#000000" transform="translate(58,97)" />
        <path
            d="M0 0 C3.3 0 6.6 0 10 0 C10 3.3 10 6.6 10 10 C13.3 10 16.6 10 20 10 C20 6.7 20 3.4 20 0 C22.97 0 25.94 0 29 0 C29 6.6 29 13.2 29 20 C26.03 20 23.06 20 20 20 C20 22.97 20 25.94 20 29 C16.7 29 13.4 29 10 29 C10 26.03 10 23.06 10 20 C6.7 20 3.4 20 0 20 C0 13.4 0 6.8 0 0 Z "
            fill="#000000" transform="translate(97,97)" />
        <path
            d="M0 0 C2.97 0 5.94 0 9 0 C9 6.6 9 13.2 9 20 C6.03 20 3.06 20 0 20 C0 26.27 0 32.54 0 39 C-3.3 39 -6.6 39 -10 39 C-10 32.73 -10 26.46 -10 20 C-13.3 20 -16.6 20 -20 20 C-20 16.7 -20 13.4 -20 10 C-13.4 10 -6.8 10 0 10 C0 6.7 0 3.4 0 0 Z "
            fill="#000000" transform="translate(234,97)" />
        <path d="M0 0 C3.3 0 6.6 0 10 0 C10 3.3 10 6.6 10 10 C6.7 10 3.4 10 0 10 C0 6.7 0 3.4 0 0 Z " fill="#000000"
            transform="translate(341,97)" />
        <path
            d="M0 0 C3.3 0 6.6 0 10 0 C10 9.57 10 19.14 10 29 C6.7 29 3.4 29 0 29 C0 32.3 0 35.6 0 39 C3.3 39 6.6 39 10 39 C10 48.57 10 58.14 10 68 C6.7 68 3.4 68 0 68 C0 65.03 0 62.06 0 59 C-3.3 59 -6.6 59 -10 59 C-10 61.97 -10 64.94 -10 68 C-12.97 68 -15.94 68 -19 68 C-19 65.03 -19 62.06 -19 59 C-22.3 59 -25.6 59 -29 59 C-29 55.7 -29 52.4 -29 49 C-22.73 49 -16.46 49 -10 49 C-10 42.4 -10 35.8 -10 29 C-16.27 29 -22.54 29 -29 29 C-29 26.03 -29 23.06 -29 20 C-25.7 20 -22.4 20 -19 20 C-19 16.7 -19 13.4 -19 10 C-12.73 10 -6.46 10 0 10 C0 6.7 0 3.4 0 0 Z "
            fill="#000000" transform="translate(370,97)" />
        <path
            d="M0 0 C6.6 0 13.2 0 20 0 C20 6.27 20 12.54 20 19 C16.7 19 13.4 19 10 19 C10 16.03 10 13.06 10 10 C6.7 10 3.4 10 0 10 C0 6.7 0 3.4 0 0 Z "
            fill="#000000" transform="translate(19,107)" />
        <path
            d="M0 0 C3.3 0 6.6 0 10 0 C10 3.3 10 6.6 10 10 C13.3 10 16.6 10 20 10 C20 16.27 20 22.54 20 29 C26.27 29 32.54 29 39 29 C39 25.7 39 22.4 39 19 C42.3 19 45.6 19 49 19 C49 22.3 49 25.6 49 29 C52.3 29 55.6 29 59 29 C59 32.3 59 35.6 59 39 C65.27 39 71.54 39 78 39 C78 42.3 78 45.6 78 49 C75.03 49 72.06 49 69 49 C69 51.97 69 54.94 69 58 C65.7 58 62.4 58 59 58 C59 61.3 59 64.6 59 68 C62.3 68 65.6 68 69 68 C69 74.6 69 81.2 69 88 C65.7 88 62.4 88 59 88 C59 84.7 59 81.4 59 78 C55.7 78 52.4 78 49 78 C49 74.7 49 71.4 49 68 C45.7 68 42.4 68 39 68 C39 71.3 39 74.6 39 78 C36.03 78 33.06 78 30 78 C30 81.3 30 84.6 30 88 C26.7 88 23.4 88 20 88 C20 90.97 20 93.94 20 97 C23.3 97 26.6 97 30 97 C30 100.3 30 103.6 30 107 C23.4 107 16.8 107 10 107 C10 97.43 10 87.86 10 78 C6.7 78 3.4 78 0 78 C0 81.3 0 84.6 0 88 C-2.97 88 -5.94 88 -9 88 C-9 90.97 -9 93.94 -9 97 C-6.03 97 -3.06 97 0 97 C0 100.3 0 103.6 0 107 C-6.27 107 -12.54 107 -19 107 C-19 113.6 -19 120.2 -19 127 C-22.3 127 -25.6 127 -29 127 C-29 101.26 -29 75.52 -29 49 C-25.7 49 -22.4 49 -19 49 C-19 45.7 -19 42.4 -19 39 C-12.73 39 -6.46 39 0 39 C0 35.7 0 32.4 0 29 C3.3 29 6.6 29 10 29 C10 25.7 10 22.4 10 19 C6.7 19 3.4 19 0 19 C0 12.73 0 6.46 0 0 Z M10 39 C10 45.27 10 51.54 10 58 C3.73 58 -2.54 58 -9 58 C-9 61.3 -9 64.6 -9 68 C6.84 68 22.68 68 39 68 C39 64.7 39 61.4 39 58 C32.73 58 26.46 58 20 58 C20 51.73 20 45.46 20 39 C16.7 39 13.4 39 10 39 Z M30 39 C30 42.3 30 45.6 30 49 C32.97 49 35.94 49 39 49 C39 45.7 39 42.4 39 39 C36.03 39 33.06 39 30 39 Z "
            fill="#000000" transform="translate(48,107)" />
        <path
            d="M0 0 C3.3 0 6.6 0 10 0 C10 6.27 10 12.54 10 19 C3.73 19 -2.54 19 -9 19 C-9 16.03 -9 13.06 -9 10 C-6.03 10 -3.06 10 0 10 C0 6.7 0 3.4 0 0 Z "
            fill="#000000" transform="translate(321,107)" />
        <path d="M0 0 C2.97 0 5.94 0 9 0 C9 2.97 9 5.94 9 9 C6.03 9 3.06 9 0 9 C0 6.03 0 3.06 0 0 Z " fill="#000000"
            transform="translate(78,117)" />
        <path d="M0 0 C3.3 0 6.6 0 10 0 C10 6.27 10 12.54 10 19 C6.7 19 3.4 19 0 19 C0 12.73 0 6.46 0 0 Z "
            fill="#000000" transform="translate(243,117)" />
        <path
            d="M0 0 C3.3 0 6.6 0 10 0 C10 2.97 10 5.94 10 9 C12.97 9 15.94 9 19 9 C19 12.3 19 15.6 19 19 C16.03 19 13.06 19 10 19 C10 22.3 10 25.6 10 29 C6.7 29 3.4 29 0 29 C0 19.43 0 9.86 0 0 Z "
            fill="#000000" transform="translate(263,117)" />
        <path d="M0 0 C2.97 0 5.94 0 9 0 C9 3.3 9 6.6 9 10 C6.03 10 3.06 10 0 10 C0 6.7 0 3.4 0 0 Z " fill="#000000"
            transform="translate(39,126)" />
        <path d="M0 0 C3.3 0 6.6 0 10 0 C10 3.3 10 6.6 10 10 C6.7 10 3.4 10 0 10 C0 6.7 0 3.4 0 0 Z " fill="#000000"
            transform="translate(331,126)" />
        <path d="M0 0 C3.3 0 6.6 0 10 0 C10 3.3 10 6.6 10 10 C6.7 10 3.4 10 0 10 C0 6.7 0 3.4 0 0 Z " fill="#000000"
            transform="translate(185,136)" />
        <path
            d="M0 0 C3.3 0 6.6 0 10 0 C10 3.3 10 6.6 10 10 C13.3 10 16.6 10 20 10 C20 16.27 20 22.54 20 29 C13.4 29 6.8 29 0 29 C0 32.3 0 35.6 0 39 C-2.97 39 -5.94 39 -9 39 C-9 29.43 -9 19.86 -9 10 C-6.03 10 -3.06 10 0 10 C0 6.7 0 3.4 0 0 Z "
            fill="#000000" transform="translate(204,136)" />
        <path d="M0 0 C6.6 0 13.2 0 20 0 C20 3.3 20 6.6 20 10 C13.4 10 6.8 10 0 10 C0 6.7 0 3.4 0 0 Z " fill="#000000"
            transform="translate(165,146)" />
        <path d="M0 0 C2.97 0 5.94 0 9 0 C9 3.3 9 6.6 9 10 C6.03 10 3.06 10 0 10 C0 6.7 0 3.4 0 0 Z " fill="#000000"
            transform="translate(234,146)" />
        <path d="M0 0 C3.3 0 6.6 0 10 0 C10 3.3 10 6.6 10 10 C6.7 10 3.4 10 0 10 C0 6.7 0 3.4 0 0 Z " fill="#000000"
            transform="translate(253,146)" />
        <path
            d="M0 0 C3.3 0 6.6 0 10 0 C10 12.87 10 25.74 10 39 C12.97 39 15.94 39 19 39 C19 45.27 19 51.54 19 58 C16.03 58 13.06 58 10 58 C10 61.3 10 64.6 10 68 C6.7 68 3.4 68 0 68 C0 64.7 0 61.4 0 58 C-3.3 58 -6.6 58 -10 58 C-10 54.7 -10 51.4 -10 48 C-6.7 48 -3.4 48 0 48 C0 32.16 0 16.32 0 0 Z "
            fill="#000000" transform="translate(263,156)" />
        <path d="M0 0 C3.3 0 6.6 0 10 0 C10 3.3 10 6.6 10 10 C6.7 10 3.4 10 0 10 C0 6.7 0 3.4 0 0 Z " fill="#000000"
            transform="translate(175,165)" />
        <path
            d="M0 0 C3.3 0 6.6 0 10 0 C10 3.3 10 6.6 10 10 C13.3 10 16.6 10 20 10 C20 19.57 20 29.14 20 39 C0.53 39 -18.94 39 -39 39 C-39 36.03 -39 33.06 -39 30 C-29.1 30 -19.2 30 -9 30 C-9 26.7 -9 23.4 -9 20 C-6.03 20 -3.06 20 0 20 C0 13.4 0 6.8 0 0 Z "
            fill="#000000" transform="translate(360,165)" />
        <path d="M0 0 C6.6 0 13.2 0 20 0 C20 6.6 20 13.2 20 20 C13.4 20 6.8 20 0 20 C0 13.4 0 6.8 0 0 Z " fill="#000000"
            transform="translate(214,175)" />
        <path d="M0 0 C3.3 0 6.6 0 10 0 C10 3.3 10 6.6 10 10 C6.7 10 3.4 10 0 10 C0 6.7 0 3.4 0 0 Z " fill="#000000"
            transform="translate(243,175)" />
        <path d="M0 0 C3.3 0 6.6 0 10 0 C10 3.3 10 6.6 10 10 C6.7 10 3.4 10 0 10 C0 6.7 0 3.4 0 0 Z " fill="#000000"
            transform="translate(341,175)" />
        <path
            d="M0 0 C3.3 0 6.6 0 10 0 C10 3.3 10 6.6 10 10 C13.3 10 16.6 10 20 10 C20 12.97 20 15.94 20 19 C29.57 19 39.14 19 49 19 C49 25.6 49 32.2 49 39 C42.73 39 36.46 39 30 39 C30 35.7 30 32.4 30 29 C26.7 29 23.4 29 20 29 C20 38.57 20 48.14 20 58 C26.27 58 32.54 58 39 58 C39 61.3 39 64.6 39 68 C36.03 68 33.06 68 30 68 C30 71.3 30 74.6 30 78 C26.7 78 23.4 78 20 78 C20 74.7 20 71.4 20 68 C16.7 68 13.4 68 10 68 C10 64.7 10 61.4 10 58 C3.73 58 -2.54 58 -9 58 C-9 55.03 -9 52.06 -9 49 C-6.03 49 -3.06 49 0 49 C0 45.7 0 42.4 0 39 C-2.97 39 -5.94 39 -9 39 C-9 35.7 -9 32.4 -9 29 C-6.03 29 -3.06 29 0 29 C0 25.7 0 22.4 0 19 C-2.97 19 -5.94 19 -9 19 C-9 16.03 -9 13.06 -9 10 C-6.03 10 -3.06 10 0 10 C0 6.7 0 3.4 0 0 Z "
            fill="#000000" transform="translate(87,185)" />
        <path
            d="M0 0 C9.57 0 19.14 0 29 0 C29 6.27 29 12.54 29 19 C26.03 19 23.06 19 20 19 C20 16.03 20 13.06 20 10 C13.4 10 6.8 10 0 10 C0 6.7 0 3.4 0 0 Z "
            fill="#000000" transform="translate(175,185)" />
        <path d="M0 0 C6.27 0 12.54 0 19 0 C19 2.97 19 5.94 19 9 C12.73 9 6.46 9 0 9 C0 6.03 0 3.06 0 0 Z "
            fill="#000000" transform="translate(234,195)" />
        <path
            d="M0 0 C12.87 0 25.74 0 39 0 C39 3.3 39 6.6 39 10 C32.4 10 25.8 10 19 10 C19 13.3 19 16.6 19 20 C22.3 20 25.6 20 29 20 C29 23.3 29 26.6 29 30 C22.4 30 15.8 30 9 30 C9 26.7 9 23.4 9 20 C6.03 20 3.06 20 0 20 C0 13.4 0 6.8 0 0 Z "
            fill="#000000" transform="translate(156,204)" />
        <path d="M0 0 C3.3 0 6.6 0 10 0 C10 6.6 10 13.2 10 20 C6.7 20 3.4 20 0 20 C0 13.4 0 6.8 0 0 Z " fill="#000000"
            transform="translate(204,204)" />
        <path d="M0 0 C3.3 0 6.6 0 10 0 C10 6.6 10 13.2 10 20 C6.7 20 3.4 20 0 20 C0 13.4 0 6.8 0 0 Z " fill="#000000"
            transform="translate(224,204)" />
        <path d="M0 0 C3.3 0 6.6 0 10 0 C10 3.3 10 6.6 10 10 C6.7 10 3.4 10 0 10 C0 6.7 0 3.4 0 0 Z " fill="#000000"
            transform="translate(48,214)" />
        <path d="M0 0 C3.3 0 6.6 0 10 0 C10 3.3 10 6.6 10 10 C6.7 10 3.4 10 0 10 C0 6.7 0 3.4 0 0 Z " fill="#000000"
            transform="translate(243,214)" />
        <path
            d="M0 0 C3.3 0 6.6 0 10 0 C10 3.3 10 6.6 10 10 C12.97 10 15.94 10 19 10 C19 6.7 19 3.4 19 0 C25.6 0 32.2 0 39 0 C39 9.57 39 19.14 39 29 C35.7 29 32.4 29 29 29 C29 26.03 29 23.06 29 20 C25.7 20 22.4 20 19 20 C19 22.97 19 25.94 19 29 C16.03 29 13.06 29 10 29 C10 26.03 10 23.06 10 20 C6.7 20 3.4 20 0 20 C0 13.4 0 6.8 0 0 Z "
            fill="#000000" transform="translate(341,214)" />
        <path d="M0 0 C3.3 0 6.6 0 10 0 C10 3.3 10 6.6 10 10 C6.7 10 3.4 10 0 10 C0 6.7 0 3.4 0 0 Z " fill="#000000"
            transform="translate(58,224)" />
        <path d="M0 0 C3.3 0 6.6 0 10 0 C10 3.3 10 6.6 10 10 C6.7 10 3.4 10 0 10 C0 6.7 0 3.4 0 0 Z " fill="#000000"
            transform="translate(214,224)" />
        <path d="M0 0 C3.3 0 6.6 0 10 0 C10 6.27 10 12.54 10 19 C6.7 19 3.4 19 0 19 C0 12.73 0 6.46 0 0 Z "
            fill="#000000" transform="translate(29,234)" />
        <path
            d="M0 0 C3.3 0 6.6 0 10 0 C10 6.27 10 12.54 10 19 C13.3 19 16.6 19 20 19 C20 22.3 20 25.6 20 29 C26.27 29 32.54 29 39 29 C39 25.7 39 22.4 39 19 C45.6 19 52.2 19 59 19 C59 16.03 59 13.06 59 10 C61.97 10 64.94 10 68 10 C68 12.97 68 15.94 68 19 C74.6 19 81.2 19 88 19 C88 25.6 88 32.2 88 39 C84.7 39 81.4 39 78 39 C78 42.3 78 45.6 78 49 C71.73 49 65.46 49 59 49 C59 51.97 59 54.94 59 58 C55.7 58 52.4 58 49 58 C49 51.73 49 45.46 49 39 C45.7 39 42.4 39 39 39 C39 45.27 39 51.54 39 58 C35.7 58 32.4 58 29 58 C29 61.3 29 64.6 29 68 C32.3 68 35.6 68 39 68 C39 71.3 39 74.6 39 78 C42.3 78 45.6 78 49 78 C49 81.3 49 84.6 49 88 C45.7 88 42.4 88 39 88 C39 90.97 39 93.94 39 97 C42.3 97 45.6 97 49 97 C49 100.3 49 103.6 49 107 C45.7 107 42.4 107 39 107 C39 110.3 39 113.6 39 117 C35.7 117 32.4 117 29 117 C29 123.27 29 129.54 29 136 C26.03 136 23.06 136 20 136 C20 133.03 20 130.06 20 127 C13.4 127 6.8 127 0 127 C0 129.97 0 132.94 0 136 C-3.3 136 -6.6 136 -10 136 C-10 142.6 -10 149.2 -10 156 C-12.97 156 -15.94 156 -19 156 C-19 152.7 -19 149.4 -19 146 C-22.3 146 -25.6 146 -29 146 C-29 142.7 -29 139.4 -29 136 C-25.7 136 -22.4 136 -19 136 C-19 129.73 -19 123.46 -19 117 C-16.03 117 -13.06 117 -10 117 C-10 113.7 -10 110.4 -10 107 C-6.7 107 -3.4 107 0 107 C0 110.3 0 113.6 0 117 C3.3 117 6.6 117 10 117 C10 113.7 10 110.4 10 107 C16.27 107 22.54 107 29 107 C29 97.43 29 87.86 29 78 C26.03 78 23.06 78 20 78 C20 81.3 20 84.6 20 88 C16.7 88 13.4 88 10 88 C10 81.4 10 74.8 10 68 C13.3 68 16.6 68 20 68 C20 64.7 20 61.4 20 58 C13.4 58 6.8 58 0 58 C0 51.73 0 45.46 0 39 C-3.3 39 -6.6 39 -10 39 C-10 35.7 -10 32.4 -10 29 C-6.7 29 -3.4 29 0 29 C0 25.7 0 22.4 0 19 C-3.3 19 -6.6 19 -10 19 C-10 16.03 -10 13.06 -10 10 C-6.7 10 -3.4 10 0 10 C0 6.7 0 3.4 0 0 Z M10 29 C10 35.6 10 42.2 10 49 C16.27 49 22.54 49 29 49 C29 45.7 29 42.4 29 39 C26.03 39 23.06 39 20 39 C20 35.7 20 32.4 20 29 C16.7 29 13.4 29 10 29 Z "
            fill="#000000" transform="translate(136,224)" />
        <path d="M0 0 C3.3 0 6.6 0 10 0 C10 2.97 10 5.94 10 9 C6.7 9 3.4 9 0 9 C0 6.03 0 3.06 0 0 Z " fill="#000000"
            transform="translate(224,234)" />
        <path d="M0 0 C3.3 0 6.6 0 10 0 C10 2.97 10 5.94 10 9 C6.7 9 3.4 9 0 9 C0 6.03 0 3.06 0 0 Z " fill="#000000"
            transform="translate(263,234)" />
        <path d="M0 0 C3.3 0 6.6 0 10 0 C10 2.97 10 5.94 10 9 C6.7 9 3.4 9 0 9 C0 6.03 0 3.06 0 0 Z " fill="#000000"
            transform="translate(331,234)" />
        <path
            d="M0 0 C9.9 0 19.8 0 30 0 C30 3.3 30 6.6 30 10 C26.7 10 23.4 10 20 10 C20 13.3 20 16.6 20 20 C23.3 20 26.6 20 30 20 C30 23.3 30 26.6 30 30 C23.4 30 16.8 30 10 30 C10 23.4 10 16.8 10 10 C6.7 10 3.4 10 0 10 C0 6.7 0 3.4 0 0 Z "
            fill="#000000" transform="translate(48,243)" />
        <path
            d="M0 0 C3.3 0 6.6 0 10 0 C10 9.9 10 19.8 10 30 C13.3 30 16.6 30 20 30 C20 32.97 20 35.94 20 39 C26.27 39 32.54 39 39 39 C39 42.3 39 45.6 39 49 C32.73 49 26.46 49 20 49 C20 58.57 20 68.14 20 78 C22.97 78 25.94 78 29 78 C29 81.3 29 84.6 29 88 C26.03 88 23.06 88 20 88 C20 94.6 20 101.2 20 108 C22.97 108 25.94 108 29 108 C29 110.97 29 113.94 29 117 C35.6 117 42.2 117 49 117 C49 120.3 49 123.6 49 127 C52.3 127 55.6 127 59 127 C59 130.3 59 133.6 59 137 C49.1 137 39.2 137 29 137 C29 133.7 29 130.4 29 127 C26.03 127 23.06 127 20 127 C20 130.3 20 133.6 20 137 C13.4 137 6.8 137 0 137 C0 133.7 0 130.4 0 127 C3.3 127 6.6 127 10 127 C10 114.13 10 101.26 10 88 C6.7 88 3.4 88 0 88 C0 78.43 0 68.86 0 59 C3.3 59 6.6 59 10 59 C10 55.7 10 52.4 10 49 C6.7 49 3.4 49 0 49 C0 45.7 0 42.4 0 39 C-3.3 39 -6.6 39 -10 39 C-10 36.03 -10 33.06 -10 30 C-12.97 30 -15.94 30 -19 30 C-19 32.97 -19 35.94 -19 39 C-25.6 39 -32.2 39 -39 39 C-39 36.03 -39 33.06 -39 30 C-35.7 30 -32.4 30 -29 30 C-29 26.7 -29 23.4 -29 20 C-25.7 20 -22.4 20 -19 20 C-19 16.7 -19 13.4 -19 10 C-16.03 10 -13.06 10 -10 10 C-10 13.3 -10 16.6 -10 20 C-6.7 20 -3.4 20 0 20 C0 13.4 0 6.8 0 0 Z "
            fill="#000000" transform="translate(253,243)" />
        <path d="M0 0 C6.27 0 12.54 0 19 0 C19 3.3 19 6.6 19 10 C12.73 10 6.46 10 0 10 C0 6.7 0 3.4 0 0 Z "
            fill="#000000" transform="translate(78,253)" />
        <path d="M0 0 C3.3 0 6.6 0 10 0 C10 6.6 10 13.2 10 20 C6.7 20 3.4 20 0 20 C0 13.4 0 6.8 0 0 Z " fill="#000000"
            transform="translate(282,253)" />
        <path d="M0 0 C3.3 0 6.6 0 10 0 C10 3.3 10 6.6 10 10 C6.7 10 3.4 10 0 10 C0 6.7 0 3.4 0 0 Z " fill="#000000"
            transform="translate(341,253)" />
        <path
            d="M0 0 C6.6 0 13.2 0 20 0 C20 9.57 20 19.14 20 29 C7.13 29 -5.74 29 -19 29 C-19 32.3 -19 35.6 -19 39 C-15.7 39 -12.4 39 -9 39 C-9 42.3 -9 45.6 -9 49 C-12.3 49 -15.6 49 -19 49 C-19 58.57 -19 68.14 -19 78 C-15.7 78 -12.4 78 -9 78 C-9 87.57 -9 97.14 -9 107 C-18.9 107 -28.8 107 -39 107 C-39 100.73 -39 94.46 -39 88 C-41.97 88 -44.94 88 -48 88 C-48 94.27 -48 100.54 -48 107 C-51.3 107 -54.6 107 -58 107 C-58 100.73 -58 94.46 -58 88 C-61.3 88 -64.6 88 -68 88 C-68 81.4 -68 74.8 -68 68 C-71.3 68 -74.6 68 -78 68 C-78 61.73 -78 55.46 -78 49 C-74.7 49 -71.4 49 -68 49 C-68 45.7 -68 42.4 -68 39 C-61.4 39 -54.8 39 -48 39 C-48 32.73 -48 26.46 -48 20 C-45.03 20 -42.06 20 -39 20 C-39 22.97 -39 25.94 -39 29 C-35.7 29 -32.4 29 -29 29 C-29 26.03 -29 23.06 -29 20 C-16.13 20 -3.26 20 10 20 C10 16.7 10 13.4 10 10 C6.7 10 3.4 10 0 10 C0 6.7 0 3.4 0 0 Z M-58 49 C-58 58.57 -58 68.14 -58 78 C-48.43 78 -38.86 78 -29 78 C-29 68.43 -29 58.86 -29 49 C-38.57 49 -48.14 49 -58 49 Z "
            fill="#000000" transform="translate(360,253)" />
        <path d="M0 0 C3.3 0 6.6 0 10 0 C10 3.3 10 6.6 10 10 C6.7 10 3.4 10 0 10 C0 6.7 0 3.4 0 0 Z " fill="#000000"
            transform="translate(29,263)" />
        <path d="M0 0 C3.3 0 6.6 0 10 0 C10 3.3 10 6.6 10 10 C6.7 10 3.4 10 0 10 C0 6.7 0 3.4 0 0 Z " fill="#000000"
            transform="translate(97,263)" />
        <path d="M0 0 C3.3 0 6.6 0 10 0 C10 3.3 10 6.6 10 10 C6.7 10 3.4 10 0 10 C0 6.7 0 3.4 0 0 Z " fill="#000000"
            transform="translate(321,263)" />
        <path d="M0 0 C3.3 0 6.6 0 10 0 C10 2.97 10 5.94 10 9 C6.7 9 3.4 9 0 9 C0 6.03 0 3.06 0 0 Z " fill="#000000"
            transform="translate(19,273)" />
        <path d="M0 0 C2.97 0 5.94 0 9 0 C9 2.97 9 5.94 9 9 C6.03 9 3.06 9 0 9 C0 6.03 0 3.06 0 0 Z " fill="#000000"
            transform="translate(39,273)" />
        <path d="M0 0 C2.97 0 5.94 0 9 0 C9 2.97 9 5.94 9 9 C6.03 9 3.06 9 0 9 C0 6.03 0 3.06 0 0 Z " fill="#000000"
            transform="translate(78,273)" />
        <path d="M0 0 C2.97 0 5.94 0 9 0 C9 2.97 9 5.94 9 9 C6.03 9 3.06 9 0 9 C0 6.03 0 3.06 0 0 Z " fill="#000000"
            transform="translate(117,273)" />
        <path d="M0 0 C3.3 0 6.6 0 10 0 C10 3.3 10 6.6 10 10 C6.7 10 3.4 10 0 10 C0 6.7 0 3.4 0 0 Z " fill="#000000"
            transform="translate(29,282)" />
        <path d="M0 0 C3.3 0 6.6 0 10 0 C10 3.3 10 6.6 10 10 C6.7 10 3.4 10 0 10 C0 6.7 0 3.4 0 0 Z " fill="#000000"
            transform="translate(48,282)" />
        <path
            d="M0 0 C2.97 0 5.94 0 9 0 C9 3.3 9 6.6 9 10 C12.3 10 15.6 10 19 10 C19 13.3 19 16.6 19 20 C15.7 20 12.4 20 9 20 C9 26.27 9 32.54 9 39 C6.03 39 3.06 39 0 39 C0 26.13 0 13.26 0 0 Z "
            fill="#000000" transform="translate(234,282)" />
        <path d="M0 0 C3.3 0 6.6 0 10 0 C10 3.3 10 6.6 10 10 C6.7 10 3.4 10 0 10 C0 6.7 0 3.4 0 0 Z " fill="#000000"
            transform="translate(19,292)" />
        <path d="M0 0 C9.57 0 19.14 0 29 0 C29 3.3 29 6.6 29 10 C19.43 10 9.86 10 0 10 C0 6.7 0 3.4 0 0 Z "
            fill="#000000" transform="translate(58,292)" />
        <path d="M0 0 C3.3 0 6.6 0 10 0 C10 6.6 10 13.2 10 20 C6.7 20 3.4 20 0 20 C0 13.4 0 6.8 0 0 Z " fill="#000000"
            transform="translate(126,292)" />
        <path
            d="M0 0 C6.27 0 12.54 0 19 0 C19 3.3 19 6.6 19 10 C22.3 10 25.6 10 29 10 C29 16.27 29 22.54 29 29 C25.7 29 22.4 29 19 29 C19 26.03 19 23.06 19 20 C15.7 20 12.4 20 9 20 C9 16.7 9 13.4 9 10 C6.03 10 3.06 10 0 10 C0 6.7 0 3.4 0 0 Z "
            fill="#000000" transform="translate(195,292)" />
        <path d="M0 0 C3.3 0 6.6 0 10 0 C10 3.3 10 6.6 10 10 C6.7 10 3.4 10 0 10 C0 6.7 0 3.4 0 0 Z " fill="#000000"
            transform="translate(97,302)" />
        <path
            d="M0 0 C6.6 0 13.2 0 20 0 C20 6.27 20 12.54 20 19 C16.7 19 13.4 19 10 19 C10 25.6 10 32.2 10 39 C13.3 39 16.6 39 20 39 C20 45.27 20 51.54 20 58 C16.7 58 13.4 58 10 58 C10 55.03 10 52.06 10 49 C6.7 49 3.4 49 0 49 C0 39.1 0 29.2 0 19 C-2.97 19 -5.94 19 -9 19 C-9 16.03 -9 13.06 -9 10 C-6.03 10 -3.06 10 0 10 C0 6.7 0 3.4 0 0 Z "
            fill="#000000" transform="translate(360,302)" />
        <path
            d="M0 0 C22.44 0 44.88 0 68 0 C68 22.44 68 44.88 68 68 C45.56 68 23.12 68 0 68 C0 45.56 0 23.12 0 0 Z M10 9 C10 25.17 10 41.34 10 58 C26.17 58 42.34 58 59 58 C59 41.83 59 25.66 59 9 C42.83 9 26.66 9 10 9 Z "
            fill="#000000" transform="translate(19,312)" />
        <path
            d="M0 0 C6.27 0 12.54 0 19 0 C19 2.97 19 5.94 19 9 C16.03 9 13.06 9 10 9 C10 12.3 10 15.6 10 19 C6.7 19 3.4 19 0 19 C0 22.3 0 25.6 0 29 C-3.3 29 -6.6 29 -10 29 C-10 22.4 -10 15.8 -10 9 C-6.7 9 -3.4 9 0 9 C0 6.03 0 3.06 0 0 Z "
            fill="#000000" transform="translate(107,312)" />
        <path d="M0 0 C2.97 0 5.94 0 9 0 C9 2.97 9 5.94 9 9 C6.03 9 3.06 9 0 9 C0 6.03 0 3.06 0 0 Z " fill="#000000"
            transform="translate(195,312)" />
        <path d="M0 0 C2.97 0 5.94 0 9 0 C9 2.97 9 5.94 9 9 C6.03 9 3.06 9 0 9 C0 6.03 0 3.06 0 0 Z " fill="#000000"
            transform="translate(312,312)" />
        <path d="M0 0 C3.3 0 6.6 0 10 0 C10 3.3 10 6.6 10 10 C6.7 10 3.4 10 0 10 C0 6.7 0 3.4 0 0 Z " fill="#000000"
            transform="translate(136,321)" />
        <path
            d="M0 0 C3.3 0 6.6 0 10 0 C10 3.3 10 6.6 10 10 C13.3 10 16.6 10 20 10 C20 13.3 20 16.6 20 20 C23.3 20 26.6 20 30 20 C30 16.7 30 13.4 30 10 C36.27 10 42.54 10 49 10 C49 16.6 49 23.2 49 30 C45.7 30 42.4 30 39 30 C39 32.97 39 35.94 39 39 C42.3 39 45.6 39 49 39 C49 42.3 49 45.6 49 49 C45.7 49 42.4 49 39 49 C39 52.3 39 55.6 39 59 C23.16 59 7.32 59 -9 59 C-9 55.7 -9 52.4 -9 49 C-12.3 49 -15.6 49 -19 49 C-19 52.3 -19 55.6 -19 59 C-25.6 59 -32.2 59 -39 59 C-39 55.7 -39 52.4 -39 49 C-35.7 49 -32.4 49 -29 49 C-29 45.7 -29 42.4 -29 39 C-25.7 39 -22.4 39 -19 39 C-19 36.03 -19 33.06 -19 30 C-12.73 30 -6.46 30 0 30 C0 20.1 0 10.2 0 0 Z M0 30 C0 32.97 0 35.94 0 39 C3.3 39 6.6 39 10 39 C10 42.3 10 45.6 10 49 C13.3 49 16.6 49 20 49 C20 42.73 20 36.46 20 30 C13.4 30 6.8 30 0 30 Z "
            fill="#000000" transform="translate(204,321)" />
        <path d="M0 0 C9.57 0 19.14 0 29 0 C29 9.57 29 19.14 29 29 C19.43 29 9.86 29 0 29 C0 19.43 0 9.86 0 0 Z "
            fill="#000000" transform="translate(39,331)" />
        <path d="M0 0 C3.3 0 6.6 0 10 0 C10 3.3 10 6.6 10 10 C6.7 10 3.4 10 0 10 C0 6.7 0 3.4 0 0 Z " fill="#000000"
            transform="translate(185,331)" />
        <path d="M0 0 C3.3 0 6.6 0 10 0 C10 3.3 10 6.6 10 10 C6.7 10 3.4 10 0 10 C0 6.7 0 3.4 0 0 Z " fill="#000000"
            transform="translate(175,341)" />
        <path d="M0 0 C3.3 0 6.6 0 10 0 C10 2.97 10 5.94 10 9 C6.7 9 3.4 9 0 9 C0 6.03 0 3.06 0 0 Z " fill="#000000"
            transform="translate(97,351)" />
        <path
            d="M0 0 C6.6 0 13.2 0 20 0 C20 6.6 20 13.2 20 20 C16.7 20 13.4 20 10 20 C10 16.7 10 13.4 10 10 C6.7 10 3.4 10 0 10 C0 6.7 0 3.4 0 0 Z "
            fill="#000000" transform="translate(136,360)" />
        <path d="M0 0 C2.97 0 5.94 0 9 0 C9 3.3 9 6.6 9 10 C6.03 10 3.06 10 0 10 C0 6.7 0 3.4 0 0 Z " fill="#000000"
            transform="translate(312,360)" />
        <path
            d="M0 0 C3.3 0 6.6 0 10 0 C10 3.3 10 6.6 10 10 C13.3 10 16.6 10 20 10 C20 13.3 20 16.6 20 20 C13.4 20 6.8 20 0 20 C0 13.4 0 6.8 0 0 Z "
            fill="#000000" transform="translate(360,360)" />
        <path d="M0 0 C6.6 0 13.2 0 20 0 C20 3.3 20 6.6 20 10 C13.4 10 6.8 10 0 10 C0 6.7 0 3.4 0 0 Z " fill="#000000"
            transform="translate(321,370)" />
    </svg>


    <svg version="1.0" xmlns="http://www.w3.org/2000/svg" x="1800" y="700" width="100.000000px" height="100.000000px"
        viewBox="0 0 121.000000 122.000000" preserveAspectRatio="xMidYMid meet">

        <g transform="translate(0.000000,122.000000) scale(0.100000,-0.100000)" fill="#000000" stroke="none">
            <path d="M0 1105 l0 -115 115 0 115 0 0 115 0 115 -115 0 -115 0 0 -115z m188
-7 l-3 -82 -75 1 -75 1 -3 81 -3 81 81 0 81 0 -3 -82z" />
            <path d="M60 1100 l0 -50 50 0 50 0 0 50 0 50 -50 0 -50 0 0 -50z" />
            <path d="M330 1185 c0 -19 5 -35 10 -35 6 0 10 16 10 35 0 19 -4 35 -10 35 -5
0 -10 -16 -10 -35z" />
            <path d="M390 1200 c0 -11 7 -20 15 -20 8 0 15 -7 15 -15 0 -8 -7 -15 -15 -15
-10 0 -15 -11 -15 -35 0 -24 5 -35 15 -35 8 0 15 9 15 20 0 11 6 20 14 20 8 0
18 -9 21 -20 3 -11 13 -20 21 -20 8 0 14 -7 14 -15 0 -10 11 -15 35 -15 24 0
35 5 35 15 0 8 -9 15 -20 15 -16 0 -20 7 -20 35 0 28 4 35 20 35 11 0 20 7 20
15 0 8 -9 15 -20 15 -13 0 -20 7 -20 20 0 18 -7 20 -65 20 -58 0 -65 -2 -65
-20z m100 -66 c0 -9 -7 -14 -17 -12 -25 5 -28 28 -4 28 12 0 21 -6 21 -16z" />
            <path d="M620 1200 c0 -11 -7 -20 -15 -20 -10 0 -15 -10 -15 -30 0 -20 -5 -30
-15 -30 -8 0 -15 -9 -15 -20 0 -11 7 -20 15 -20 8 0 15 -7 15 -15 0 -10 10
-15 30 -15 20 0 30 5 30 15 0 8 7 15 15 15 8 0 15 7 15 16 0 9 9 18 20 21 11
3 20 12 20 19 0 8 -9 14 -20 14 -11 0 -20 7 -20 15 0 8 -7 15 -15 15 -10 0
-15 -10 -15 -30 0 -20 -5 -30 -15 -30 -10 0 -15 10 -15 30 0 20 5 30 15 30 8
0 15 9 15 20 0 11 -7 20 -15 20 -8 0 -15 -9 -15 -20z" />
            <path d="M680 1200 c0 -18 7 -20 55 -20 54 0 55 0 55 -30 0 -20 5 -30 15 -30
8 0 15 -9 15 -20 0 -16 -7 -20 -35 -20 -24 0 -35 -5 -35 -15 0 -8 -7 -15 -15
-15 -8 0 -15 7 -15 15 0 8 -9 15 -20 15 -11 0 -20 -7 -20 -15 0 -8 -7 -15 -15
-15 -11 0 -15 -12 -15 -50 l0 -50 35 0 c24 0 35 -5 35 -15 0 -8 7 -15 15 -15
8 0 15 -7 15 -15 0 -8 7 -15 16 -15 9 0 18 -9 21 -20 9 -35 33 -24 33 15 0 24
-5 35 -15 35 -8 0 -15 7 -15 15 0 8 7 15 15 15 10 0 15 10 15 33 0 23 -5 34
-15 34 -8 0 -15 -5 -16 -11 -1 -6 -2 -20 -3 -30 -1 -14 -10 -21 -33 -23 -28
-4 -33 -1 -33 16 0 12 7 21 15 21 10 0 15 10 15 30 l0 30 65 0 c51 0 65 3 65
15 0 8 -7 15 -15 15 -8 0 -15 9 -15 20 0 11 -7 20 -15 20 -11 0 -15 12 -15 50
l0 50 -70 0 c-63 0 -70 -2 -70 -20z m40 -180 c0 -23 -4 -30 -20 -30 -16 0 -20
7 -20 30 0 23 4 30 20 30 16 0 20 -7 20 -30z" />
            <path d="M850 1185 c0 -24 5 -35 15 -35 10 0 15 -11 15 -35 0 -33 2 -35 35
-35 28 0 35 4 35 20 0 13 -7 20 -20 20 -16 0 -20 7 -20 30 0 20 -5 30 -15 30
-8 0 -15 9 -15 20 0 11 -7 20 -15 20 -10 0 -15 -11 -15 -35z" />
            <path d="M980 1105 l0 -115 115 0 115 0 0 115 0 115 -115 0 -115 0 0 -115z
m198 -7 l-3 -82 -75 1 c-41 1 -78 2 -82 2 -5 1 -8 37 -8 81 l0 80 85 0 86 0
-3 -82z" />
            <path d="M1050 1100 l0 -50 45 0 45 0 0 50 0 50 -45 0 -45 0 0 -50z" />
            <path d="M260 1165 c0 -8 7 -15 15 -15 8 0 15 7 15 15 0 8 -7 15 -15 15 -8 0
-15 -7 -15 -15z" />
            <path d="M260 1100 c0 -11 7 -20 15 -20 8 0 15 -7 15 -15 0 -8 -7 -15 -15 -15
-10 0 -15 -10 -15 -30 0 -33 13 -38 37 -15 8 8 19 13 24 10 16 -10 10 -25 -10
-25 -10 0 -21 -9 -24 -21 -4 -15 -13 -20 -34 -18 -47 4 -63 0 -63 -16 0 -8 9
-15 20 -15 11 0 20 -7 20 -15 0 -8 -9 -15 -20 -15 -13 0 -20 -7 -20 -20 0 -13
7 -20 20 -20 11 0 20 -7 20 -15 0 -8 -9 -15 -20 -15 -11 0 -20 7 -20 15 0 8
-7 15 -15 15 -11 0 -15 12 -15 50 l0 50 -80 0 c-64 0 -80 -3 -80 -15 0 -8 7
-15 15 -15 8 0 15 -7 15 -15 0 -8 -7 -15 -15 -15 -10 0 -15 -11 -15 -35 0 -24
5 -35 15 -35 11 0 15 -12 15 -50 0 -28 3 -49 8 -49 44 7 52 -1 52 -51 0 -49
-1 -50 -30 -50 -29 0 -30 -1 -30 -50 0 -38 -4 -50 -15 -50 -8 0 -15 -7 -15
-15 0 -8 7 -15 15 -15 8 0 15 -7 15 -15 0 -8 -7 -15 -15 -15 -12 0 -15 -18
-15 -100 0 -82 3 -100 15 -100 12 0 15 14 15 65 0 72 -5 69 88 65 42 -2 42 -1
42 34 l0 36 50 0 c38 0 50 -4 50 -15 0 -8 7 -15 15 -15 10 0 15 10 15 30 0 20
-5 30 -15 30 -8 0 -15 7 -15 15 0 10 11 15 35 15 l35 0 0 -65 0 -65 30 0 c20
0 30 -5 30 -15 0 -8 7 -15 15 -15 8 0 15 -7 15 -15 0 -8 -7 -15 -15 -15 -10 0
-15 -11 -15 -35 0 -24 5 -35 15 -35 8 0 15 7 15 16 0 10 7 14 18 12 9 -2 16
-10 15 -16 -2 -8 10 -12 32 -12 23 0 35 5 35 14 0 7 9 16 20 19 15 4 20 14 20
36 0 29 -3 31 -35 31 -29 0 -35 4 -35 20 0 12 -6 20 -12 19 -7 -1 -30 -1 -50
0 -35 1 -38 3 -38 31 0 20 5 30 15 30 8 0 15 7 15 15 0 10 -11 15 -35 15 l-35
0 0 50 c0 28 -4 50 -10 50 -5 0 -10 -7 -10 -15 0 -8 -9 -15 -20 -15 -11 0 -20
7 -20 15 0 8 -7 15 -15 15 -10 0 -15 11 -15 35 0 24 5 35 15 35 23 0 19 52 -5
73 -11 9 -34 17 -50 17 -23 0 -30 4 -30 20 0 16 7 20 35 20 32 0 35 2 35 30 0
20 5 30 15 30 10 0 15 11 15 35 0 28 4 35 20 35 11 0 20 7 20 15 0 8 5 15 10
15 6 0 10 -7 10 -15 0 -8 9 -15 20 -15 11 0 20 -7 20 -15 0 -8 7 -15 15 -15 8
0 15 -9 15 -20 0 -11 -7 -20 -15 -20 -10 0 -15 -10 -15 -30 0 -20 5 -30 15
-30 8 0 15 7 15 15 0 8 9 15 20 15 11 0 20 7 20 15 0 8 7 15 15 15 22 0 18
-27 -5 -33 -11 -3 -20 -10 -20 -16 0 -6 9 -11 20 -11 13 0 20 -7 20 -20 0 -16
7 -20 35 -20 28 0 35 4 35 20 0 11 7 20 15 20 8 0 15 7 15 15 0 10 10 15 30
15 20 0 30 5 30 15 0 8 -7 15 -15 15 -8 0 -15 9 -15 20 0 11 7 20 15 20 8 0
15 -9 15 -20 0 -11 7 -20 15 -20 8 0 15 -7 15 -15 0 -8 9 -15 20 -15 11 0 20
-7 20 -15 0 -11 -12 -15 -50 -15 -43 0 -50 -3 -50 -20 0 -11 6 -20 14 -20 8 0
17 -8 21 -17 6 -17 7 -17 19 0 10 12 27 17 65 17 44 0 52 -3 50 -17 -3 -33 1
-43 16 -43 8 0 15 -7 15 -15 0 -10 -11 -15 -35 -15 -33 0 -35 2 -35 35 0 33
-2 35 -35 35 -33 0 -35 -2 -35 -35 0 -35 0 -35 -45 -35 -33 0 -45 4 -45 15 0
8 7 15 15 15 10 0 15 10 15 30 0 27 -3 30 -30 30 -16 0 -30 -4 -30 -9 0 -5 -9
-11 -20 -14 -11 -3 -20 -12 -20 -21 0 -9 8 -16 20 -16 11 0 20 -7 20 -15 0 -8
7 -15 15 -15 10 0 15 -11 15 -35 0 -24 5 -35 15 -35 8 0 15 7 15 15 0 10 10
15 30 15 23 0 30 4 30 20 0 13 7 20 20 20 16 0 20 -7 20 -35 0 -28 -4 -35 -20
-35 -11 0 -20 -7 -20 -15 0 -8 -7 -15 -15 -15 -8 0 -15 -9 -15 -20 0 -16 -7
-20 -30 -20 -23 0 -30 4 -30 20 0 16 -7 20 -35 20 l-35 0 0 50 0 50 -65 0 -65
0 0 29 c0 16 6 31 15 35 35 13 11 26 -50 26 -51 0 -65 -3 -65 -15 0 -8 9 -15
20 -15 16 0 20 -7 20 -30 0 -27 3 -30 30 -30 23 0 30 -4 30 -20 0 -11 7 -20
15 -20 8 0 15 -7 15 -15 0 -8 -7 -15 -15 -15 -10 0 -15 -11 -15 -35 0 -24 5
-35 15 -35 9 0 15 9 15 21 0 14 5 19 18 17 9 -2 16 -11 16 -21 -2 -14 7 -17
52 -17 41 0 54 -4 54 -15 0 -10 -11 -15 -35 -15 -24 0 -35 -5 -35 -15 0 -8 -9
-15 -20 -15 -11 0 -20 -7 -20 -15 0 -10 10 -15 34 -15 25 0 35 -5 39 -20 4
-15 14 -20 36 -20 24 0 31 4 31 20 0 11 -7 20 -15 20 -8 0 -15 7 -15 15 0 8 7
15 15 15 8 0 15 7 15 15 0 10 10 15 30 15 20 0 30 -5 30 -15 0 -8 7 -15 15
-15 8 0 15 7 15 15 0 8 9 15 20 15 11 0 20 -7 20 -15 0 -8 -9 -15 -20 -15 -11
0 -20 -7 -20 -15 0 -8 9 -15 20 -15 11 0 20 7 20 15 0 8 7 15 15 15 8 0 15 -7
15 -15 0 -8 9 -15 20 -15 11 0 20 7 20 15 0 8 -9 15 -20 15 -11 0 -20 7 -20
15 0 10 11 15 35 15 24 0 35 5 35 15 0 8 7 15 15 15 11 0 15 -12 15 -45 0 -32
-4 -45 -14 -45 -7 0 -16 -8 -18 -18 -4 -15 -12 -18 -37 -14 -17 2 -31 10 -31
18 0 8 -7 14 -15 14 -8 0 -15 -6 -15 -14 0 -8 7 -16 15 -20 8 -3 15 -12 15
-21 0 -22 97 -22 102 1 3 15 54 20 148 15 17 -1 12 -61 -5 -61 -8 0 -15 7 -15
15 0 11 -12 15 -50 15 -38 0 -50 -4 -50 -15 0 -8 -7 -15 -15 -15 -8 0 -15 -9
-15 -20 0 -11 -7 -20 -15 -20 -8 0 -15 -7 -15 -15 0 -10 -11 -15 -35 -15 -33
0 -35 2 -35 35 0 24 -5 35 -15 35 -10 0 -15 11 -15 35 0 28 -4 35 -20 35 -11
0 -20 7 -20 15 0 8 -7 15 -15 15 -8 0 -15 -6 -15 -14 0 -7 -13 -16 -30 -20
-41 -8 -41 -36 0 -36 20 0 30 -5 30 -15 0 -10 -10 -15 -30 -15 -23 0 -30 -4
-30 -20 0 -11 7 -20 15 -20 8 0 15 -7 15 -15 0 -8 7 -15 15 -15 10 0 15 -10
15 -30 0 -20 -5 -30 -15 -30 -19 0 -19 -26 0 -34 28 -10 17 -36 -15 -36 -23 0
-30 4 -30 20 0 11 -7 20 -15 20 -8 0 -15 -9 -15 -20 0 -13 -7 -20 -20 -20 -16
0 -20 7 -20 35 0 33 2 35 35 35 32 0 35 2 35 30 0 28 -3 30 -35 30 -24 0 -35
-5 -35 -15 0 -8 -7 -15 -15 -15 -8 0 -15 -7 -15 -15 0 -8 -9 -15 -20 -15 -11
0 -20 -7 -20 -15 0 -8 9 -15 20 -15 13 0 20 -7 20 -20 0 -11 7 -20 15 -20 8 0
15 -7 15 -15 0 -8 9 -15 20 -15 13 0 20 -7 20 -20 0 -13 -7 -20 -20 -20 -13 0
-20 7 -20 20 0 11 -7 20 -15 20 -8 0 -15 7 -15 15 0 11 -12 15 -50 15 l-50 0
0 35 c0 24 5 35 15 35 8 0 15 7 15 15 0 10 -11 15 -35 15 -32 0 -35 2 -35 30
0 17 -4 30 -10 30 -5 0 -10 9 -10 20 0 11 5 20 10 20 6 0 10 7 10 15 0 8 -4
15 -10 15 -5 0 -10 -7 -10 -15 0 -8 -9 -15 -20 -15 -13 0 -20 -7 -20 -20 0
-11 -7 -20 -15 -20 -11 0 -15 -12 -15 -45 0 -33 4 -45 15 -45 8 0 15 -7 15
-15 0 -8 -7 -15 -15 -15 -12 0 -15 -16 -15 -85 l0 -85 45 0 45 0 0 65 c0 58 2
65 20 65 11 0 20 -7 20 -15 0 -8 7 -15 15 -15 8 0 15 -9 15 -20 0 -11 -6 -19
-12 -17 -8 1 -14 -11 -16 -30 -2 -25 1 -33 12 -33 9 0 16 7 16 15 0 8 9 15 20
15 11 0 19 5 17 12 -1 6 6 14 16 16 24 5 22 -24 -3 -31 -11 -3 -20 -10 -20
-16 0 -6 9 -11 20 -11 11 0 20 7 20 15 0 10 11 15 35 15 24 0 35 -5 35 -15 0
-8 7 -15 15 -15 8 0 15 7 15 15 0 8 7 15 15 15 8 0 15 7 15 15 0 8 -7 15 -15
15 -8 0 -15 9 -15 20 0 16 7 20 30 20 29 0 30 -1 30 -50 0 -38 4 -50 15 -50 8
0 15 7 15 15 0 8 9 15 20 15 11 0 20 -7 20 -15 0 -8 7 -15 15 -15 8 0 15 7 15
15 0 10 11 15 35 15 24 0 35 -5 35 -15 0 -8 7 -15 15 -15 8 0 15 7 15 15 0 8
7 15 15 15 11 0 15 12 15 50 0 38 -4 50 -15 50 -8 0 -15 9 -15 20 0 11 -7 20
-15 20 -8 0 -15 7 -15 15 0 10 10 15 30 15 20 0 30 5 30 15 0 8 -7 15 -15 15
-8 0 -15 7 -15 15 0 8 7 15 15 15 10 0 15 11 15 35 0 24 5 35 15 35 10 0 15
-11 15 -35 0 -24 -5 -35 -15 -35 -8 0 -15 -7 -15 -15 0 -8 7 -15 15 -15 8 0
15 -7 15 -15 0 -8 -7 -15 -15 -15 -10 0 -15 -11 -15 -35 l0 -35 50 0 c38 0 50
-4 50 -15 0 -8 6 -15 14 -15 7 0 16 -10 19 -21 4 -15 11 -20 21 -16 13 5 16
-1 16 -28 0 -24 5 -35 15 -35 10 0 15 10 15 29 0 16 -6 31 -15 35 -8 3 -15 12
-15 21 0 8 -9 15 -20 15 -11 0 -20 7 -20 15 0 8 9 15 20 15 11 0 20 -7 20 -15
0 -10 11 -15 35 -15 24 0 35 5 35 15 0 8 5 15 10 15 6 0 10 -16 10 -35 0 -28
4 -35 20 -35 11 0 20 -7 20 -15 0 -10 -10 -15 -30 -15 -20 0 -30 -5 -30 -15 0
-11 12 -15 45 -15 l45 0 0 85 c0 69 -3 85 -15 85 -8 0 -15 -9 -15 -20 0 -13
-7 -20 -20 -20 -13 0 -20 7 -20 20 0 11 -4 20 -10 20 -5 0 -10 -9 -10 -20 0
-13 -7 -20 -20 -20 -16 0 -20 7 -20 35 l0 35 65 0 c51 0 65 3 65 15 0 10 -11
15 -35 15 -32 0 -35 2 -35 30 0 17 -4 30 -10 30 -5 0 -10 23 -10 50 0 28 5 50
10 50 6 0 10 -13 10 -30 0 -23 4 -30 20 -30 13 0 20 -7 20 -20 0 -11 7 -20 15
-20 10 0 15 11 15 35 0 24 -5 35 -15 35 -8 0 -15 7 -15 15 0 8 7 15 15 15 11
0 15 12 15 50 0 38 -4 50 -15 50 -8 0 -15 7 -15 15 0 8 7 15 15 15 11 0 15 12
15 50 0 38 -4 50 -15 50 -8 0 -15 9 -15 20 0 11 7 20 15 20 11 0 15 12 15 45
0 33 -4 45 -15 45 -8 0 -15 9 -15 20 0 11 7 20 15 20 8 0 15 7 15 15 0 8 -7
15 -15 15 -8 0 -15 7 -15 15 0 8 7 15 15 15 8 0 15 9 15 20 0 11 -7 20 -15 20
-10 0 -15 10 -15 30 0 23 -4 30 -20 30 -11 0 -20 -7 -20 -15 0 -8 -4 -15 -10
-15 -5 0 -10 7 -10 15 0 8 -9 15 -20 15 -18 0 -20 -7 -20 -65 l0 -65 -33 0
c-23 0 -34 5 -34 15 0 8 9 15 19 15 15 0 18 8 18 48 0 27 -3 51 -6 55 -14 13
-34 -7 -34 -34 0 -19 -5 -29 -15 -29 -8 0 -15 -9 -15 -20 0 -11 -7 -20 -15
-20 -8 0 -15 9 -15 20 0 16 -7 20 -35 20 -24 0 -35 5 -35 15 0 8 -7 15 -15 15
-8 0 -15 7 -15 15 0 8 7 15 15 15 8 0 15 -7 15 -15 0 -10 11 -15 35 -15 24 0
35 -5 35 -15 0 -8 7 -15 16 -15 11 0 14 8 12 33 -3 27 -6 32 -27 29 -44 -6
-71 6 -71 33 0 16 6 25 15 25 8 0 15 -4 15 -10 0 -5 9 -10 20 -10 16 0 20 7
20 30 0 28 -3 30 -35 30 -23 0 -35 -5 -35 -14 0 -8 -7 -16 -15 -20 -9 -3 -15
-18 -15 -36 0 -20 -5 -30 -15 -30 -8 0 -15 -7 -15 -15 0 -8 7 -15 15 -15 8 0
15 -7 15 -15 0 -8 7 -15 15 -15 8 0 15 -9 15 -20 0 -11 7 -20 15 -20 8 0 15
-7 15 -15 0 -8 -7 -15 -15 -15 -8 0 -15 -7 -15 -15 0 -8 -7 -15 -15 -15 -8 0
-15 7 -15 15 0 8 -7 15 -15 15 -8 0 -15 -7 -15 -15 0 -10 -11 -15 -35 -15 -32
0 -35 2 -35 30 0 20 -5 30 -15 30 -8 0 -15 9 -15 20 0 13 -7 20 -20 20 -11 0
-20 7 -20 15 0 11 -12 15 -45 15 -33 0 -45 -4 -45 -15 0 -10 -11 -15 -35 -15
-24 0 -35 5 -35 15 0 12 -14 15 -65 15 l-65 0 0 35 c0 28 -4 35 -20 35 -11 0
-20 5 -20 10 0 6 9 10 20 10 11 0 20 -4 20 -10 0 -5 7 -10 15 -10 10 0 15 10
15 30 0 28 -3 30 -35 30 -24 0 -35 -5 -35 -15 0 -8 -4 -15 -10 -15 -5 0 -10
14 -10 30 0 17 5 30 10 30 6 0 10 9 10 20 0 17 -7 20 -45 20 -38 0 -45 -3 -45
-20z m-140 -195 c0 -10 -10 -15 -30 -15 -20 0 -30 5 -30 15 0 10 10 15 30 15
20 0 30 -5 30 -15z m1060 -35 c0 -13 -7 -20 -20 -20 -11 0 -20 -7 -20 -15 0
-8 9 -15 20 -15 11 0 20 -7 20 -15 0 -8 -9 -15 -20 -15 -11 0 -20 7 -20 15 0
8 -4 15 -10 15 -5 0 -10 7 -10 15 0 8 5 15 10 15 6 0 10 9 10 20 0 13 7 20 20
20 13 0 20 -7 20 -20z m-1060 -35 c0 -10 11 -15 35 -15 24 0 35 -5 35 -15 0
-8 -7 -15 -15 -15 -8 0 -15 -9 -15 -20 0 -16 -7 -20 -35 -20 -28 0 -35 4 -35
20 0 11 6 20 14 20 24 0 30 21 7 27 -24 6 -29 33 -6 33 8 0 15 -7 15 -15z
m470 0 c0 -8 -7 -15 -15 -15 -8 0 -15 -7 -15 -15 0 -8 -9 -15 -20 -15 -16 0
-20 7 -20 30 0 28 3 30 35 30 24 0 35 -5 35 -15z m390 -30 c0 -8 7 -15 15 -15
8 0 15 -9 15 -20 0 -13 7 -20 20 -20 13 0 20 7 20 20 0 15 7 20 29 20 29 0 41
-14 41 -51 0 -10 3 -18 8 -18 38 6 52 -2 52 -31 0 -23 -4 -30 -20 -30 -11 0
-20 7 -20 15 0 8 -4 15 -9 15 -5 0 -11 9 -14 21 -3 12 -10 18 -16 14 -6 -3
-14 1 -17 9 -8 20 -34 21 -34 1 0 -9 -6 -12 -16 -8 -10 4 -17 -1 -21 -16 -4
-18 -13 -21 -54 -21 -36 0 -49 4 -49 14 0 9 12 16 32 18 55 5 46 28 -11 28
-44 0 -51 3 -51 20 0 16 7 20 35 20 24 0 35 5 35 15 0 8 7 15 15 15 8 0 15 -7
15 -15z m-130 -35 c0 -11 -7 -20 -15 -20 -8 0 -15 9 -15 20 0 11 7 20 15 20 8
0 15 -9 15 -20z m-660 -35 c0 -10 11 -15 35 -15 32 0 35 -2 35 -30 0 -19 -5
-30 -14 -30 -7 0 -16 -9 -19 -20 -4 -15 -14 -20 -36 -20 -21 0 -31 -5 -31 -15
0 -10 11 -15 35 -15 24 0 35 -5 35 -15 0 -10 -11 -15 -35 -15 -28 0 -35 -4
-35 -20 0 -16 7 -20 35 -20 24 0 35 -5 35 -15 0 -10 -11 -15 -35 -15 -24 0
-35 -5 -35 -15 0 -8 -9 -15 -20 -15 -11 0 -20 -7 -20 -15 0 -11 -12 -15 -45
-15 -33 0 -45 4 -45 15 0 8 7 15 15 15 8 0 15 7 15 15 0 8 7 15 15 15 8 0 15
-7 15 -15 0 -8 6 -15 14 -15 8 0 16 7 20 15 4 10 -1 15 -14 15 -16 0 -20 7
-20 35 0 24 -5 35 -15 35 -8 0 -15 7 -15 15 0 8 7 15 15 15 8 0 15 7 15 15 0
10 11 15 35 15 28 0 35 4 35 20 0 16 7 20 35 20 24 0 35 5 35 15 0 10 -11 15
-35 15 -25 0 -35 -4 -35 -16 0 -9 -7 -14 -17 -12 -26 5 -28 59 -2 65 10 3 19
9 19 14 0 5 7 9 15 9 8 0 15 -7 15 -15z m690 -30 l0 -45 65 0 c51 0 65 3 65
15 0 8 9 15 20 15 11 0 20 -7 20 -15 0 -10 11 -15 35 -15 33 0 35 -2 35 -35 0
-32 2 -35 30 -35 20 0 30 -5 30 -15 0 -12 -14 -15 -65 -15 -58 0 -65 -2 -65
-20 0 -16 7 -20 35 -20 24 0 35 -5 35 -15 0 -8 5 -15 10 -15 6 0 10 -7 10 -15
0 -8 9 -15 20 -15 11 0 20 -7 20 -15 0 -10 -10 -15 -29 -15 -20 0 -30 -6 -34
-20 -3 -13 -10 -18 -21 -14 -11 4 -16 19 -16 50 0 32 -4 44 -15 44 -8 0 -15
-7 -15 -15 0 -8 -9 -15 -20 -15 -11 0 -20 -7 -20 -15 0 -8 -7 -15 -15 -15 -10
0 -15 10 -15 30 0 20 -5 30 -15 30 -10 0 -15 -10 -15 -30 0 -28 -3 -30 -35
-30 -24 0 -35 5 -35 15 0 8 7 15 15 15 8 0 15 7 15 15 0 8 -7 15 -15 15 -8 0
-15 7 -15 15 0 12 14 15 65 15 51 0 65 -3 65 -15 0 -8 9 -15 20 -15 11 0 20 6
20 14 0 7 -9 16 -20 19 -11 3 -20 10 -20 17 0 7 9 14 20 17 14 4 20 14 20 34
0 26 -3 29 -35 29 -24 0 -35 -5 -35 -15 0 -8 7 -15 15 -15 8 0 15 -7 15 -15 0
-8 -7 -15 -15 -15 -8 0 -15 7 -15 15 0 8 -7 15 -15 15 -8 0 -15 -7 -15 -15 0
-8 -9 -15 -20 -15 -16 0 -20 7 -20 30 0 20 -5 30 -15 30 -8 0 -15 9 -15 20 0
11 -7 20 -15 20 -8 0 -15 7 -15 15 0 8 -7 15 -15 15 -8 0 -15 9 -15 20 0 11 7
20 15 20 8 0 15 5 15 10 0 6 7 10 15 10 11 0 15 -12 15 -45z m-290 0 c0 -8 -7
-15 -15 -15 -8 0 -15 7 -15 15 0 8 7 15 15 15 8 0 15 -7 15 -15z m230 -100 c0
-8 7 -15 15 -15 8 0 15 -7 15 -15 0 -8 -7 -15 -15 -15 -8 0 -15 -9 -15 -20 0
-16 -7 -20 -35 -20 -24 0 -35 -5 -35 -15 0 -8 -7 -15 -15 -15 -8 0 -15 7 -15
15 0 8 -9 15 -20 15 -13 0 -20 7 -20 20 0 13 7 20 20 20 13 0 20 -7 20 -20 0
-11 7 -20 15 -20 8 0 15 9 15 20 0 16 7 20 35 20 24 0 35 5 35 15 0 10 -11 15
-35 15 -24 0 -35 5 -35 15 0 10 11 15 35 15 24 0 35 -5 35 -15z m-330 -30 c0
-8 -9 -15 -20 -15 -11 0 -20 7 -20 15 0 8 9 15 20 15 11 0 20 -7 20 -15z m560
-160 c0 -8 -9 -15 -20 -15 -20 0 -26 11 -13 23 12 13 33 7 33 -8z m30 -40 c0
-8 -7 -15 -15 -15 -8 0 -15 7 -15 15 0 8 7 15 15 15 8 0 15 -7 15 -15z m-560
-65 c0 -16 -7 -20 -30 -20 -23 0 -30 4 -30 20 0 16 7 20 30 20 23 0 30 -4 30
-20z m-190 -35 c0 -8 -9 -15 -20 -15 -11 0 -20 7 -20 15 0 8 9 15 20 15 11 0
20 -7 20 -15z m390 0 c0 -8 7 -15 15 -15 8 0 15 -7 15 -15 0 -8 6 -15 14 -15
15 0 29 -27 21 -40 -3 -5 4 -14 15 -20 33 -18 25 -40 -15 -40 l-35 0 0 50 0
50 -35 0 c-32 0 -35 2 -35 30 0 23 4 30 20 30 11 0 20 -7 20 -15z m330 -60 l0
-45 -50 0 -50 0 0 45 0 45 50 0 50 0 0 -45z m70 30 c0 -8 -9 -15 -20 -15 -11
0 -20 7 -20 15 0 8 9 15 20 15 11 0 20 -7 20 -15z m-770 -60 c0 -8 -4 -15 -10
-15 -5 0 -10 7 -10 15 0 8 5 15 10 15 6 0 10 -7 10 -15z m330 0 c0 -8 -7 -15
-15 -15 -8 0 -15 7 -15 15 0 8 7 15 15 15 8 0 15 -7 15 -15z m40 -35 c0 -11 7
-20 15 -20 8 0 15 -7 15 -15 0 -8 6 -15 14 -15 21 0 31 -21 15 -31 -22 -14
-29 -11 -29 11 0 27 -26 26 -33 -1 -3 -12 -12 -19 -19 -17 -14 5 -23 70 -14
94 8 21 36 17 36 -6z m-130 -35 c0 -8 -7 -15 -15 -15 -8 0 -15 7 -15 15 0 8 7
15 15 15 8 0 15 -7 15 -15z m-262 -32 c-2 -10 -10 -18 -18 -18 -8 0 -16 8 -18
18 -2 12 3 17 18 17 15 0 20 -5 18 -17z m522 -18 c0 -24 -5 -35 -15 -35 -10 0
-15 11 -15 35 0 24 5 35 15 35 10 0 15 -11 15 -35z m-260 -20 c0 -8 -7 -15
-15 -15 -8 0 -15 7 -15 15 0 8 7 15 15 15 8 0 15 -7 15 -15z" />
            <path d="M120 575 c0 -8 9 -15 20 -15 11 0 20 7 20 15 0 8 -9 15 -20 15 -11 0
-20 -7 -20 -15z" />
            <path d="M980 215 c0 -8 7 -15 15 -15 8 0 15 7 15 15 0 8 -7 15 -15 15 -8 0
-15 -7 -15 -15z" />
            <path d="M560 1036 c0 -8 -9 -18 -20 -21 -16 -5 -20 -15 -20 -51 0 -44 0 -44
35 -44 23 0 35 5 35 14 0 8 7 17 16 20 18 7 16 57 -3 64 -9 2 -13 -8 -13 -32
0 -25 -4 -36 -15 -36 -10 0 -15 10 -15 29 0 16 6 31 15 35 8 3 15 12 15 21 0
8 -7 15 -15 15 -8 0 -15 -6 -15 -14z" />
            <path d="M452 983 c2 -17 10 -29 21 -31 13 -3 17 3 17 27 0 25 -4 31 -21 31
-16 0 -20 -5 -17 -27z" />
            <path d="M330 885 c0 -28 -4 -35 -20 -35 -16 0 -20 -7 -20 -30 0 -27 3 -30 30
-30 l30 0 0 65 c0 37 -4 65 -10 65 -5 0 -10 -16 -10 -35z" />
            <path d="M457 724 c-14 -15 -6 -34 14 -34 14 0 19 5 17 17 -3 18 -20 27 -31
17z" />
            <path d="M30 675 c0 -8 7 -15 15 -15 8 0 15 7 15 15 0 8 -7 15 -15 15 -8 0
-15 -7 -15 -15z" />
            <path d="M590 445 c0 -10 10 -15 30 -15 20 0 30 5 30 15 0 10 -10 15 -30 15
-20 0 -30 -5 -30 -15z" />
            <path d="M190 410 c0 -11 3 -19 8 -19 20 3 32 -2 32 -16 0 -10 -11 -15 -35
-15 -24 0 -35 -5 -35 -15 0 -8 -9 -15 -20 -15 -11 0 -20 7 -20 15 0 10 -10 15
-30 15 -20 0 -30 -5 -30 -15 0 -10 10 -15 29 -15 20 0 30 -6 34 -20 4 -15 14
-20 36 -20 21 0 31 -5 31 -15 0 -8 9 -15 20 -15 11 0 20 7 20 15 0 8 -9 15
-20 15 -13 0 -20 7 -20 20 0 16 7 20 35 20 24 0 35 5 35 15 0 8 7 15 15 15 8
0 15 9 15 20 0 11 -7 20 -15 20 -8 0 -15 7 -15 15 0 10 -11 15 -35 15 -28 0
-35 -4 -35 -20z" />
            <path d="M784 313 c4 -26 36 -29 36 -4 0 14 -6 21 -19 21 -13 0 -18 -6 -17
-17z" />
            <path d="M60 275 c0 -8 7 -15 15 -15 8 0 15 7 15 15 0 8 -7 15 -15 15 -8 0
-15 -7 -15 -15z" />
            <path d="M0 115 l0 -115 115 0 116 0 -3 113 -3 112 -112 3 -113 3 0 -116z
m190 0 l0 -85 -80 0 -80 0 0 85 0 85 80 0 80 0 0 -85z" />
            <path d="M64 156 c-3 -8 -4 -31 -2 -52 3 -39 3 -39 51 -42 l47 -3 0 55 0 56
-45 0 c-30 0 -47 -5 -51 -14z" />
            <path d="M910 45 c0 -8 9 -15 20 -15 11 0 20 -7 20 -15 0 -8 7 -15 15 -15 10
0 15 10 15 30 0 28 -3 30 -35 30 -24 0 -35 -5 -35 -15z" />
        </g>
    </svg>

</svg>