<?xml version="1.0" encoding="utf-8"?>
<svg xmlns="http://www.w3.org/2000/svg" viewBox="0 0 2000 1000">
    <style></style>
    <style>
        text{
        font-family: font,sans-serif;
        fill:#111;
        font-size:30px;
        }
        #标题{
        font-size:120px;
        font-family: font1,sans-serif;
        }
        #分数,#进度{font-size:55px;}
        .fs24{font-size:24px;}
        .xq{font-size:40px;}
        .xx{font-size:20px;}
        .xa{font-size:25px;}
        .abc{
        font-size:120px;
        font-family: font1,sans-serif;
        }
        .red{fill:red}
        #地点 path,
        .边框{
        fill-rule:evenodd;
        clip-rule:evenodd;
        stroke:#000;
        stroke-width:4;
        stroke-linecap:round;
        stroke-linejoin:round;
        }
        #地点 path{
        fill:#FFF;
        cursor: pointer;
        pointer-events: auto;
        }
        .边框{fill:none;}
        
        #地点 path[level="4"]{fill:#FF7E7E;}
        #地点 path[level="3"]{fill:#FFB57E;}
        #地点 path[level="2"]{fill:#FFE57E;}
        #地点 path[level="1"]{fill:#A8FFBE;}
    </style>
    <text x="1100" y="100" id="标题">制霸华师</text>
    <g id="地点">
        <path id="国交" d="M285 13 v88 h100 v-88 z"/>
        <path id="八号楼" d="M391 108 v86 h250 v-86 z"/>
        <path id="YY楼" d="M371 53 v108 h87 v-108 z"/>
        <path id="三号楼" d="M440 180 v51 h35 v50 h80 v-50 h35 v-51 z"/>
        <path id="恽代英广场" d="M660 264 v107 h173 v-107 z"/>
        <path id="西区球场" d="M388 330 v136 h286 v-136 z"/>
        <path id="桂香园" d="M325 275 v115 h103 v-115 z"/>
        <path id="乒羽中心" d="M530 312 v60 h135 v-60 z"/>
        <path id="一号楼" d="M360 240 v43 h115 v-43 h-40 v-21 h-35 v21 z"/>
        <path id="二号楼" d="M554 240 v43 h115 v-43 h-40 v-21 h-35 v21 z"/>
        <path id="南门小吃街" d="M260 455 v184 h64 v-184 z"/>
        <path id="佑铭田径场" d="M542 436 v201 h132 v-201 z"/>
        <path id="佑铭体育馆" d="M316 495 v78 h92 v40 h146 v-158 h-146 v40 z"/>
        <path id="社会学院" d="M326 607 v138 h55 v-138 z"/>
        <path id="管理教育综合楼" d="M326 745 v64 h130 v-64 z"/>
        <path id="新大学生活动中心" d="M656 514 v113 h172 v-113 z"/>
        <path id="露天电影场" d="M655 452 v71 h105 v-71 z"/>
        <path id="音乐学院" d="M751 452 v71 h95 v-71 z"/>
        <path id="东一食堂" d="M785 600 v71 h95 v-71 z"/>
        <path id="东区小树林" d="M867 615 v110 h87 v-110 z"/>
        <path id="高职田径场" d="M945 714 v113 h232 v-113 z"/>
        <path id="东区球场" d="M965 627 v47 h130 v-174 h-58 v75 h-41 v52 z"/>
        <path id="东区网球馆" d="M1044 585 v130 h172 v-130 z"/>
        <path id="学子餐厅" d="M965 672 v58 h120 v-58 z"/>
        <path id="东二食堂" d="M955 815 v58 h130 v-58 z"/>
        <path id="沁园春食堂" d="M1134 537 v76 h98 v-76 z"/>
        <path id="文华公书林" d="M674 230 v47 h163 v-47 z"/>
        <path id="田家炳楼" d="M693 181 v45 h122 v-45 z"/>
        <path id="图书馆" d="M693 95 h170 v110 h-45 v-45 h-125 z"/>
        <path id="附幼附小" d="M693 0 v104 h120 v-104 z"/>
        <path id="九号楼" d="M946 145 v65 h173 v-65 z"/>
        <path id="校医院" d="M855 68 v52 h72 v35 h112 v-35 h-60 v-52 z"/>
        <path id="四号楼" d="M805 279 v33 h122 v-33 z"/>
        <path id="七号楼" d="M805 362 v38 h122 v-87 h-42 v49 z"/>
        <path id="六号楼" d="M923 286 v47 h215 v-47 z"/>
        <path id="五号楼" d="M928 332 v63 h200 v-63 z"/>
        <path id="老大活" d="M1052 398 v60 h100 v-60 z"/>
        <path id="博雅广场" d="M947 212 v72 h173 v-72 z"/>
        <path id="科学会堂" d="M1120 209 v43 h119 v-83 h-36 v40 z"/>
        <path id="化学学院" d="M1237 178 v99 h66 v-50 h136 v-50 h-202 z"/>
        <path id="桂苑宾馆" d="M1439 178 v160 h100 v-160 z"/>
        <path id="十号楼" d="M1167 280 v111 h105 v-38 h-72 v-41 h69 v-32 z"/>
        <path id="南湖食堂" d="M1260 600 v80 h160 v-80 z"/>
        <path id="民族餐厅" d="M1260 570 v40 h100 v-40 z"/>
        <path id="露天球场" d="M1440 730 v120 h160 v-120 z"/>
        <path id="南湖田径场" d="M1260 780 v180 h150 v-180 z"/>
        <path id="南湖体育馆" d="M1290 700 v100 h70 v-100 z"/>
        <path id="南湖综合楼" d="M1390 500 v80 h200 v-80 z"/>
        <path id="图书馆" d="m1470 570 v100 h60 v-100 z"/>
    </g>
    <g id="地名">
        <text x="300" y="70">国交</text>
        <text x="380" y="123">YY楼</text>
        <text x="475" y="160">八号楼</text>
        <text x="500" y="210">三</text>
        <text x="500" y="240">号</text>
        <text x="500" y="270">楼</text>
        <text x="380" y="270">一号楼</text>
        <text x="570" y="270">二号楼</text>
        <text x="335" y="350">桂香园</text>
        <text x="475" y="415">西区球场</text>
        <text x="540" y="350">乒羽中心</text>
        <text x="400" y="540">佑铭体育馆</text>
        <text x="275" y="500">南</text>
        <text x="275" y="530">门</text>
        <text x="275" y="560">小</text>
        <text x="275" y="590">吃</text>
        <text x="275" y="620">街</text>
        <text x="335" y="643">社</text>
        <text x="335" y="673">会</text>
        <text x="335" y="703">学</text>
        <text x="335" y="733">院</text>
        <text class="xa" x="345" y="770">管理教育</text>
        <text class="xa" x="355" y="800">综合楼</text>
        <text x="575" y="520">佑铭</text>
        <text x="560" y="550">田径场</text>
        <text x="675" y="570">新大学生</text>
        <text x="675" y="600">活动中心</text>
        <text x="675" y="480">露天</text>
        <text x="660" y="510">电影场</text>
        <text x="765" y="480">音乐</text>
        <text x="765" y="510">学院</text>
        <text x="800" y="630">东一</text>
        <text x="800" y="660">食堂</text>
        <text x="880" y="660">东区</text>
        <text x="865" y="690">小树林</text>
        <text x="965" y="710">学子餐厅</text>
        <text x="985" y="780">高职田径场</text>
        <text x="960" y="860">东二食堂</text>
        <text x="1060" y="660">东区网球馆</text>
        <text x="1050" y="540">东</text>
        <text x="1050" y="570">区</text>
        <text x="1010" y="610">球</text>
        <text x="1010" y="640">场</text>
        <text x="1140" y="570">沁园春</text>
        <text x="1155" y="600">餐厅</text>
        <text x="680" y="265">文华公书林</text>
        <text x="675" y="340">恽代英广场</text>
        <text x="695" y="215">田家炳楼</text>
        <text x="720" y="50">附幼</text>
        <text x="705" y="80">＆附小</text>
        <text x="740" y="140">图书馆</text>
        <text x="870" y="105">校医院</text>
        <text x="980" y="190">九号楼</text>
        <text x="965" y="260">博雅广场</text>
        <text x="980" y="320">六号楼</text>
        <text x="980" y="375">五号楼</text>
        <text x="820" y="392">七号楼</text>
        <text x="820" y="308">四号楼</text>
        <text x="1250" y="215">化学学院</text>
        <text x="1120" y="240">科学会堂</text>
        <text x="1175" y="385">十号楼</text>
        <text x="1460" y="250">桂苑</text>
        <text x="1460" y="290">宾馆</text>
        <text x="1055" y="440">老大活</text>
        <text class="xq" x="1340" y="450">南湖校区</text>
        <path d="M1240 400 v590 h365 v-590 Z" fill="transparent" stroke-dasharray="5 4" stroke="black"/>
        <text x="1420" y="550">南湖综合楼</text>
        <text x="1485" y="600">图</text>
        <text x="1485" y="630">书</text>
        <text x="1485" y="660">馆</text>
        <text x="1280" y="650">南湖食堂</text>
        <text class="xx" x="1270" y="600">民族餐厅</text>
        <text x="1460" y="800">露天球场</text>
        <text x="1300" y="870">南湖</text>
        <text x="1285" y="900">田径场</text>
        <text x="1310" y="730">体</text>
        <text x="1310" y="760">育</text>
        <text x="1310" y="790">馆</text>
    </g>
    
    
    
    <text id="进度" x="1610" y="503">探索进度：</text>
    <text id="分数" x="1730" y="583">得分：</text>
    <text class="abc red" x="0" y="100">评</text>
    <text class="abc red" x="0" y="250">级</text>
    <text class="abc" id="称号1" x="120" y="300">华</text>
    <text class="abc" id="称号2" x="120" y="450">师</text>
    <text class="abc" id="称号3" x="120" y="600">万</text>
    <text class="abc" id="称号4" x="120" y="750">事</text>
    <text class="abc" id="称号5" x="120" y="900">通</text>
    <g id="等级">
        <path fill="#FF7E7E" d="M1770 100h150v50H1770Z"/>
        <path fill="#FFB57E" d="M1770 150h150v50H1770Z"/>
        <path fill="#FFE57E" d="M1770 200h150v50H1770Z"/>
        <path fill="#A8FFBE" d="M1770 250h150v50H1770Z"/>
        <path fill="#FFF" d="M1770 300h150v50H1770Z"/>
        <path class="边框" d="M1770 98h150v254H1770Z"/>
        <text x="1777" y="135">每日必去4</text>
        <text x="1777" y="185">经常出没3</text>
        <text x="1777" y="235">偶尔会去2</text>
        <text x="1777" y="285">只是路过1</text>
        <text x="1775" y="335">从未踏足</text>
        <text style="display:none">桂子山庄主登山强者小有探索初入华师足不出户</text>
    </g>
    <text x="1650" y="680">游玩链接</text>
    <text x="1790" y="680">团队空间</text>
    <text style="font-size:40px" x="1920" y="640">木</text>
    <text style="font-size:40px" x="1920" y="685">犀</text>
    <text style="font-size:40px" x="1920" y="730">团</text>
    <text style="font-size:40px" x="1920" y="775">队</text>
    <text style="font-size:40px" x="1920" y="820">开</text>
    <text style="font-size:40px" x="1920" y="865">发</text>

    <svg version="1.0" xmlns="http://www.w3.org/2000/svg" x="1650" y="695"
         width="115.000000px" height="115.000000px" viewBox="0 0 400.000000 400.000000"
         preserveAspectRatio="xMidYMid meet">

        <g transform="translate(0.000000,400.000000) scale(0.100000,-0.100000)"
           fill="#000000" stroke="none">
            <path d="M210 3410 l0 -380 380 0 380 0 0 380 0 380 -380 0 -380 0 0 -380z
m650 0 l0 -270 -270 0 -270 0 0 270 0 270 270 0 270 0 0 -270z"/>
            <path d="M430 3410 l0 -160 160 0 160 0 0 160 0 160 -160 0 -160 0 0 -160z"/>
            <path d="M1080 3735 l0 -55 105 0 105 0 0 -55 0 -55 -55 0 -55 0 0 -55 0 -55
-50 0 -50 0 0 -50 0 -50 50 0 50 0 0 -110 0 -110 -50 0 -50 0 0 -55 0 -55 50
0 50 0 0 -55 0 -55 -50 0 -50 0 0 -160 0 -160 50 0 50 0 0 160 0 160 165 0
165 0 0 -50 0 -50 -110 0 -110 0 0 -55 0 -55 110 0 110 0 0 -55 0 -55 55 0 55
0 0 -55 0 -55 105 0 105 0 0 55 0 55 -55 0 -55 0 0 215 0 215 55 0 55 0 0 -55
0 -55 165 0 165 0 0 55 0 55 55 0 55 0 0 55 0 55 50 0 50 0 0 -55 0 -55 55 0
55 0 0 -105 0 -105 165 0 165 0 0 -55 0 -55 50 0 50 0 0 -110 0 -110 -50 0
-50 0 0 -160 0 -160 -110 0 -110 0 0 55 0 55 -110 0 -110 0 0 50 0 50 -50 0
-50 0 0 110 0 110 105 0 105 0 0 -55 0 -55 55 0 55 0 0 -55 0 -55 55 0 55 0 0
110 0 110 -55 0 -55 0 0 55 0 55 -110 0 -110 0 0 55 0 55 -160 0 -160 0 0 -55
0 -55 -55 0 -55 0 0 -110 0 -110 55 0 55 0 0 -55 0 -55 -55 0 -55 0 0 -50 0
-50 -55 0 -55 0 0 -55 0 -55 -55 0 -55 0 0 105 0 105 -50 0 -50 0 0 -215 0
-215 -55 0 -55 0 0 55 0 55 -55 0 -55 0 0 110 0 110 55 0 55 0 0 105 0 105
-55 0 -55 0 0 55 0 55 -55 0 -55 0 0 -55 0 -55 -105 0 -105 0 0 -55 0 -55 -55
0 -55 0 0 55 0 55 -55 0 -55 0 0 -55 0 -55 55 0 55 0 0 -50 0 -50 -55 0 -55 0
0 -55 0 -55 55 0 55 0 0 55 0 55 160 0 160 0 0 -55 0 -55 -105 0 -105 0 0 -55
0 -55 50 0 50 0 0 -55 0 -55 -105 0 -105 0 0 55 0 55 -55 0 -55 0 0 -55 0 -55
-55 0 -55 0 0 55 0 55 -55 0 -55 0 0 55 0 55 55 0 55 0 0 215 0 215 110 0 110
0 0 55 0 55 -55 0 -55 0 0 55 0 55 55 0 55 0 0 50 0 50 -165 0 -165 0 0 -50 0
-50 -50 0 -50 0 0 50 0 50 -55 0 -55 0 0 -50 0 -50 55 0 55 0 0 -55 0 -55 50
0 50 0 0 -110 0 -110 -50 0 -50 0 0 -55 0 -55 -55 0 -55 0 0 165 0 165 -55 0
-55 0 0 55 0 55 -55 0 -55 0 0 -55 0 -55 55 0 55 0 0 -165 0 -165 55 0 55 0 0
-50 0 -50 105 0 105 0 0 -55 0 -55 -50 0 -50 0 0 -110 0 -110 50 0 50 0 0 -55
0 -55 -105 0 -105 0 0 -55 0 -55 -55 0 -55 0 0 110 0 110 55 0 55 0 0 110 0
110 -55 0 -55 0 0 -110 0 -110 -55 0 -55 0 0 -110 0 -110 55 0 55 0 0 -50 0
-50 -55 0 -55 0 0 -55 0 -55 110 0 110 0 0 -110 0 -110 -55 0 -55 0 0 55 0 55
-55 0 -55 0 0 -55 0 -55 55 0 55 0 0 -55 0 -55 -55 0 -55 0 0 -50 0 -50 55 0
55 0 0 50 0 50 55 0 55 0 0 -50 0 -50 55 0 55 0 0 50 0 50 50 0 50 0 0 -50 0
-50 55 0 55 0 0 50 0 50 55 0 55 0 0 -50 0 -50 55 0 55 0 0 50 0 50 105 0 105
0 0 -50 0 -50 -50 0 -50 0 0 -55 0 -55 50 0 50 0 0 55 0 55 55 0 55 0 0 50 0
50 55 0 55 0 0 -50 0 -50 55 0 55 0 0 -55 0 -55 55 0 55 0 0 -55 0 -55 -55 0
-55 0 0 -110 0 -110 -55 0 -55 0 0 110 0 110 -160 0 -160 0 0 -110 0 -110 50
0 50 0 0 -50 0 -50 -50 0 -50 0 0 -55 0 -55 50 0 50 0 0 -55 0 -55 55 0 55 0
0 -55 0 -55 55 0 55 0 0 110 0 110 -110 0 -110 0 0 55 0 55 165 0 165 0 0 50
0 50 55 0 55 0 0 -50 0 -50 50 0 50 0 0 215 0 215 -50 0 -50 0 0 55 0 55 50 0
50 0 0 50 0 50 55 0 55 0 0 -160 0 -160 55 0 55 0 0 270 0 270 -55 0 -55 0 0
-55 0 -55 -55 0 -55 0 0 -55 0 -55 -50 0 -50 0 0 55 0 55 -55 0 -55 0 0 55 0
55 105 0 105 0 0 55 0 55 55 0 55 0 0 105 0 105 -55 0 -55 0 0 55 0 55 55 0
55 0 0 55 0 55 -55 0 -55 0 0 55 0 55 165 0 165 0 0 110 0 110 55 0 55 0 0
-55 0 -55 55 0 55 0 0 -55 0 -55 -55 0 -55 0 0 -55 0 -55 55 0 55 0 0 55 0 55
50 0 50 0 0 -55 0 -55 55 0 55 0 0 -110 0 -110 -55 0 -55 0 0 -50 0 -50 -105
0 -105 0 0 -55 0 -55 215 0 215 0 0 55 0 55 55 0 55 0 0 105 0 105 -55 0 -55
0 0 55 0 55 110 0 110 0 0 55 0 55 105 0 105 0 0 -55 0 -55 -55 0 -55 0 0
-110 0 -110 55 0 55 0 0 55 0 55 55 0 55 0 0 110 0 110 -55 0 -55 0 0 55 0 55
215 0 215 0 0 105 0 105 -50 0 -50 0 0 -50 0 -50 -55 0 -55 0 0 50 0 50 -55 0
-55 0 0 110 0 110 -55 0 -55 0 0 55 0 55 55 0 55 0 0 55 0 55 -55 0 -55 0 0
50 0 50 -105 0 -105 0 0 55 0 55 50 0 50 0 0 55 0 55 -50 0 -50 0 0 55 0 55
50 0 50 0 0 55 0 55 -105 0 -105 0 0 50 0 50 105 0 105 0 0 55 0 55 -50 0 -50
0 0 55 0 55 50 0 50 0 0 55 0 55 -160 0 -160 0 0 -55 0 -55 -55 0 -55 0 0 55
0 55 -325 0 -325 0 0 -55 0 -55 -55 0 -55 0 0 55 0 55 -105 0 -105 0 0 -165 0
-165 -55 0 -55 0 0 110 0 110 -55 0 -55 0 0 55 0 55 -105 0 -105 0 0 -55z
m1400 -110 l0 -55 55 0 55 0 0 -105 0 -105 55 0 55 0 0 -55 0 -55 -55 0 -55 0
0 -110 0 -110 55 0 55 0 0 55 0 55 55 0 55 0 0 -55 0 -55 -55 0 -55 0 0 -55 0
-55 -55 0 -55 0 0 55 0 55 -55 0 -55 0 0 55 0 55 -55 0 -55 0 0 55 0 55 -50 0
-50 0 0 -55 0 -55 -55 0 -55 0 0 -55 0 -55 -55 0 -55 0 0 55 0 55 -55 0 -55 0
0 -55 0 -55 -55 0 -55 0 0 55 0 55 -55 0 -55 0 0 -55 0 -55 -50 0 -50 0 0 165
0 165 -55 0 -55 0 0 -55 0 -55 -110 0 -110 0 0 55 0 55 110 0 110 0 0 50 0 50
105 0 105 0 0 55 0 55 55 0 55 0 0 -55 0 -55 220 0 220 0 0 55 0 55 -110 0
-110 0 0 55 0 55 215 0 215 0 0 -55z m-1190 -540 l0 -55 -55 0 -55 0 0 55 0
55 55 0 55 0 0 -55z m220 0 l0 -55 -55 0 -55 0 0 55 0 55 55 0 55 0 0 -55z
m1510 -320 l0 -55 -55 0 -55 0 0 55 0 55 55 0 55 0 0 -55z m-750 -110 l0 -55
-55 0 -55 0 0 55 0 55 55 0 55 0 0 -55z m-870 -270 l0 -105 -55 0 -55 0 0 105
0 105 55 0 55 0 0 -105z m970 -160 l0 -55 55 0 55 0 0 -55 0 -55 -55 0 -55 0
0 55 0 55 -50 0 -50 0 0 55 0 55 50 0 50 0 0 -55z m-970 -275 l0 -110 55 0 55
0 0 -55 0 -55 105 0 105 0 0 -105 0 -105 -50 0 -50 0 0 55 0 55 -55 0 -55 0 0
50 0 50 -55 0 -55 0 0 -50 0 -50 -55 0 -55 0 0 -55 0 -55 110 0 110 0 0 -55 0
-55 -165 0 -165 0 0 110 0 110 -50 0 -50 0 0 -110 0 -110 -110 0 -110 0 0 55
0 55 55 0 55 0 0 55 0 55 -55 0 -55 0 0 50 0 50 55 0 55 0 0 55 0 55 -55 0
-55 0 0 55 0 55 55 0 55 0 0 -55 0 -55 55 0 55 0 0 -55 0 -55 50 0 50 0 0 55
0 55 55 0 55 0 0 110 0 110 55 0 55 0 0 -110z m320 -55 l0 -55 -50 0 -50 0 0
55 0 55 50 0 50 0 0 -55z m-1180 -270 l0 -105 105 0 105 0 0 -55 0 -55 -55 0
-55 0 0 -55 0 -55 -50 0 -50 0 0 -55 0 -55 -55 0 -55 0 0 55 0 55 55 0 55 0 0
110 0 110 -55 0 -55 0 0 105 0 105 55 0 55 0 0 -105z m430 -380 l0 -55 -55 0
-55 0 0 55 0 55 55 0 55 0 0 -55z m320 0 l0 -55 -55 0 -55 0 0 55 0 55 55 0
55 0 0 -55z m0 -540 l0 -55 -55 0 -55 0 0 55 0 55 55 0 55 0 0 -55z"/>
            <path d="M1720 3410 l0 -50 55 0 55 0 0 50 0 50 -55 0 -55 0 0 -50z"/>
            <path d="M1940 3305 l0 -55 -55 0 -55 0 0 -55 0 -55 55 0 55 0 0 55 0 55 55 0
55 0 0 -55 0 -55 55 0 55 0 0 55 0 55 55 0 55 0 0 55 0 55 -55 0 -55 0 0 -55
0 -55 -55 0 -55 0 0 55 0 55 -55 0 -55 0 0 -55z"/>
            <path d="M2480 3305 l0 -55 55 0 55 0 0 55 0 55 -55 0 -55 0 0 -55z"/>
            <path d="M1290 1785 l0 -55 55 0 55 0 0 55 0 55 -55 0 -55 0 0 -55z"/>
            <path d="M3020 3410 l0 -380 380 0 380 0 0 380 0 380 -380 0 -380 0 0 -380z
m650 0 l0 -270 -270 0 -270 0 0 270 0 270 270 0 270 0 0 -270z"/>
            <path d="M3240 3410 l0 -160 160 0 160 0 0 160 0 160 -160 0 -160 0 0 -160z"/>
            <path d="M3350 2815 l0 -105 -55 0 -55 0 0 -55 0 -55 105 0 105 0 0 160 0 160
-50 0 -50 0 0 -105z"/>
            <path d="M3670 2815 l0 -105 -55 0 -55 0 0 -55 0 -55 55 0 55 0 0 -55 0 -55
-55 0 -55 0 0 -160 0 -160 110 0 110 0 0 375 0 375 -55 0 -55 0 0 -105z"/>
            <path d="M3670 2005 l0 -55 -160 0 -160 0 0 -55 0 -55 50 0 50 0 0 -55 0 -55
110 0 110 0 0 -105 0 -105 -55 0 -55 0 0 -110 0 -110 110 0 110 0 0 380 0 380
-55 0 -55 0 0 -55z"/>
            <path d="M1940 1840 l0 -110 55 0 55 0 0 110 0 110 -55 0 -55 0 0 -110z"/>
            <path d="M2160 1785 l0 -55 55 0 55 0 0 55 0 55 -55 0 -55 0 0 -55z"/>
            <path d="M3240 1680 l0 -50 55 0 55 0 0 -55 0 -55 50 0 50 0 0 55 0 55 -50 0
-50 0 0 50 0 50 -55 0 -55 0 0 -50z"/>
            <path d="M1940 1575 l0 -55 55 0 55 0 0 55 0 55 -55 0 -55 0 0 -55z"/>
            <path d="M2910 1575 l0 -55 -50 0 -50 0 0 -55 0 -55 105 0 105 0 0 -55 0 -55
-215 0 -215 0 0 55 0 55 -55 0 -55 0 0 -110 0 -110 -55 0 -55 0 0 110 0 110
-105 0 -105 0 0 -55 0 -55 -55 0 -55 0 0 -55 0 -55 110 0 110 0 0 -50 0 -50
160 0 160 0 0 50 0 50 110 0 110 0 0 -50 0 -50 -55 0 -55 0 0 -110 0 -110 55
0 55 0 0 -110 0 -110 -55 0 -55 0 0 -160 0 -160 -110 0 -110 0 0 -55 0 -55
270 0 270 0 0 55 0 55 55 0 55 0 0 -55 0 -55 160 0 160 0 0 55 0 55 -105 0
-105 0 0 55 0 55 55 0 55 0 0 215 0 215 50 0 50 0 0 55 0 55 55 0 55 0 0 -55
0 -55 55 0 55 0 0 -55 0 -55 -55 0 -55 0 0 -55 0 -55 -55 0 -55 0 0 -50 0 -50
110 0 110 0 0 -55 0 -55 -55 0 -55 0 0 -110 0 -110 110 0 110 0 0 55 0 55 -55
0 -55 0 0 55 0 55 55 0 55 0 0 105 0 105 -55 0 -55 0 0 55 0 55 55 0 55 0 0
215 0 215 -110 0 -110 0 0 -50 0 -50 -55 0 -55 0 0 50 0 50 -215 0 -215 0 0
55 0 55 110 0 110 0 0 110 0 110 -55 0 -55 0 0 55 0 55 -110 0 -110 0 0 -55z
m330 -650 l0 -165 -165 0 -165 0 0 165 0 165 165 0 165 0 0 -165z m210 110 l0
-55 -50 0 -50 0 0 55 0 55 50 0 50 0 0 -55z m220 0 l0 -55 -55 0 -55 0 0 55 0
55 55 0 55 0 0 -55z m-430 -435 l0 -50 -55 0 -55 0 0 -55 0 -55 -55 0 -55 0 0
-55 0 -55 -55 0 -55 0 0 55 0 55 -50 0 -50 0 0 55 0 55 50 0 50 0 0 50 0 50
165 0 165 0 0 -50z"/>
            <path d="M3020 925 l0 -55 55 0 55 0 0 55 0 55 -55 0 -55 0 0 -55z"/>
            <path d="M2910 495 l0 -55 55 0 55 0 0 55 0 55 -55 0 -55 0 0 -55z"/>
            <path d="M3350 1355 l0 -55 50 0 50 0 0 55 0 55 -50 0 -50 0 0 -55z"/>
            <path d="M2050 1035 l0 -55 55 0 55 0 0 -165 0 -165 -55 0 -55 0 0 55 0 55
-110 0 -110 0 0 -55 0 -55 110 0 110 0 0 -50 0 -50 55 0 55 0 0 -55 0 -55 55
0 55 0 0 -110 0 -110 50 0 50 0 0 110 0 110 55 0 55 0 0 55 0 55 55 0 55 0 0
50 0 50 -55 0 -55 0 0 110 0 110 55 0 55 0 0 55 0 55 -55 0 -55 0 0 -55 0 -55
-105 0 -105 0 0 55 0 55 -55 0 -55 0 0 55 0 55 -55 0 -55 0 0 -55z m320 -330
l0 -55 55 0 55 0 0 -50 0 -50 -55 0 -55 0 0 50 0 50 -50 0 -50 0 0 -50 0 -50
-55 0 -55 0 0 50 0 50 55 0 55 0 0 55 0 55 50 0 50 0 0 -55z"/>
            <path d="M210 600 l0 -380 380 0 380 0 0 380 0 380 -380 0 -380 0 0 -380z
m650 0 l0 -270 -270 0 -270 0 0 270 0 270 270 0 270 0 0 -270z"/>
            <path d="M430 600 l0 -160 160 0 160 0 0 160 0 160 -160 0 -160 0 0 -160z"/>
            <path d="M1510 385 l0 -55 55 0 55 0 0 55 0 55 -55 0 -55 0 0 -55z"/>
            <path d="M1720 385 l0 -55 55 0 55 0 0 -55 0 -55 165 0 165 0 0 55 0 55 -165
0 -165 0 0 55 0 55 -55 0 -55 0 0 -55z"/>
        </g>
    </svg>

    <svg version="1.0" xmlns="http://www.w3.org/2000/svg" x="1800" y="700"
         width="100.000000px" height="100.000000px" viewBox="0 0 121.000000 122.000000"
         preserveAspectRatio="xMidYMid meet">

        <g transform="translate(0.000000,122.000000) scale(0.100000,-0.100000)"
           fill="#000000" stroke="none">
            <path d="M0 1105 l0 -115 115 0 115 0 0 115 0 115 -115 0 -115 0 0 -115z m188
-7 l-3 -82 -75 1 -75 1 -3 81 -3 81 81 0 81 0 -3 -82z"/>
            <path d="M60 1100 l0 -50 50 0 50 0 0 50 0 50 -50 0 -50 0 0 -50z"/>
            <path d="M330 1185 c0 -19 5 -35 10 -35 6 0 10 16 10 35 0 19 -4 35 -10 35 -5
0 -10 -16 -10 -35z"/>
            <path d="M390 1200 c0 -11 7 -20 15 -20 8 0 15 -7 15 -15 0 -8 -7 -15 -15 -15
-10 0 -15 -11 -15 -35 0 -24 5 -35 15 -35 8 0 15 9 15 20 0 11 6 20 14 20 8 0
18 -9 21 -20 3 -11 13 -20 21 -20 8 0 14 -7 14 -15 0 -10 11 -15 35 -15 24 0
35 5 35 15 0 8 -9 15 -20 15 -16 0 -20 7 -20 35 0 28 4 35 20 35 11 0 20 7 20
15 0 8 -9 15 -20 15 -13 0 -20 7 -20 20 0 18 -7 20 -65 20 -58 0 -65 -2 -65
-20z m100 -66 c0 -9 -7 -14 -17 -12 -25 5 -28 28 -4 28 12 0 21 -6 21 -16z"/>
            <path d="M620 1200 c0 -11 -7 -20 -15 -20 -10 0 -15 -10 -15 -30 0 -20 -5 -30
-15 -30 -8 0 -15 -9 -15 -20 0 -11 7 -20 15 -20 8 0 15 -7 15 -15 0 -10 10
-15 30 -15 20 0 30 5 30 15 0 8 7 15 15 15 8 0 15 7 15 16 0 9 9 18 20 21 11
3 20 12 20 19 0 8 -9 14 -20 14 -11 0 -20 7 -20 15 0 8 -7 15 -15 15 -10 0
-15 -10 -15 -30 0 -20 -5 -30 -15 -30 -10 0 -15 10 -15 30 0 20 5 30 15 30 8
0 15 9 15 20 0 11 -7 20 -15 20 -8 0 -15 -9 -15 -20z"/>
            <path d="M680 1200 c0 -18 7 -20 55 -20 54 0 55 0 55 -30 0 -20 5 -30 15 -30
8 0 15 -9 15 -20 0 -16 -7 -20 -35 -20 -24 0 -35 -5 -35 -15 0 -8 -7 -15 -15
-15 -8 0 -15 7 -15 15 0 8 -9 15 -20 15 -11 0 -20 -7 -20 -15 0 -8 -7 -15 -15
-15 -11 0 -15 -12 -15 -50 l0 -50 35 0 c24 0 35 -5 35 -15 0 -8 7 -15 15 -15
8 0 15 -7 15 -15 0 -8 7 -15 16 -15 9 0 18 -9 21 -20 9 -35 33 -24 33 15 0 24
-5 35 -15 35 -8 0 -15 7 -15 15 0 8 7 15 15 15 10 0 15 10 15 33 0 23 -5 34
-15 34 -8 0 -15 -5 -16 -11 -1 -6 -2 -20 -3 -30 -1 -14 -10 -21 -33 -23 -28
-4 -33 -1 -33 16 0 12 7 21 15 21 10 0 15 10 15 30 l0 30 65 0 c51 0 65 3 65
15 0 8 -7 15 -15 15 -8 0 -15 9 -15 20 0 11 -7 20 -15 20 -11 0 -15 12 -15 50
l0 50 -70 0 c-63 0 -70 -2 -70 -20z m40 -180 c0 -23 -4 -30 -20 -30 -16 0 -20
7 -20 30 0 23 4 30 20 30 16 0 20 -7 20 -30z"/>
            <path d="M850 1185 c0 -24 5 -35 15 -35 10 0 15 -11 15 -35 0 -33 2 -35 35
-35 28 0 35 4 35 20 0 13 -7 20 -20 20 -16 0 -20 7 -20 30 0 20 -5 30 -15 30
-8 0 -15 9 -15 20 0 11 -7 20 -15 20 -10 0 -15 -11 -15 -35z"/>
            <path d="M980 1105 l0 -115 115 0 115 0 0 115 0 115 -115 0 -115 0 0 -115z
m198 -7 l-3 -82 -75 1 c-41 1 -78 2 -82 2 -5 1 -8 37 -8 81 l0 80 85 0 86 0
-3 -82z"/>
            <path d="M1050 1100 l0 -50 45 0 45 0 0 50 0 50 -45 0 -45 0 0 -50z"/>
            <path d="M260 1165 c0 -8 7 -15 15 -15 8 0 15 7 15 15 0 8 -7 15 -15 15 -8 0
-15 -7 -15 -15z"/>
            <path d="M260 1100 c0 -11 7 -20 15 -20 8 0 15 -7 15 -15 0 -8 -7 -15 -15 -15
-10 0 -15 -10 -15 -30 0 -33 13 -38 37 -15 8 8 19 13 24 10 16 -10 10 -25 -10
-25 -10 0 -21 -9 -24 -21 -4 -15 -13 -20 -34 -18 -47 4 -63 0 -63 -16 0 -8 9
-15 20 -15 11 0 20 -7 20 -15 0 -8 -9 -15 -20 -15 -13 0 -20 -7 -20 -20 0 -13
7 -20 20 -20 11 0 20 -7 20 -15 0 -8 -9 -15 -20 -15 -11 0 -20 7 -20 15 0 8
-7 15 -15 15 -11 0 -15 12 -15 50 l0 50 -80 0 c-64 0 -80 -3 -80 -15 0 -8 7
-15 15 -15 8 0 15 -7 15 -15 0 -8 -7 -15 -15 -15 -10 0 -15 -11 -15 -35 0 -24
5 -35 15 -35 11 0 15 -12 15 -50 0 -28 3 -49 8 -49 44 7 52 -1 52 -51 0 -49
-1 -50 -30 -50 -29 0 -30 -1 -30 -50 0 -38 -4 -50 -15 -50 -8 0 -15 -7 -15
-15 0 -8 7 -15 15 -15 8 0 15 -7 15 -15 0 -8 -7 -15 -15 -15 -12 0 -15 -18
-15 -100 0 -82 3 -100 15 -100 12 0 15 14 15 65 0 72 -5 69 88 65 42 -2 42 -1
42 34 l0 36 50 0 c38 0 50 -4 50 -15 0 -8 7 -15 15 -15 10 0 15 10 15 30 0 20
-5 30 -15 30 -8 0 -15 7 -15 15 0 10 11 15 35 15 l35 0 0 -65 0 -65 30 0 c20
0 30 -5 30 -15 0 -8 7 -15 15 -15 8 0 15 -7 15 -15 0 -8 -7 -15 -15 -15 -10 0
-15 -11 -15 -35 0 -24 5 -35 15 -35 8 0 15 7 15 16 0 10 7 14 18 12 9 -2 16
-10 15 -16 -2 -8 10 -12 32 -12 23 0 35 5 35 14 0 7 9 16 20 19 15 4 20 14 20
36 0 29 -3 31 -35 31 -29 0 -35 4 -35 20 0 12 -6 20 -12 19 -7 -1 -30 -1 -50
0 -35 1 -38 3 -38 31 0 20 5 30 15 30 8 0 15 7 15 15 0 10 -11 15 -35 15 l-35
0 0 50 c0 28 -4 50 -10 50 -5 0 -10 -7 -10 -15 0 -8 -9 -15 -20 -15 -11 0 -20
7 -20 15 0 8 -7 15 -15 15 -10 0 -15 11 -15 35 0 24 5 35 15 35 23 0 19 52 -5
73 -11 9 -34 17 -50 17 -23 0 -30 4 -30 20 0 16 7 20 35 20 32 0 35 2 35 30 0
20 5 30 15 30 10 0 15 11 15 35 0 28 4 35 20 35 11 0 20 7 20 15 0 8 5 15 10
15 6 0 10 -7 10 -15 0 -8 9 -15 20 -15 11 0 20 -7 20 -15 0 -8 7 -15 15 -15 8
0 15 -9 15 -20 0 -11 -7 -20 -15 -20 -10 0 -15 -10 -15 -30 0 -20 5 -30 15
-30 8 0 15 7 15 15 0 8 9 15 20 15 11 0 20 7 20 15 0 8 7 15 15 15 22 0 18
-27 -5 -33 -11 -3 -20 -10 -20 -16 0 -6 9 -11 20 -11 13 0 20 -7 20 -20 0 -16
7 -20 35 -20 28 0 35 4 35 20 0 11 7 20 15 20 8 0 15 7 15 15 0 10 10 15 30
15 20 0 30 5 30 15 0 8 -7 15 -15 15 -8 0 -15 9 -15 20 0 11 7 20 15 20 8 0
15 -9 15 -20 0 -11 7 -20 15 -20 8 0 15 -7 15 -15 0 -8 9 -15 20 -15 11 0 20
-7 20 -15 0 -11 -12 -15 -50 -15 -43 0 -50 -3 -50 -20 0 -11 6 -20 14 -20 8 0
17 -8 21 -17 6 -17 7 -17 19 0 10 12 27 17 65 17 44 0 52 -3 50 -17 -3 -33 1
-43 16 -43 8 0 15 -7 15 -15 0 -10 -11 -15 -35 -15 -33 0 -35 2 -35 35 0 33
-2 35 -35 35 -33 0 -35 -2 -35 -35 0 -35 0 -35 -45 -35 -33 0 -45 4 -45 15 0
8 7 15 15 15 10 0 15 10 15 30 0 27 -3 30 -30 30 -16 0 -30 -4 -30 -9 0 -5 -9
-11 -20 -14 -11 -3 -20 -12 -20 -21 0 -9 8 -16 20 -16 11 0 20 -7 20 -15 0 -8
7 -15 15 -15 10 0 15 -11 15 -35 0 -24 5 -35 15 -35 8 0 15 7 15 15 0 10 10
15 30 15 23 0 30 4 30 20 0 13 7 20 20 20 16 0 20 -7 20 -35 0 -28 -4 -35 -20
-35 -11 0 -20 -7 -20 -15 0 -8 -7 -15 -15 -15 -8 0 -15 -9 -15 -20 0 -16 -7
-20 -30 -20 -23 0 -30 4 -30 20 0 16 -7 20 -35 20 l-35 0 0 50 0 50 -65 0 -65
0 0 29 c0 16 6 31 15 35 35 13 11 26 -50 26 -51 0 -65 -3 -65 -15 0 -8 9 -15
20 -15 16 0 20 -7 20 -30 0 -27 3 -30 30 -30 23 0 30 -4 30 -20 0 -11 7 -20
15 -20 8 0 15 -7 15 -15 0 -8 -7 -15 -15 -15 -10 0 -15 -11 -15 -35 0 -24 5
-35 15 -35 9 0 15 9 15 21 0 14 5 19 18 17 9 -2 16 -11 16 -21 -2 -14 7 -17
52 -17 41 0 54 -4 54 -15 0 -10 -11 -15 -35 -15 -24 0 -35 -5 -35 -15 0 -8 -9
-15 -20 -15 -11 0 -20 -7 -20 -15 0 -10 10 -15 34 -15 25 0 35 -5 39 -20 4
-15 14 -20 36 -20 24 0 31 4 31 20 0 11 -7 20 -15 20 -8 0 -15 7 -15 15 0 8 7
15 15 15 8 0 15 7 15 15 0 10 10 15 30 15 20 0 30 -5 30 -15 0 -8 7 -15 15
-15 8 0 15 7 15 15 0 8 9 15 20 15 11 0 20 -7 20 -15 0 -8 -9 -15 -20 -15 -11
0 -20 -7 -20 -15 0 -8 9 -15 20 -15 11 0 20 7 20 15 0 8 7 15 15 15 8 0 15 -7
15 -15 0 -8 9 -15 20 -15 11 0 20 7 20 15 0 8 -9 15 -20 15 -11 0 -20 7 -20
15 0 10 11 15 35 15 24 0 35 5 35 15 0 8 7 15 15 15 11 0 15 -12 15 -45 0 -32
-4 -45 -14 -45 -7 0 -16 -8 -18 -18 -4 -15 -12 -18 -37 -14 -17 2 -31 10 -31
18 0 8 -7 14 -15 14 -8 0 -15 -6 -15 -14 0 -8 7 -16 15 -20 8 -3 15 -12 15
-21 0 -22 97 -22 102 1 3 15 54 20 148 15 17 -1 12 -61 -5 -61 -8 0 -15 7 -15
15 0 11 -12 15 -50 15 -38 0 -50 -4 -50 -15 0 -8 -7 -15 -15 -15 -8 0 -15 -9
-15 -20 0 -11 -7 -20 -15 -20 -8 0 -15 -7 -15 -15 0 -10 -11 -15 -35 -15 -33
0 -35 2 -35 35 0 24 -5 35 -15 35 -10 0 -15 11 -15 35 0 28 -4 35 -20 35 -11
0 -20 7 -20 15 0 8 -7 15 -15 15 -8 0 -15 -6 -15 -14 0 -7 -13 -16 -30 -20
-41 -8 -41 -36 0 -36 20 0 30 -5 30 -15 0 -10 -10 -15 -30 -15 -23 0 -30 -4
-30 -20 0 -11 7 -20 15 -20 8 0 15 -7 15 -15 0 -8 7 -15 15 -15 10 0 15 -10
15 -30 0 -20 -5 -30 -15 -30 -19 0 -19 -26 0 -34 28 -10 17 -36 -15 -36 -23 0
-30 4 -30 20 0 11 -7 20 -15 20 -8 0 -15 -9 -15 -20 0 -13 -7 -20 -20 -20 -16
0 -20 7 -20 35 0 33 2 35 35 35 32 0 35 2 35 30 0 28 -3 30 -35 30 -24 0 -35
-5 -35 -15 0 -8 -7 -15 -15 -15 -8 0 -15 -7 -15 -15 0 -8 -9 -15 -20 -15 -11
0 -20 -7 -20 -15 0 -8 9 -15 20 -15 13 0 20 -7 20 -20 0 -11 7 -20 15 -20 8 0
15 -7 15 -15 0 -8 9 -15 20 -15 13 0 20 -7 20 -20 0 -13 -7 -20 -20 -20 -13 0
-20 7 -20 20 0 11 -7 20 -15 20 -8 0 -15 7 -15 15 0 11 -12 15 -50 15 l-50 0
0 35 c0 24 5 35 15 35 8 0 15 7 15 15 0 10 -11 15 -35 15 -32 0 -35 2 -35 30
0 17 -4 30 -10 30 -5 0 -10 9 -10 20 0 11 5 20 10 20 6 0 10 7 10 15 0 8 -4
15 -10 15 -5 0 -10 -7 -10 -15 0 -8 -9 -15 -20 -15 -13 0 -20 -7 -20 -20 0
-11 -7 -20 -15 -20 -11 0 -15 -12 -15 -45 0 -33 4 -45 15 -45 8 0 15 -7 15
-15 0 -8 -7 -15 -15 -15 -12 0 -15 -16 -15 -85 l0 -85 45 0 45 0 0 65 c0 58 2
65 20 65 11 0 20 -7 20 -15 0 -8 7 -15 15 -15 8 0 15 -9 15 -20 0 -11 -6 -19
-12 -17 -8 1 -14 -11 -16 -30 -2 -25 1 -33 12 -33 9 0 16 7 16 15 0 8 9 15 20
15 11 0 19 5 17 12 -1 6 6 14 16 16 24 5 22 -24 -3 -31 -11 -3 -20 -10 -20
-16 0 -6 9 -11 20 -11 11 0 20 7 20 15 0 10 11 15 35 15 24 0 35 -5 35 -15 0
-8 7 -15 15 -15 8 0 15 7 15 15 0 8 7 15 15 15 8 0 15 7 15 15 0 8 -7 15 -15
15 -8 0 -15 9 -15 20 0 16 7 20 30 20 29 0 30 -1 30 -50 0 -38 4 -50 15 -50 8
0 15 7 15 15 0 8 9 15 20 15 11 0 20 -7 20 -15 0 -8 7 -15 15 -15 8 0 15 7 15
15 0 10 11 15 35 15 24 0 35 -5 35 -15 0 -8 7 -15 15 -15 8 0 15 7 15 15 0 8
7 15 15 15 11 0 15 12 15 50 0 38 -4 50 -15 50 -8 0 -15 9 -15 20 0 11 -7 20
-15 20 -8 0 -15 7 -15 15 0 10 10 15 30 15 20 0 30 5 30 15 0 8 -7 15 -15 15
-8 0 -15 7 -15 15 0 8 7 15 15 15 10 0 15 11 15 35 0 24 5 35 15 35 10 0 15
-11 15 -35 0 -24 -5 -35 -15 -35 -8 0 -15 -7 -15 -15 0 -8 7 -15 15 -15 8 0
15 -7 15 -15 0 -8 -7 -15 -15 -15 -10 0 -15 -11 -15 -35 l0 -35 50 0 c38 0 50
-4 50 -15 0 -8 6 -15 14 -15 7 0 16 -10 19 -21 4 -15 11 -20 21 -16 13 5 16
-1 16 -28 0 -24 5 -35 15 -35 10 0 15 10 15 29 0 16 -6 31 -15 35 -8 3 -15 12
-15 21 0 8 -9 15 -20 15 -11 0 -20 7 -20 15 0 8 9 15 20 15 11 0 20 -7 20 -15
0 -10 11 -15 35 -15 24 0 35 5 35 15 0 8 5 15 10 15 6 0 10 -16 10 -35 0 -28
4 -35 20 -35 11 0 20 -7 20 -15 0 -10 -10 -15 -30 -15 -20 0 -30 -5 -30 -15 0
-11 12 -15 45 -15 l45 0 0 85 c0 69 -3 85 -15 85 -8 0 -15 -9 -15 -20 0 -13
-7 -20 -20 -20 -13 0 -20 7 -20 20 0 11 -4 20 -10 20 -5 0 -10 -9 -10 -20 0
-13 -7 -20 -20 -20 -16 0 -20 7 -20 35 l0 35 65 0 c51 0 65 3 65 15 0 10 -11
15 -35 15 -32 0 -35 2 -35 30 0 17 -4 30 -10 30 -5 0 -10 23 -10 50 0 28 5 50
10 50 6 0 10 -13 10 -30 0 -23 4 -30 20 -30 13 0 20 -7 20 -20 0 -11 7 -20 15
-20 10 0 15 11 15 35 0 24 -5 35 -15 35 -8 0 -15 7 -15 15 0 8 7 15 15 15 11
0 15 12 15 50 0 38 -4 50 -15 50 -8 0 -15 7 -15 15 0 8 7 15 15 15 11 0 15 12
15 50 0 38 -4 50 -15 50 -8 0 -15 9 -15 20 0 11 7 20 15 20 11 0 15 12 15 45
0 33 -4 45 -15 45 -8 0 -15 9 -15 20 0 11 7 20 15 20 8 0 15 7 15 15 0 8 -7
15 -15 15 -8 0 -15 7 -15 15 0 8 7 15 15 15 8 0 15 9 15 20 0 11 -7 20 -15 20
-10 0 -15 10 -15 30 0 23 -4 30 -20 30 -11 0 -20 -7 -20 -15 0 -8 -4 -15 -10
-15 -5 0 -10 7 -10 15 0 8 -9 15 -20 15 -18 0 -20 -7 -20 -65 l0 -65 -33 0
c-23 0 -34 5 -34 15 0 8 9 15 19 15 15 0 18 8 18 48 0 27 -3 51 -6 55 -14 13
-34 -7 -34 -34 0 -19 -5 -29 -15 -29 -8 0 -15 -9 -15 -20 0 -11 -7 -20 -15
-20 -8 0 -15 9 -15 20 0 16 -7 20 -35 20 -24 0 -35 5 -35 15 0 8 -7 15 -15 15
-8 0 -15 7 -15 15 0 8 7 15 15 15 8 0 15 -7 15 -15 0 -10 11 -15 35 -15 24 0
35 -5 35 -15 0 -8 7 -15 16 -15 11 0 14 8 12 33 -3 27 -6 32 -27 29 -44 -6
-71 6 -71 33 0 16 6 25 15 25 8 0 15 -4 15 -10 0 -5 9 -10 20 -10 16 0 20 7
20 30 0 28 -3 30 -35 30 -23 0 -35 -5 -35 -14 0 -8 -7 -16 -15 -20 -9 -3 -15
-18 -15 -36 0 -20 -5 -30 -15 -30 -8 0 -15 -7 -15 -15 0 -8 7 -15 15 -15 8 0
15 -7 15 -15 0 -8 7 -15 15 -15 8 0 15 -9 15 -20 0 -11 7 -20 15 -20 8 0 15
-7 15 -15 0 -8 -7 -15 -15 -15 -8 0 -15 -7 -15 -15 0 -8 -7 -15 -15 -15 -8 0
-15 7 -15 15 0 8 -7 15 -15 15 -8 0 -15 -7 -15 -15 0 -10 -11 -15 -35 -15 -32
0 -35 2 -35 30 0 20 -5 30 -15 30 -8 0 -15 9 -15 20 0 13 -7 20 -20 20 -11 0
-20 7 -20 15 0 11 -12 15 -45 15 -33 0 -45 -4 -45 -15 0 -10 -11 -15 -35 -15
-24 0 -35 5 -35 15 0 12 -14 15 -65 15 l-65 0 0 35 c0 28 -4 35 -20 35 -11 0
-20 5 -20 10 0 6 9 10 20 10 11 0 20 -4 20 -10 0 -5 7 -10 15 -10 10 0 15 10
15 30 0 28 -3 30 -35 30 -24 0 -35 -5 -35 -15 0 -8 -4 -15 -10 -15 -5 0 -10
14 -10 30 0 17 5 30 10 30 6 0 10 9 10 20 0 17 -7 20 -45 20 -38 0 -45 -3 -45
-20z m-140 -195 c0 -10 -10 -15 -30 -15 -20 0 -30 5 -30 15 0 10 10 15 30 15
20 0 30 -5 30 -15z m1060 -35 c0 -13 -7 -20 -20 -20 -11 0 -20 -7 -20 -15 0
-8 9 -15 20 -15 11 0 20 -7 20 -15 0 -8 -9 -15 -20 -15 -11 0 -20 7 -20 15 0
8 -4 15 -10 15 -5 0 -10 7 -10 15 0 8 5 15 10 15 6 0 10 9 10 20 0 13 7 20 20
20 13 0 20 -7 20 -20z m-1060 -35 c0 -10 11 -15 35 -15 24 0 35 -5 35 -15 0
-8 -7 -15 -15 -15 -8 0 -15 -9 -15 -20 0 -16 -7 -20 -35 -20 -28 0 -35 4 -35
20 0 11 6 20 14 20 24 0 30 21 7 27 -24 6 -29 33 -6 33 8 0 15 -7 15 -15z
m470 0 c0 -8 -7 -15 -15 -15 -8 0 -15 -7 -15 -15 0 -8 -9 -15 -20 -15 -16 0
-20 7 -20 30 0 28 3 30 35 30 24 0 35 -5 35 -15z m390 -30 c0 -8 7 -15 15 -15
8 0 15 -9 15 -20 0 -13 7 -20 20 -20 13 0 20 7 20 20 0 15 7 20 29 20 29 0 41
-14 41 -51 0 -10 3 -18 8 -18 38 6 52 -2 52 -31 0 -23 -4 -30 -20 -30 -11 0
-20 7 -20 15 0 8 -4 15 -9 15 -5 0 -11 9 -14 21 -3 12 -10 18 -16 14 -6 -3
-14 1 -17 9 -8 20 -34 21 -34 1 0 -9 -6 -12 -16 -8 -10 4 -17 -1 -21 -16 -4
-18 -13 -21 -54 -21 -36 0 -49 4 -49 14 0 9 12 16 32 18 55 5 46 28 -11 28
-44 0 -51 3 -51 20 0 16 7 20 35 20 24 0 35 5 35 15 0 8 7 15 15 15 8 0 15 -7
15 -15z m-130 -35 c0 -11 -7 -20 -15 -20 -8 0 -15 9 -15 20 0 11 7 20 15 20 8
0 15 -9 15 -20z m-660 -35 c0 -10 11 -15 35 -15 32 0 35 -2 35 -30 0 -19 -5
-30 -14 -30 -7 0 -16 -9 -19 -20 -4 -15 -14 -20 -36 -20 -21 0 -31 -5 -31 -15
0 -10 11 -15 35 -15 24 0 35 -5 35 -15 0 -10 -11 -15 -35 -15 -28 0 -35 -4
-35 -20 0 -16 7 -20 35 -20 24 0 35 -5 35 -15 0 -10 -11 -15 -35 -15 -24 0
-35 -5 -35 -15 0 -8 -9 -15 -20 -15 -11 0 -20 -7 -20 -15 0 -11 -12 -15 -45
-15 -33 0 -45 4 -45 15 0 8 7 15 15 15 8 0 15 7 15 15 0 8 7 15 15 15 8 0 15
-7 15 -15 0 -8 6 -15 14 -15 8 0 16 7 20 15 4 10 -1 15 -14 15 -16 0 -20 7
-20 35 0 24 -5 35 -15 35 -8 0 -15 7 -15 15 0 8 7 15 15 15 8 0 15 7 15 15 0
10 11 15 35 15 28 0 35 4 35 20 0 16 7 20 35 20 24 0 35 5 35 15 0 10 -11 15
-35 15 -25 0 -35 -4 -35 -16 0 -9 -7 -14 -17 -12 -26 5 -28 59 -2 65 10 3 19
9 19 14 0 5 7 9 15 9 8 0 15 -7 15 -15z m690 -30 l0 -45 65 0 c51 0 65 3 65
15 0 8 9 15 20 15 11 0 20 -7 20 -15 0 -10 11 -15 35 -15 33 0 35 -2 35 -35 0
-32 2 -35 30 -35 20 0 30 -5 30 -15 0 -12 -14 -15 -65 -15 -58 0 -65 -2 -65
-20 0 -16 7 -20 35 -20 24 0 35 -5 35 -15 0 -8 5 -15 10 -15 6 0 10 -7 10 -15
0 -8 9 -15 20 -15 11 0 20 -7 20 -15 0 -10 -10 -15 -29 -15 -20 0 -30 -6 -34
-20 -3 -13 -10 -18 -21 -14 -11 4 -16 19 -16 50 0 32 -4 44 -15 44 -8 0 -15
-7 -15 -15 0 -8 -9 -15 -20 -15 -11 0 -20 -7 -20 -15 0 -8 -7 -15 -15 -15 -10
0 -15 10 -15 30 0 20 -5 30 -15 30 -10 0 -15 -10 -15 -30 0 -28 -3 -30 -35
-30 -24 0 -35 5 -35 15 0 8 7 15 15 15 8 0 15 7 15 15 0 8 -7 15 -15 15 -8 0
-15 7 -15 15 0 12 14 15 65 15 51 0 65 -3 65 -15 0 -8 9 -15 20 -15 11 0 20 6
20 14 0 7 -9 16 -20 19 -11 3 -20 10 -20 17 0 7 9 14 20 17 14 4 20 14 20 34
0 26 -3 29 -35 29 -24 0 -35 -5 -35 -15 0 -8 7 -15 15 -15 8 0 15 -7 15 -15 0
-8 -7 -15 -15 -15 -8 0 -15 7 -15 15 0 8 -7 15 -15 15 -8 0 -15 -7 -15 -15 0
-8 -9 -15 -20 -15 -16 0 -20 7 -20 30 0 20 -5 30 -15 30 -8 0 -15 9 -15 20 0
11 -7 20 -15 20 -8 0 -15 7 -15 15 0 8 -7 15 -15 15 -8 0 -15 9 -15 20 0 11 7
20 15 20 8 0 15 5 15 10 0 6 7 10 15 10 11 0 15 -12 15 -45z m-290 0 c0 -8 -7
-15 -15 -15 -8 0 -15 7 -15 15 0 8 7 15 15 15 8 0 15 -7 15 -15z m230 -100 c0
-8 7 -15 15 -15 8 0 15 -7 15 -15 0 -8 -7 -15 -15 -15 -8 0 -15 -9 -15 -20 0
-16 -7 -20 -35 -20 -24 0 -35 -5 -35 -15 0 -8 -7 -15 -15 -15 -8 0 -15 7 -15
15 0 8 -9 15 -20 15 -13 0 -20 7 -20 20 0 13 7 20 20 20 13 0 20 -7 20 -20 0
-11 7 -20 15 -20 8 0 15 9 15 20 0 16 7 20 35 20 24 0 35 5 35 15 0 10 -11 15
-35 15 -24 0 -35 5 -35 15 0 10 11 15 35 15 24 0 35 -5 35 -15z m-330 -30 c0
-8 -9 -15 -20 -15 -11 0 -20 7 -20 15 0 8 9 15 20 15 11 0 20 -7 20 -15z m560
-160 c0 -8 -9 -15 -20 -15 -20 0 -26 11 -13 23 12 13 33 7 33 -8z m30 -40 c0
-8 -7 -15 -15 -15 -8 0 -15 7 -15 15 0 8 7 15 15 15 8 0 15 -7 15 -15z m-560
-65 c0 -16 -7 -20 -30 -20 -23 0 -30 4 -30 20 0 16 7 20 30 20 23 0 30 -4 30
-20z m-190 -35 c0 -8 -9 -15 -20 -15 -11 0 -20 7 -20 15 0 8 9 15 20 15 11 0
20 -7 20 -15z m390 0 c0 -8 7 -15 15 -15 8 0 15 -7 15 -15 0 -8 6 -15 14 -15
15 0 29 -27 21 -40 -3 -5 4 -14 15 -20 33 -18 25 -40 -15 -40 l-35 0 0 50 0
50 -35 0 c-32 0 -35 2 -35 30 0 23 4 30 20 30 11 0 20 -7 20 -15z m330 -60 l0
-45 -50 0 -50 0 0 45 0 45 50 0 50 0 0 -45z m70 30 c0 -8 -9 -15 -20 -15 -11
0 -20 7 -20 15 0 8 9 15 20 15 11 0 20 -7 20 -15z m-770 -60 c0 -8 -4 -15 -10
-15 -5 0 -10 7 -10 15 0 8 5 15 10 15 6 0 10 -7 10 -15z m330 0 c0 -8 -7 -15
-15 -15 -8 0 -15 7 -15 15 0 8 7 15 15 15 8 0 15 -7 15 -15z m40 -35 c0 -11 7
-20 15 -20 8 0 15 -7 15 -15 0 -8 6 -15 14 -15 21 0 31 -21 15 -31 -22 -14
-29 -11 -29 11 0 27 -26 26 -33 -1 -3 -12 -12 -19 -19 -17 -14 5 -23 70 -14
94 8 21 36 17 36 -6z m-130 -35 c0 -8 -7 -15 -15 -15 -8 0 -15 7 -15 15 0 8 7
15 15 15 8 0 15 -7 15 -15z m-262 -32 c-2 -10 -10 -18 -18 -18 -8 0 -16 8 -18
18 -2 12 3 17 18 17 15 0 20 -5 18 -17z m522 -18 c0 -24 -5 -35 -15 -35 -10 0
-15 11 -15 35 0 24 5 35 15 35 10 0 15 -11 15 -35z m-260 -20 c0 -8 -7 -15
-15 -15 -8 0 -15 7 -15 15 0 8 7 15 15 15 8 0 15 -7 15 -15z"/>
            <path d="M120 575 c0 -8 9 -15 20 -15 11 0 20 7 20 15 0 8 -9 15 -20 15 -11 0
-20 -7 -20 -15z"/>
            <path d="M980 215 c0 -8 7 -15 15 -15 8 0 15 7 15 15 0 8 -7 15 -15 15 -8 0
-15 -7 -15 -15z"/>
            <path d="M560 1036 c0 -8 -9 -18 -20 -21 -16 -5 -20 -15 -20 -51 0 -44 0 -44
35 -44 23 0 35 5 35 14 0 8 7 17 16 20 18 7 16 57 -3 64 -9 2 -13 -8 -13 -32
0 -25 -4 -36 -15 -36 -10 0 -15 10 -15 29 0 16 6 31 15 35 8 3 15 12 15 21 0
8 -7 15 -15 15 -8 0 -15 -6 -15 -14z"/>
            <path d="M452 983 c2 -17 10 -29 21 -31 13 -3 17 3 17 27 0 25 -4 31 -21 31
-16 0 -20 -5 -17 -27z"/>
            <path d="M330 885 c0 -28 -4 -35 -20 -35 -16 0 -20 -7 -20 -30 0 -27 3 -30 30
-30 l30 0 0 65 c0 37 -4 65 -10 65 -5 0 -10 -16 -10 -35z"/>
            <path d="M457 724 c-14 -15 -6 -34 14 -34 14 0 19 5 17 17 -3 18 -20 27 -31
17z"/>
            <path d="M30 675 c0 -8 7 -15 15 -15 8 0 15 7 15 15 0 8 -7 15 -15 15 -8 0
-15 -7 -15 -15z"/>
            <path d="M590 445 c0 -10 10 -15 30 -15 20 0 30 5 30 15 0 10 -10 15 -30 15
-20 0 -30 -5 -30 -15z"/>
            <path d="M190 410 c0 -11 3 -19 8 -19 20 3 32 -2 32 -16 0 -10 -11 -15 -35
-15 -24 0 -35 -5 -35 -15 0 -8 -9 -15 -20 -15 -11 0 -20 7 -20 15 0 10 -10 15
-30 15 -20 0 -30 -5 -30 -15 0 -10 10 -15 29 -15 20 0 30 -6 34 -20 4 -15 14
-20 36 -20 21 0 31 -5 31 -15 0 -8 9 -15 20 -15 11 0 20 7 20 15 0 8 -9 15
-20 15 -13 0 -20 7 -20 20 0 16 7 20 35 20 24 0 35 5 35 15 0 8 7 15 15 15 8
0 15 9 15 20 0 11 -7 20 -15 20 -8 0 -15 7 -15 15 0 10 -11 15 -35 15 -28 0
-35 -4 -35 -20z"/>
            <path d="M784 313 c4 -26 36 -29 36 -4 0 14 -6 21 -19 21 -13 0 -18 -6 -17
-17z"/>
            <path d="M60 275 c0 -8 7 -15 15 -15 8 0 15 7 15 15 0 8 -7 15 -15 15 -8 0
-15 -7 -15 -15z"/>
            <path d="M0 115 l0 -115 115 0 116 0 -3 113 -3 112 -112 3 -113 3 0 -116z
m190 0 l0 -85 -80 0 -80 0 0 85 0 85 80 0 80 0 0 -85z"/>
            <path d="M64 156 c-3 -8 -4 -31 -2 -52 3 -39 3 -39 51 -42 l47 -3 0 55 0 56
-45 0 c-30 0 -47 -5 -51 -14z"/>
            <path d="M910 45 c0 -8 9 -15 20 -15 11 0 20 -7 20 -15 0 -8 7 -15 15 -15 10
0 15 10 15 30 0 28 -3 30 -35 30 -24 0 -35 -5 -35 -15z"/>
        </g>
    </svg>

</svg>