<?xml version="1.0" standalone="no"?>
<!DOCTYPE svg PUBLIC "-//W3C//DTD SVG 20010904//EN"
 "http://www.w3.org/TR/2001/REC-SVG-20010904/DTD/svg10.dtd">
<svg version="1.0" xmlns="http://www.w3.org/2000/svg"
 width="400.000000pt" height="400.000000pt" viewBox="0 0 400.000000 400.000000"
 preserveAspectRatio="xMidYMid meet">

<g transform="translate(0.000000,400.000000) scale(0.100000,-0.100000)"
fill="#000000" stroke="none">
<path d="M210 3410 l0 -380 380 0 380 0 0 380 0 380 -380 0 -380 0 0 -380z
m650 0 l0 -270 -270 0 -270 0 0 270 0 270 270 0 270 0 0 -270z"/>
<path d="M430 3410 l0 -160 160 0 160 0 0 160 0 160 -160 0 -160 0 0 -160z"/>
<path d="M1080 3735 l0 -55 50 0 50 0 0 -110 0 -110 -50 0 -50 0 0 -50 0 -50
50 0 50 0 0 -110 0 -110 -50 0 -50 0 0 -55 0 -55 50 0 50 0 0 -55 0 -55 -50 0
-50 0 0 -160 0 -160 -55 0 -55 0 0 55 0 55 -55 0 -55 0 0 55 0 55 55 0 55 0 0
50 0 50 -165 0 -165 0 0 -50 0 -50 -50 0 -50 0 0 50 0 50 -55 0 -55 0 0 -50 0
-50 -110 0 -110 0 0 -55 0 -55 110 0 110 0 0 -165 0 -165 55 0 55 0 0 -50 0
-50 -55 0 -55 0 0 -110 0 -110 -55 0 -55 0 0 160 0 160 -55 0 -55 0 0 -215 0
-215 55 0 55 0 0 -55 0 -55 -55 0 -55 0 0 -55 0 -55 55 0 55 0 0 -105 0 -105
55 0 55 0 0 105 0 105 -55 0 -55 0 0 55 0 55 55 0 55 0 0 55 0 55 105 0 105 0
0 -55 0 -55 55 0 55 0 0 -55 0 -55 -105 0 -105 0 0 -50 0 -50 50 0 50 0 0 -55
0 -55 -50 0 -50 0 0 -55 0 -55 -55 0 -55 0 0 -55 0 -55 -55 0 -55 0 0 55 0 55
-55 0 -55 0 0 -55 0 -55 55 0 55 0 0 -55 0 -55 -55 0 -55 0 0 -50 0 -50 55 0
55 0 0 50 0 50 55 0 55 0 0 55 0 55 105 0 105 0 0 -55 0 -55 55 0 55 0 0 -50
0 -50 110 0 110 0 0 50 0 50 -55 0 -55 0 0 55 0 55 110 0 110 0 0 55 0 55 105
0 105 0 0 -55 0 -55 -55 0 -55 0 0 -105 0 -105 -50 0 -50 0 0 -55 0 -55 160 0
160 0 0 -55 0 -55 -160 0 -160 0 0 -110 0 -110 50 0 50 0 0 -50 0 -50 -50 0
-50 0 0 -55 0 -55 50 0 50 0 0 -110 0 -110 55 0 55 0 0 165 0 165 55 0 55 0 0
50 0 50 -110 0 -110 0 0 55 0 55 220 0 220 0 0 -55 0 -55 -55 0 -55 0 0 -50 0
-50 105 0 105 0 0 -55 0 -55 -105 0 -105 0 0 -55 0 -55 -55 0 -55 0 0 -55 0
-55 55 0 55 0 0 55 0 55 55 0 55 0 0 -55 0 -55 50 0 50 0 0 55 0 55 110 0 110
0 0 -55 0 -55 110 0 110 0 0 55 0 55 160 0 160 0 0 -55 0 -55 435 0 435 0 0
55 0 55 -55 0 -55 0 0 55 0 55 55 0 55 0 0 105 0 105 50 0 50 0 0 -50 0 -50
55 0 55 0 0 50 0 50 -55 0 -55 0 0 55 0 55 -50 0 -50 0 0 55 0 55 160 0 160 0
0 -110 0 -110 55 0 55 0 0 270 0 270 -110 0 -110 0 0 -50 0 -50 -55 0 -55 0 0
50 0 50 -215 0 -215 0 0 55 0 55 165 0 165 0 0 55 0 55 -55 0 -55 0 0 55 0 55
-55 0 -55 0 0 -55 0 -55 -55 0 -55 0 0 110 0 110 165 0 165 0 0 -55 0 -55 50
0 50 0 0 -55 0 -55 55 0 55 0 0 -55 0 -55 110 0 110 0 0 110 0 110 -55 0 -55
0 0 55 0 55 -55 0 -55 0 0 -55 0 -55 -55 0 -55 0 0 55 0 55 -50 0 -50 0 0 105
0 105 50 0 50 0 0 -55 0 -55 55 0 55 0 0 55 0 55 55 0 55 0 0 -55 0 -55 55 0
55 0 0 110 0 110 -110 0 -110 0 0 55 0 55 -55 0 -55 0 0 110 0 110 55 0 55 0
0 -55 0 -55 55 0 55 0 0 -55 0 -55 55 0 55 0 0 430 0 430 -55 0 -55 0 0 -50 0
-50 -110 0 -110 0 0 50 0 50 -50 0 -50 0 0 -105 0 -105 -55 0 -55 0 0 -55 0
-55 55 0 55 0 0 55 0 55 50 0 50 0 0 -55 0 -55 110 0 110 0 0 -110 0 -110
-110 0 -110 0 0 -50 0 -50 -105 0 -105 0 0 50 0 50 55 0 55 0 0 55 0 55 -220
0 -220 0 0 55 0 55 55 0 55 0 0 55 0 55 55 0 55 0 0 55 0 55 -55 0 -55 0 0 50
0 50 -55 0 -55 0 0 110 0 110 -50 0 -50 0 0 -110 0 -110 -55 0 -55 0 0 110 0
110 -55 0 -55 0 0 -55 0 -55 -55 0 -55 0 0 55 0 55 -55 0 -55 0 0 55 0 55 55
0 55 0 0 105 0 105 -105 0 -105 0 0 55 0 55 105 0 105 0 0 55 0 55 55 0 55 0
0 -215 0 -215 55 0 55 0 0 105 0 105 55 0 55 0 0 55 0 55 50 0 50 0 0 110 0
110 -270 0 -270 0 0 -55 0 -55 -105 0 -105 0 0 55 0 55 -165 0 -165 0 0 -55 0
-55 165 0 165 0 0 -160 0 -160 105 0 105 0 0 -55 0 -55 -105 0 -105 0 0 -165
0 -165 -55 0 -55 0 0 -50 0 -50 -110 0 -110 0 0 50 0 50 55 0 55 0 0 55 0 55
55 0 55 0 0 55 0 55 -55 0 -55 0 0 -55 0 -55 -55 0 -55 0 0 55 0 55 -55 0 -55
0 0 55 0 55 55 0 55 0 0 55 0 55 -55 0 -55 0 0 -55 0 -55 -50 0 -50 0 0 105 0
105 50 0 50 0 0 165 0 165 -105 0 -105 0 0 -110 0 -110 55 0 55 0 0 -55 0 -55
-110 0 -110 0 0 -105 0 -105 -55 0 -55 0 0 160 0 160 55 0 55 0 0 110 0 110
-55 0 -55 0 0 -55 0 -55 -55 0 -55 0 0 55 0 55 -50 0 -50 0 0 -55z m540 -540
l0 -55 50 0 50 0 0 -55 0 -55 55 0 55 0 0 -55 0 -55 -215 0 -215 0 0 110 0
110 55 0 55 0 0 55 0 55 55 0 55 0 0 -55z m-330 -110 l0 -55 -55 0 -55 0 0 55
0 55 55 0 55 0 0 -55z m1080 0 l0 -55 -50 0 -50 0 0 55 0 55 50 0 50 0 0 -55z
m-100 -215 l0 -50 50 0 50 0 0 -55 0 -55 -50 0 -50 0 0 -110 0 -110 -110 0
-110 0 0 -55 0 -55 110 0 110 0 0 -50 0 -50 50 0 50 0 0 -55 0 -55 -160 0
-160 0 0 -55 0 -55 110 0 110 0 0 -55 0 -55 50 0 50 0 0 55 0 55 55 0 55 0 0
-55 0 -55 55 0 55 0 0 55 0 55 55 0 55 0 0 -55 0 -55 160 0 160 0 0 -55 0 -55
55 0 55 0 0 55 0 55 55 0 55 0 0 110 0 110 55 0 55 0 0 -55 0 -55 50 0 50 0 0
-55 0 -55 -50 0 -50 0 0 -55 0 -55 -55 0 -55 0 0 -55 0 -55 -110 0 -110 0 0
55 0 55 -105 0 -105 0 0 -55 0 -55 50 0 50 0 0 -160 0 -160 55 0 55 0 0 -55 0
-55 -55 0 -55 0 0 -55 0 -55 -50 0 -50 0 0 -50 0 -50 -55 0 -55 0 0 -165 0
-165 55 0 55 0 0 -55 0 -55 -55 0 -55 0 0 -50 0 -50 105 0 105 0 0 -55 0 -55
55 0 55 0 0 105 0 105 110 0 110 0 0 -50 0 -50 -55 0 -55 0 0 -110 0 -110
-110 0 -110 0 0 55 0 55 -50 0 -50 0 0 -55 0 -55 -110 0 -110 0 0 55 0 55
-110 0 -110 0 0 55 0 55 -50 0 -50 0 0 50 0 50 -55 0 -55 0 0 55 0 55 -55 0
-55 0 0 165 0 165 -55 0 -55 0 0 50 0 50 -55 0 -55 0 0 -50 0 -50 -55 0 -55 0
0 50 0 50 -50 0 -50 0 0 55 0 55 -55 0 -55 0 0 55 0 55 55 0 55 0 0 110 0 110
50 0 50 0 0 50 0 50 -105 0 -105 0 0 -50 0 -50 -55 0 -55 0 0 -55 0 -55 -110
0 -110 0 0 105 0 105 -50 0 -50 0 0 55 0 55 -165 0 -165 0 0 55 0 55 -55 0
-55 0 0 55 0 55 -50 0 -50 0 0 110 0 110 50 0 50 0 0 -110 0 -110 55 0 55 0 0
-55 0 -55 110 0 110 0 0 55 0 55 -55 0 -55 0 0 55 0 55 -55 0 -55 0 0 105 0
105 -55 0 -55 0 0 55 0 55 110 0 110 0 0 55 0 55 55 0 55 0 0 -55 0 -55 55 0
55 0 0 55 0 55 50 0 50 0 0 110 0 110 55 0 55 0 0 -110 0 -110 55 0 55 0 0
110 0 110 110 0 110 0 0 -110 0 -110 50 0 50 0 0 110 0 110 55 0 55 0 0 -220
0 -220 55 0 55 0 0 55 0 55 55 0 55 0 0 55 0 55 -55 0 -55 0 0 55 0 55 55 0
55 0 0 55 0 55 55 0 55 0 0 50 0 50 55 0 55 0 0 -50z m430 0 l0 -50 55 0 55 0
0 -165 0 -165 -55 0 -55 0 0 110 0 110 -55 0 -55 0 0 -55 0 -55 -55 0 -55 0 0
55 0 55 55 0 55 0 0 105 0 105 55 0 55 0 0 -50z m-2160 -105 l0 -55 50 0 50 0
0 -55 0 -55 -50 0 -50 0 0 55 0 55 -55 0 -55 0 0 55 0 55 55 0 55 0 0 -55z
m2480 0 l0 -55 -55 0 -55 0 0 55 0 55 55 0 55 0 0 -55z m-430 -380 l0 -105 55
0 55 0 0 50 0 50 105 0 105 0 0 -50 0 -50 110 0 110 0 0 -110 0 -110 -160 0
-160 0 0 55 0 55 -110 0 -110 0 0 55 0 55 -55 0 -55 0 0 105 0 105 55 0 55 0
0 -105z m-1620 -705 l0 -50 55 0 55 0 0 -55 0 -55 -55 0 -55 0 0 -55 0 -55
-110 0 -110 0 0 55 0 55 110 0 110 0 0 55 0 55 -55 0 -55 0 0 50 0 50 55 0 55
0 0 -50z m2700 -215 l0 -55 -55 0 -55 0 0 55 0 55 55 0 55 0 0 -55z m-2160
-380 l0 -105 -55 0 -55 0 0 55 0 55 -55 0 -55 0 0 50 0 50 110 0 110 0 0 -105z
m1730 -160 l0 -165 -165 0 -165 0 0 165 0 165 165 0 165 0 0 -165z m-1520 0
l0 -55 55 0 55 0 0 55 0 55 55 0 55 0 0 -55 0 -55 -55 0 -55 0 0 -55 0 -55 55
0 55 0 0 -105 0 -105 -110 0 -110 0 0 105 0 105 -50 0 -50 0 0 110 0 110 50 0
50 0 0 -55z m440 -540 l0 -55 -110 0 -110 0 0 55 0 55 110 0 110 0 0 -55z"/>
<path d="M1510 3085 l0 -55 55 0 55 0 0 55 0 55 -55 0 -55 0 0 -55z"/>
<path d="M2050 2655 l0 -55 55 0 55 0 0 55 0 55 -55 0 -55 0 0 -55z"/>
<path d="M1400 2545 l0 -55 -55 0 -55 0 0 -55 0 -55 -55 0 -55 0 0 55 0 55
-50 0 -50 0 0 -55 0 -55 50 0 50 0 0 -50 0 -50 -50 0 -50 0 0 -110 0 -110 160
0 160 0 0 55 0 55 55 0 55 0 0 55 0 55 -55 0 -55 0 0 105 0 105 110 0 110 0 0
-215 0 -215 -55 0 -55 0 0 -55 0 -55 55 0 55 0 0 -55 0 -55 105 0 105 0 0 -55
0 -55 55 0 55 0 0 -160 0 -160 55 0 55 0 0 110 0 110 55 0 55 0 0 -165 0 -165
-55 0 -55 0 0 -105 0 -105 110 0 110 0 0 -55 0 -55 -55 0 -55 0 0 -55 0 -55
55 0 55 0 0 -110 0 -110 105 0 105 0 0 110 0 110 55 0 55 0 0 55 0 55 -110 0
-110 0 0 55 0 55 110 0 110 0 0 50 0 50 110 0 110 0 0 55 0 55 -110 0 -110 0
0 55 0 55 110 0 110 0 0 110 0 110 -55 0 -55 0 0 50 0 50 -110 0 -110 0 0 110
0 110 -55 0 -55 0 0 -110 0 -110 -50 0 -50 0 0 110 0 110 -165 0 -165 0 0 110
0 110 55 0 55 0 0 55 0 55 -110 0 -110 0 0 -110 0 -110 -55 0 -55 0 0 215 0
215 -50 0 -50 0 0 55 0 55 -110 0 -110 0 0 -55z m0 -320 l0 -55 -110 0 -110 0
0 55 0 55 110 0 110 0 0 -55z m870 -545 l0 -50 50 0 50 0 0 50 0 50 55 0 55 0
0 -105 0 -105 55 0 55 0 0 55 0 55 55 0 55 0 0 -55 0 -55 -55 0 -55 0 0 -55 0
-55 -55 0 -55 0 0 55 0 55 -55 0 -55 0 0 -110 0 -110 55 0 55 0 0 -55 0 -55
-55 0 -55 0 0 55 0 55 -50 0 -50 0 0 165 0 165 -55 0 -55 0 0 50 0 50 55 0 55
0 0 -50z m100 -755 l0 -55 -50 0 -50 0 0 55 0 55 50 0 50 0 0 -55z"/>
<path d="M860 2435 l0 -55 55 0 55 0 0 55 0 55 -55 0 -55 0 0 -55z"/>
<path d="M860 2225 l0 -55 55 0 55 0 0 55 0 55 -55 0 -55 0 0 -55z"/>
<path d="M1290 1785 l0 -55 110 0 110 0 0 55 0 55 -110 0 -110 0 0 -55z"/>
<path d="M1620 1355 l0 -55 50 0 50 0 0 -55 0 -55 55 0 55 0 0 110 0 110 -105
0 -105 0 0 -55z"/>
<path d="M2590 495 l0 -55 55 0 55 0 0 55 0 55 -55 0 -55 0 0 -55z"/>
<path d="M2810 2225 l0 -55 50 0 50 0 0 55 0 55 -50 0 -50 0 0 -55z"/>
<path d="M3020 925 l0 -55 55 0 55 0 0 55 0 55 -55 0 -55 0 0 -55z"/>
<path d="M3020 3410 l0 -380 380 0 380 0 0 380 0 380 -380 0 -380 0 0 -380z
m650 0 l0 -270 -270 0 -270 0 0 270 0 270 270 0 270 0 0 -270z"/>
<path d="M3240 3410 l0 -160 160 0 160 0 0 160 0 160 -160 0 -160 0 0 -160z"/>
<path d="M1940 3515 l0 -55 55 0 55 0 0 55 0 55 -55 0 -55 0 0 -55z"/>
<path d="M210 2545 l0 -55 55 0 55 0 0 55 0 55 -55 0 -55 0 0 -55z"/>
<path d="M210 600 l0 -380 380 0 380 0 0 380 0 380 -380 0 -380 0 0 -380z
m650 0 l0 -270 -270 0 -270 0 0 270 0 270 270 0 270 0 0 -270z"/>
<path d="M430 600 l0 -160 160 0 160 0 0 160 0 160 -160 0 -160 0 0 -160z"/>
<path d="M3670 495 l0 -55 -110 0 -110 0 0 -110 0 -110 165 0 165 0 0 55 0 55
-55 0 -55 0 0 55 0 55 55 0 55 0 0 55 0 55 -55 0 -55 0 0 -55z"/>
</g>
</svg>
