<?xml version="1.0" standalone="no"?>
<!DOCTYPE svg PUBLIC "-//W3C//DTD SVG 20010904//EN"
        "http://www.w3.org/TR/2001/REC-SVG-20010904/DTD/svg10.dtd">
<svg version="1.0" xmlns="http://www.w3.org/2000/svg"
     width="100.000000px" height="100.000000px" viewBox="0 0 400.000000 400.000000"
     preserveAspectRatio="xMidYMid meet">

    <g transform="translate(0.000000,400.000000) scale(0.100000,-0.100000)"
       fill="#000000" stroke="none">
        <path d="M210 3410 l0 -380 380 0 380 0 0 380 0 380 -380 0 -380 0 0 -380z
m650 0 l0 -270 -270 0 -270 0 0 270 0 270 270 0 270 0 0 -270z"/>
        <path d="M430 3410 l0 -160 160 0 160 0 0 160 0 160 -160 0 -160 0 0 -160z"/>
        <path d="M1080 3735 l0 -55 105 0 105 0 0 -55 0 -55 -55 0 -55 0 0 -55 0 -55
-50 0 -50 0 0 -50 0 -50 50 0 50 0 0 -110 0 -110 -50 0 -50 0 0 -55 0 -55 50
0 50 0 0 -55 0 -55 -50 0 -50 0 0 -160 0 -160 50 0 50 0 0 160 0 160 165 0
165 0 0 -50 0 -50 -110 0 -110 0 0 -55 0 -55 110 0 110 0 0 -55 0 -55 55 0 55
0 0 -55 0 -55 105 0 105 0 0 55 0 55 -55 0 -55 0 0 215 0 215 55 0 55 0 0 -55
0 -55 165 0 165 0 0 55 0 55 55 0 55 0 0 55 0 55 50 0 50 0 0 -55 0 -55 55 0
55 0 0 -105 0 -105 165 0 165 0 0 -55 0 -55 50 0 50 0 0 -110 0 -110 -50 0
-50 0 0 -160 0 -160 -110 0 -110 0 0 55 0 55 -110 0 -110 0 0 50 0 50 -50 0
-50 0 0 110 0 110 105 0 105 0 0 -55 0 -55 55 0 55 0 0 -55 0 -55 55 0 55 0 0
110 0 110 -55 0 -55 0 0 55 0 55 -110 0 -110 0 0 55 0 55 -160 0 -160 0 0 -55
0 -55 -55 0 -55 0 0 -110 0 -110 55 0 55 0 0 -55 0 -55 -55 0 -55 0 0 -50 0
-50 -55 0 -55 0 0 -55 0 -55 -55 0 -55 0 0 105 0 105 -50 0 -50 0 0 -215 0
-215 -55 0 -55 0 0 55 0 55 -55 0 -55 0 0 110 0 110 55 0 55 0 0 105 0 105
-55 0 -55 0 0 55 0 55 -55 0 -55 0 0 -55 0 -55 -105 0 -105 0 0 -55 0 -55 -55
0 -55 0 0 55 0 55 -55 0 -55 0 0 -55 0 -55 55 0 55 0 0 -50 0 -50 -55 0 -55 0
0 -55 0 -55 55 0 55 0 0 55 0 55 160 0 160 0 0 -55 0 -55 -105 0 -105 0 0 -55
0 -55 50 0 50 0 0 -55 0 -55 -105 0 -105 0 0 55 0 55 -55 0 -55 0 0 -55 0 -55
-55 0 -55 0 0 55 0 55 -55 0 -55 0 0 55 0 55 55 0 55 0 0 215 0 215 110 0 110
0 0 55 0 55 -55 0 -55 0 0 55 0 55 55 0 55 0 0 50 0 50 -165 0 -165 0 0 -50 0
-50 -50 0 -50 0 0 50 0 50 -55 0 -55 0 0 -50 0 -50 55 0 55 0 0 -55 0 -55 50
0 50 0 0 -110 0 -110 -50 0 -50 0 0 -55 0 -55 -55 0 -55 0 0 165 0 165 -55 0
-55 0 0 55 0 55 -55 0 -55 0 0 -55 0 -55 55 0 55 0 0 -165 0 -165 55 0 55 0 0
-50 0 -50 105 0 105 0 0 -55 0 -55 -50 0 -50 0 0 -110 0 -110 50 0 50 0 0 -55
0 -55 -105 0 -105 0 0 -55 0 -55 -55 0 -55 0 0 110 0 110 55 0 55 0 0 110 0
110 -55 0 -55 0 0 -110 0 -110 -55 0 -55 0 0 -110 0 -110 55 0 55 0 0 -50 0
-50 -55 0 -55 0 0 -55 0 -55 110 0 110 0 0 -110 0 -110 -55 0 -55 0 0 55 0 55
-55 0 -55 0 0 -55 0 -55 55 0 55 0 0 -55 0 -55 -55 0 -55 0 0 -50 0 -50 55 0
55 0 0 50 0 50 55 0 55 0 0 -50 0 -50 55 0 55 0 0 50 0 50 50 0 50 0 0 -50 0
-50 55 0 55 0 0 50 0 50 55 0 55 0 0 -50 0 -50 55 0 55 0 0 50 0 50 105 0 105
0 0 -50 0 -50 -50 0 -50 0 0 -55 0 -55 50 0 50 0 0 55 0 55 55 0 55 0 0 50 0
50 55 0 55 0 0 -50 0 -50 55 0 55 0 0 -55 0 -55 55 0 55 0 0 -55 0 -55 -55 0
-55 0 0 -110 0 -110 -55 0 -55 0 0 110 0 110 -160 0 -160 0 0 -110 0 -110 50
0 50 0 0 -50 0 -50 -50 0 -50 0 0 -55 0 -55 50 0 50 0 0 -55 0 -55 55 0 55 0
0 -55 0 -55 55 0 55 0 0 110 0 110 -110 0 -110 0 0 55 0 55 165 0 165 0 0 50
0 50 55 0 55 0 0 -50 0 -50 50 0 50 0 0 215 0 215 -50 0 -50 0 0 55 0 55 50 0
50 0 0 50 0 50 55 0 55 0 0 -160 0 -160 55 0 55 0 0 270 0 270 -55 0 -55 0 0
-55 0 -55 -55 0 -55 0 0 -55 0 -55 -50 0 -50 0 0 55 0 55 -55 0 -55 0 0 55 0
55 105 0 105 0 0 55 0 55 55 0 55 0 0 105 0 105 -55 0 -55 0 0 55 0 55 55 0
55 0 0 55 0 55 -55 0 -55 0 0 55 0 55 165 0 165 0 0 110 0 110 55 0 55 0 0
-55 0 -55 55 0 55 0 0 -55 0 -55 -55 0 -55 0 0 -55 0 -55 55 0 55 0 0 55 0 55
50 0 50 0 0 -55 0 -55 55 0 55 0 0 -110 0 -110 -55 0 -55 0 0 -50 0 -50 -105
0 -105 0 0 -55 0 -55 215 0 215 0 0 55 0 55 55 0 55 0 0 105 0 105 -55 0 -55
0 0 55 0 55 110 0 110 0 0 55 0 55 105 0 105 0 0 -55 0 -55 -55 0 -55 0 0
-110 0 -110 55 0 55 0 0 55 0 55 55 0 55 0 0 110 0 110 -55 0 -55 0 0 55 0 55
215 0 215 0 0 105 0 105 -50 0 -50 0 0 -50 0 -50 -55 0 -55 0 0 50 0 50 -55 0
-55 0 0 110 0 110 -55 0 -55 0 0 55 0 55 55 0 55 0 0 55 0 55 -55 0 -55 0 0
50 0 50 -105 0 -105 0 0 55 0 55 50 0 50 0 0 55 0 55 -50 0 -50 0 0 55 0 55
50 0 50 0 0 55 0 55 -105 0 -105 0 0 50 0 50 105 0 105 0 0 55 0 55 -50 0 -50
0 0 55 0 55 50 0 50 0 0 55 0 55 -160 0 -160 0 0 -55 0 -55 -55 0 -55 0 0 55
0 55 -325 0 -325 0 0 -55 0 -55 -55 0 -55 0 0 55 0 55 -105 0 -105 0 0 -165 0
-165 -55 0 -55 0 0 110 0 110 -55 0 -55 0 0 55 0 55 -105 0 -105 0 0 -55z
m1400 -110 l0 -55 55 0 55 0 0 -105 0 -105 55 0 55 0 0 -55 0 -55 -55 0 -55 0
0 -110 0 -110 55 0 55 0 0 55 0 55 55 0 55 0 0 -55 0 -55 -55 0 -55 0 0 -55 0
-55 -55 0 -55 0 0 55 0 55 -55 0 -55 0 0 55 0 55 -55 0 -55 0 0 55 0 55 -50 0
-50 0 0 -55 0 -55 -55 0 -55 0 0 -55 0 -55 -55 0 -55 0 0 55 0 55 -55 0 -55 0
0 -55 0 -55 -55 0 -55 0 0 55 0 55 -55 0 -55 0 0 -55 0 -55 -50 0 -50 0 0 165
0 165 -55 0 -55 0 0 -55 0 -55 -110 0 -110 0 0 55 0 55 110 0 110 0 0 50 0 50
105 0 105 0 0 55 0 55 55 0 55 0 0 -55 0 -55 220 0 220 0 0 55 0 55 -110 0
-110 0 0 55 0 55 215 0 215 0 0 -55z m-1190 -540 l0 -55 -55 0 -55 0 0 55 0
55 55 0 55 0 0 -55z m220 0 l0 -55 -55 0 -55 0 0 55 0 55 55 0 55 0 0 -55z
m1510 -320 l0 -55 -55 0 -55 0 0 55 0 55 55 0 55 0 0 -55z m-750 -110 l0 -55
-55 0 -55 0 0 55 0 55 55 0 55 0 0 -55z m-870 -270 l0 -105 -55 0 -55 0 0 105
0 105 55 0 55 0 0 -105z m970 -160 l0 -55 55 0 55 0 0 -55 0 -55 -55 0 -55 0
0 55 0 55 -50 0 -50 0 0 55 0 55 50 0 50 0 0 -55z m-970 -275 l0 -110 55 0 55
0 0 -55 0 -55 105 0 105 0 0 -105 0 -105 -50 0 -50 0 0 55 0 55 -55 0 -55 0 0
50 0 50 -55 0 -55 0 0 -50 0 -50 -55 0 -55 0 0 -55 0 -55 110 0 110 0 0 -55 0
-55 -165 0 -165 0 0 110 0 110 -50 0 -50 0 0 -110 0 -110 -110 0 -110 0 0 55
0 55 55 0 55 0 0 55 0 55 -55 0 -55 0 0 50 0 50 55 0 55 0 0 55 0 55 -55 0
-55 0 0 55 0 55 55 0 55 0 0 -55 0 -55 55 0 55 0 0 -55 0 -55 50 0 50 0 0 55
0 55 55 0 55 0 0 110 0 110 55 0 55 0 0 -110z m320 -55 l0 -55 -50 0 -50 0 0
55 0 55 50 0 50 0 0 -55z m-1180 -270 l0 -105 105 0 105 0 0 -55 0 -55 -55 0
-55 0 0 -55 0 -55 -50 0 -50 0 0 -55 0 -55 -55 0 -55 0 0 55 0 55 55 0 55 0 0
110 0 110 -55 0 -55 0 0 105 0 105 55 0 55 0 0 -105z m430 -380 l0 -55 -55 0
-55 0 0 55 0 55 55 0 55 0 0 -55z m320 0 l0 -55 -55 0 -55 0 0 55 0 55 55 0
55 0 0 -55z m0 -540 l0 -55 -55 0 -55 0 0 55 0 55 55 0 55 0 0 -55z"/>
        <path d="M1720 3410 l0 -50 55 0 55 0 0 50 0 50 -55 0 -55 0 0 -50z"/>
        <path d="M1940 3305 l0 -55 -55 0 -55 0 0 -55 0 -55 55 0 55 0 0 55 0 55 55 0
55 0 0 -55 0 -55 55 0 55 0 0 55 0 55 55 0 55 0 0 55 0 55 -55 0 -55 0 0 -55
0 -55 -55 0 -55 0 0 55 0 55 -55 0 -55 0 0 -55z"/>
        <path d="M2480 3305 l0 -55 55 0 55 0 0 55 0 55 -55 0 -55 0 0 -55z"/>
        <path d="M1290 1785 l0 -55 55 0 55 0 0 55 0 55 -55 0 -55 0 0 -55z"/>
        <path d="M3020 3410 l0 -380 380 0 380 0 0 380 0 380 -380 0 -380 0 0 -380z
m650 0 l0 -270 -270 0 -270 0 0 270 0 270 270 0 270 0 0 -270z"/>
        <path d="M3240 3410 l0 -160 160 0 160 0 0 160 0 160 -160 0 -160 0 0 -160z"/>
        <path d="M3350 2815 l0 -105 -55 0 -55 0 0 -55 0 -55 105 0 105 0 0 160 0 160
-50 0 -50 0 0 -105z"/>
        <path d="M3670 2815 l0 -105 -55 0 -55 0 0 -55 0 -55 55 0 55 0 0 -55 0 -55
-55 0 -55 0 0 -160 0 -160 110 0 110 0 0 375 0 375 -55 0 -55 0 0 -105z"/>
        <path d="M3670 2005 l0 -55 -160 0 -160 0 0 -55 0 -55 50 0 50 0 0 -55 0 -55
110 0 110 0 0 -105 0 -105 -55 0 -55 0 0 -110 0 -110 110 0 110 0 0 380 0 380
-55 0 -55 0 0 -55z"/>
        <path d="M1940 1840 l0 -110 55 0 55 0 0 110 0 110 -55 0 -55 0 0 -110z"/>
        <path d="M2160 1785 l0 -55 55 0 55 0 0 55 0 55 -55 0 -55 0 0 -55z"/>
        <path d="M3240 1680 l0 -50 55 0 55 0 0 -55 0 -55 50 0 50 0 0 55 0 55 -50 0
-50 0 0 50 0 50 -55 0 -55 0 0 -50z"/>
        <path d="M1940 1575 l0 -55 55 0 55 0 0 55 0 55 -55 0 -55 0 0 -55z"/>
        <path d="M2910 1575 l0 -55 -50 0 -50 0 0 -55 0 -55 105 0 105 0 0 -55 0 -55
-215 0 -215 0 0 55 0 55 -55 0 -55 0 0 -110 0 -110 -55 0 -55 0 0 110 0 110
-105 0 -105 0 0 -55 0 -55 -55 0 -55 0 0 -55 0 -55 110 0 110 0 0 -50 0 -50
160 0 160 0 0 50 0 50 110 0 110 0 0 -50 0 -50 -55 0 -55 0 0 -110 0 -110 55
0 55 0 0 -110 0 -110 -55 0 -55 0 0 -160 0 -160 -110 0 -110 0 0 -55 0 -55
270 0 270 0 0 55 0 55 55 0 55 0 0 -55 0 -55 160 0 160 0 0 55 0 55 -105 0
-105 0 0 55 0 55 55 0 55 0 0 215 0 215 50 0 50 0 0 55 0 55 55 0 55 0 0 -55
0 -55 55 0 55 0 0 -55 0 -55 -55 0 -55 0 0 -55 0 -55 -55 0 -55 0 0 -50 0 -50
110 0 110 0 0 -55 0 -55 -55 0 -55 0 0 -110 0 -110 110 0 110 0 0 55 0 55 -55
0 -55 0 0 55 0 55 55 0 55 0 0 105 0 105 -55 0 -55 0 0 55 0 55 55 0 55 0 0
215 0 215 -110 0 -110 0 0 -50 0 -50 -55 0 -55 0 0 50 0 50 -215 0 -215 0 0
55 0 55 110 0 110 0 0 110 0 110 -55 0 -55 0 0 55 0 55 -110 0 -110 0 0 -55z
m330 -650 l0 -165 -165 0 -165 0 0 165 0 165 165 0 165 0 0 -165z m210 110 l0
-55 -50 0 -50 0 0 55 0 55 50 0 50 0 0 -55z m220 0 l0 -55 -55 0 -55 0 0 55 0
55 55 0 55 0 0 -55z m-430 -435 l0 -50 -55 0 -55 0 0 -55 0 -55 -55 0 -55 0 0
-55 0 -55 -55 0 -55 0 0 55 0 55 -50 0 -50 0 0 55 0 55 50 0 50 0 0 50 0 50
165 0 165 0 0 -50z"/>
        <path d="M3020 925 l0 -55 55 0 55 0 0 55 0 55 -55 0 -55 0 0 -55z"/>
        <path d="M2910 495 l0 -55 55 0 55 0 0 55 0 55 -55 0 -55 0 0 -55z"/>
        <path d="M3350 1355 l0 -55 50 0 50 0 0 55 0 55 -50 0 -50 0 0 -55z"/>
        <path d="M2050 1035 l0 -55 55 0 55 0 0 -165 0 -165 -55 0 -55 0 0 55 0 55
-110 0 -110 0 0 -55 0 -55 110 0 110 0 0 -50 0 -50 55 0 55 0 0 -55 0 -55 55
0 55 0 0 -110 0 -110 50 0 50 0 0 110 0 110 55 0 55 0 0 55 0 55 55 0 55 0 0
50 0 50 -55 0 -55 0 0 110 0 110 55 0 55 0 0 55 0 55 -55 0 -55 0 0 -55 0 -55
-105 0 -105 0 0 55 0 55 -55 0 -55 0 0 55 0 55 -55 0 -55 0 0 -55z m320 -330
l0 -55 55 0 55 0 0 -50 0 -50 -55 0 -55 0 0 50 0 50 -50 0 -50 0 0 -50 0 -50
-55 0 -55 0 0 50 0 50 55 0 55 0 0 55 0 55 50 0 50 0 0 -55z"/>
        <path d="M210 600 l0 -380 380 0 380 0 0 380 0 380 -380 0 -380 0 0 -380z
m650 0 l0 -270 -270 0 -270 0 0 270 0 270 270 0 270 0 0 -270z"/>
        <path d="M430 600 l0 -160 160 0 160 0 0 160 0 160 -160 0 -160 0 0 -160z"/>
        <path d="M1510 385 l0 -55 55 0 55 0 0 55 0 55 -55 0 -55 0 0 -55z"/>
        <path d="M1720 385 l0 -55 55 0 55 0 0 -55 0 -55 165 0 165 0 0 55 0 55 -165
0 -165 0 0 55 0 55 -55 0 -55 0 0 -55z"/>
    </g>
</svg>
