<?xml version="1.0" standalone="no"?>
<svg version="1.0" xmlns="http://www.w3.org/2000/svg"
     width="100.000000px" height="100.000000px" viewBox="0 0 121.000000 122.000000"
     preserveAspectRatio="xMidYMid meet">

    <g transform="translate(0.000000,122.000000) scale(0.100000,-0.100000)"
       fill="#000000" stroke="none">
        <path d="M0 1105 l0 -115 115 0 115 0 0 115 0 115 -115 0 -115 0 0 -115z m188
-7 l-3 -82 -75 1 -75 1 -3 81 -3 81 81 0 81 0 -3 -82z"/>
        <path d="M60 1100 l0 -50 50 0 50 0 0 50 0 50 -50 0 -50 0 0 -50z"/>
        <path d="M330 1185 c0 -19 5 -35 10 -35 6 0 10 16 10 35 0 19 -4 35 -10 35 -5
0 -10 -16 -10 -35z"/>
        <path d="M390 1200 c0 -11 7 -20 15 -20 8 0 15 -7 15 -15 0 -8 -7 -15 -15 -15
-10 0 -15 -11 -15 -35 0 -24 5 -35 15 -35 8 0 15 9 15 20 0 11 6 20 14 20 8 0
18 -9 21 -20 3 -11 13 -20 21 -20 8 0 14 -7 14 -15 0 -10 11 -15 35 -15 24 0
35 5 35 15 0 8 -9 15 -20 15 -16 0 -20 7 -20 35 0 28 4 35 20 35 11 0 20 7 20
15 0 8 -9 15 -20 15 -13 0 -20 7 -20 20 0 18 -7 20 -65 20 -58 0 -65 -2 -65
-20z m100 -66 c0 -9 -7 -14 -17 -12 -25 5 -28 28 -4 28 12 0 21 -6 21 -16z"/>
        <path d="M620 1200 c0 -11 -7 -20 -15 -20 -10 0 -15 -10 -15 -30 0 -20 -5 -30
-15 -30 -8 0 -15 -9 -15 -20 0 -11 7 -20 15 -20 8 0 15 -7 15 -15 0 -10 10
-15 30 -15 20 0 30 5 30 15 0 8 7 15 15 15 8 0 15 7 15 16 0 9 9 18 20 21 11
3 20 12 20 19 0 8 -9 14 -20 14 -11 0 -20 7 -20 15 0 8 -7 15 -15 15 -10 0
-15 -10 -15 -30 0 -20 -5 -30 -15 -30 -10 0 -15 10 -15 30 0 20 5 30 15 30 8
0 15 9 15 20 0 11 -7 20 -15 20 -8 0 -15 -9 -15 -20z"/>
        <path d="M680 1200 c0 -18 7 -20 55 -20 54 0 55 0 55 -30 0 -20 5 -30 15 -30
8 0 15 -9 15 -20 0 -16 -7 -20 -35 -20 -24 0 -35 -5 -35 -15 0 -8 -7 -15 -15
-15 -8 0 -15 7 -15 15 0 8 -9 15 -20 15 -11 0 -20 -7 -20 -15 0 -8 -7 -15 -15
-15 -11 0 -15 -12 -15 -50 l0 -50 35 0 c24 0 35 -5 35 -15 0 -8 7 -15 15 -15
8 0 15 -7 15 -15 0 -8 7 -15 16 -15 9 0 18 -9 21 -20 9 -35 33 -24 33 15 0 24
-5 35 -15 35 -8 0 -15 7 -15 15 0 8 7 15 15 15 10 0 15 10 15 33 0 23 -5 34
-15 34 -8 0 -15 -5 -16 -11 -1 -6 -2 -20 -3 -30 -1 -14 -10 -21 -33 -23 -28
-4 -33 -1 -33 16 0 12 7 21 15 21 10 0 15 10 15 30 l0 30 65 0 c51 0 65 3 65
15 0 8 -7 15 -15 15 -8 0 -15 9 -15 20 0 11 -7 20 -15 20 -11 0 -15 12 -15 50
l0 50 -70 0 c-63 0 -70 -2 -70 -20z m40 -180 c0 -23 -4 -30 -20 -30 -16 0 -20
7 -20 30 0 23 4 30 20 30 16 0 20 -7 20 -30z"/>
        <path d="M850 1185 c0 -24 5 -35 15 -35 10 0 15 -11 15 -35 0 -33 2 -35 35
-35 28 0 35 4 35 20 0 13 -7 20 -20 20 -16 0 -20 7 -20 30 0 20 -5 30 -15 30
-8 0 -15 9 -15 20 0 11 -7 20 -15 20 -10 0 -15 -11 -15 -35z"/>
        <path d="M980 1105 l0 -115 115 0 115 0 0 115 0 115 -115 0 -115 0 0 -115z
m198 -7 l-3 -82 -75 1 c-41 1 -78 2 -82 2 -5 1 -8 37 -8 81 l0 80 85 0 86 0
-3 -82z"/>
        <path d="M1050 1100 l0 -50 45 0 45 0 0 50 0 50 -45 0 -45 0 0 -50z"/>
        <path d="M260 1165 c0 -8 7 -15 15 -15 8 0 15 7 15 15 0 8 -7 15 -15 15 -8 0
-15 -7 -15 -15z"/>
        <path d="M260 1100 c0 -11 7 -20 15 -20 8 0 15 -7 15 -15 0 -8 -7 -15 -15 -15
-10 0 -15 -10 -15 -30 0 -33 13 -38 37 -15 8 8 19 13 24 10 16 -10 10 -25 -10
-25 -10 0 -21 -9 -24 -21 -4 -15 -13 -20 -34 -18 -47 4 -63 0 -63 -16 0 -8 9
-15 20 -15 11 0 20 -7 20 -15 0 -8 -9 -15 -20 -15 -13 0 -20 -7 -20 -20 0 -13
7 -20 20 -20 11 0 20 -7 20 -15 0 -8 -9 -15 -20 -15 -11 0 -20 7 -20 15 0 8
-7 15 -15 15 -11 0 -15 12 -15 50 l0 50 -80 0 c-64 0 -80 -3 -80 -15 0 -8 7
-15 15 -15 8 0 15 -7 15 -15 0 -8 -7 -15 -15 -15 -10 0 -15 -11 -15 -35 0 -24
5 -35 15 -35 11 0 15 -12 15 -50 0 -28 3 -49 8 -49 44 7 52 -1 52 -51 0 -49
-1 -50 -30 -50 -29 0 -30 -1 -30 -50 0 -38 -4 -50 -15 -50 -8 0 -15 -7 -15
-15 0 -8 7 -15 15 -15 8 0 15 -7 15 -15 0 -8 -7 -15 -15 -15 -12 0 -15 -18
-15 -100 0 -82 3 -100 15 -100 12 0 15 14 15 65 0 72 -5 69 88 65 42 -2 42 -1
42 34 l0 36 50 0 c38 0 50 -4 50 -15 0 -8 7 -15 15 -15 10 0 15 10 15 30 0 20
-5 30 -15 30 -8 0 -15 7 -15 15 0 10 11 15 35 15 l35 0 0 -65 0 -65 30 0 c20
0 30 -5 30 -15 0 -8 7 -15 15 -15 8 0 15 -7 15 -15 0 -8 -7 -15 -15 -15 -10 0
-15 -11 -15 -35 0 -24 5 -35 15 -35 8 0 15 7 15 16 0 10 7 14 18 12 9 -2 16
-10 15 -16 -2 -8 10 -12 32 -12 23 0 35 5 35 14 0 7 9 16 20 19 15 4 20 14 20
36 0 29 -3 31 -35 31 -29 0 -35 4 -35 20 0 12 -6 20 -12 19 -7 -1 -30 -1 -50
0 -35 1 -38 3 -38 31 0 20 5 30 15 30 8 0 15 7 15 15 0 10 -11 15 -35 15 l-35
0 0 50 c0 28 -4 50 -10 50 -5 0 -10 -7 -10 -15 0 -8 -9 -15 -20 -15 -11 0 -20
7 -20 15 0 8 -7 15 -15 15 -10 0 -15 11 -15 35 0 24 5 35 15 35 23 0 19 52 -5
73 -11 9 -34 17 -50 17 -23 0 -30 4 -30 20 0 16 7 20 35 20 32 0 35 2 35 30 0
20 5 30 15 30 10 0 15 11 15 35 0 28 4 35 20 35 11 0 20 7 20 15 0 8 5 15 10
15 6 0 10 -7 10 -15 0 -8 9 -15 20 -15 11 0 20 -7 20 -15 0 -8 7 -15 15 -15 8
0 15 -9 15 -20 0 -11 -7 -20 -15 -20 -10 0 -15 -10 -15 -30 0 -20 5 -30 15
-30 8 0 15 7 15 15 0 8 9 15 20 15 11 0 20 7 20 15 0 8 7 15 15 15 22 0 18
-27 -5 -33 -11 -3 -20 -10 -20 -16 0 -6 9 -11 20 -11 13 0 20 -7 20 -20 0 -16
7 -20 35 -20 28 0 35 4 35 20 0 11 7 20 15 20 8 0 15 7 15 15 0 10 10 15 30
15 20 0 30 5 30 15 0 8 -7 15 -15 15 -8 0 -15 9 -15 20 0 11 7 20 15 20 8 0
15 -9 15 -20 0 -11 7 -20 15 -20 8 0 15 -7 15 -15 0 -8 9 -15 20 -15 11 0 20
-7 20 -15 0 -11 -12 -15 -50 -15 -43 0 -50 -3 -50 -20 0 -11 6 -20 14 -20 8 0
17 -8 21 -17 6 -17 7 -17 19 0 10 12 27 17 65 17 44 0 52 -3 50 -17 -3 -33 1
-43 16 -43 8 0 15 -7 15 -15 0 -10 -11 -15 -35 -15 -33 0 -35 2 -35 35 0 33
-2 35 -35 35 -33 0 -35 -2 -35 -35 0 -35 0 -35 -45 -35 -33 0 -45 4 -45 15 0
8 7 15 15 15 10 0 15 10 15 30 0 27 -3 30 -30 30 -16 0 -30 -4 -30 -9 0 -5 -9
-11 -20 -14 -11 -3 -20 -12 -20 -21 0 -9 8 -16 20 -16 11 0 20 -7 20 -15 0 -8
7 -15 15 -15 10 0 15 -11 15 -35 0 -24 5 -35 15 -35 8 0 15 7 15 15 0 10 10
15 30 15 23 0 30 4 30 20 0 13 7 20 20 20 16 0 20 -7 20 -35 0 -28 -4 -35 -20
-35 -11 0 -20 -7 -20 -15 0 -8 -7 -15 -15 -15 -8 0 -15 -9 -15 -20 0 -16 -7
-20 -30 -20 -23 0 -30 4 -30 20 0 16 -7 20 -35 20 l-35 0 0 50 0 50 -65 0 -65
0 0 29 c0 16 6 31 15 35 35 13 11 26 -50 26 -51 0 -65 -3 -65 -15 0 -8 9 -15
20 -15 16 0 20 -7 20 -30 0 -27 3 -30 30 -30 23 0 30 -4 30 -20 0 -11 7 -20
15 -20 8 0 15 -7 15 -15 0 -8 -7 -15 -15 -15 -10 0 -15 -11 -15 -35 0 -24 5
-35 15 -35 9 0 15 9 15 21 0 14 5 19 18 17 9 -2 16 -11 16 -21 -2 -14 7 -17
52 -17 41 0 54 -4 54 -15 0 -10 -11 -15 -35 -15 -24 0 -35 -5 -35 -15 0 -8 -9
-15 -20 -15 -11 0 -20 -7 -20 -15 0 -10 10 -15 34 -15 25 0 35 -5 39 -20 4
-15 14 -20 36 -20 24 0 31 4 31 20 0 11 -7 20 -15 20 -8 0 -15 7 -15 15 0 8 7
15 15 15 8 0 15 7 15 15 0 10 10 15 30 15 20 0 30 -5 30 -15 0 -8 7 -15 15
-15 8 0 15 7 15 15 0 8 9 15 20 15 11 0 20 -7 20 -15 0 -8 -9 -15 -20 -15 -11
0 -20 -7 -20 -15 0 -8 9 -15 20 -15 11 0 20 7 20 15 0 8 7 15 15 15 8 0 15 -7
15 -15 0 -8 9 -15 20 -15 11 0 20 7 20 15 0 8 -9 15 -20 15 -11 0 -20 7 -20
15 0 10 11 15 35 15 24 0 35 5 35 15 0 8 7 15 15 15 11 0 15 -12 15 -45 0 -32
-4 -45 -14 -45 -7 0 -16 -8 -18 -18 -4 -15 -12 -18 -37 -14 -17 2 -31 10 -31
18 0 8 -7 14 -15 14 -8 0 -15 -6 -15 -14 0 -8 7 -16 15 -20 8 -3 15 -12 15
-21 0 -22 97 -22 102 1 3 15 54 20 148 15 17 -1 12 -61 -5 -61 -8 0 -15 7 -15
15 0 11 -12 15 -50 15 -38 0 -50 -4 -50 -15 0 -8 -7 -15 -15 -15 -8 0 -15 -9
-15 -20 0 -11 -7 -20 -15 -20 -8 0 -15 -7 -15 -15 0 -10 -11 -15 -35 -15 -33
0 -35 2 -35 35 0 24 -5 35 -15 35 -10 0 -15 11 -15 35 0 28 -4 35 -20 35 -11
0 -20 7 -20 15 0 8 -7 15 -15 15 -8 0 -15 -6 -15 -14 0 -7 -13 -16 -30 -20
-41 -8 -41 -36 0 -36 20 0 30 -5 30 -15 0 -10 -10 -15 -30 -15 -23 0 -30 -4
-30 -20 0 -11 7 -20 15 -20 8 0 15 -7 15 -15 0 -8 7 -15 15 -15 10 0 15 -10
15 -30 0 -20 -5 -30 -15 -30 -19 0 -19 -26 0 -34 28 -10 17 -36 -15 -36 -23 0
-30 4 -30 20 0 11 -7 20 -15 20 -8 0 -15 -9 -15 -20 0 -13 -7 -20 -20 -20 -16
0 -20 7 -20 35 0 33 2 35 35 35 32 0 35 2 35 30 0 28 -3 30 -35 30 -24 0 -35
-5 -35 -15 0 -8 -7 -15 -15 -15 -8 0 -15 -7 -15 -15 0 -8 -9 -15 -20 -15 -11
0 -20 -7 -20 -15 0 -8 9 -15 20 -15 13 0 20 -7 20 -20 0 -11 7 -20 15 -20 8 0
15 -7 15 -15 0 -8 9 -15 20 -15 13 0 20 -7 20 -20 0 -13 -7 -20 -20 -20 -13 0
-20 7 -20 20 0 11 -7 20 -15 20 -8 0 -15 7 -15 15 0 11 -12 15 -50 15 l-50 0
0 35 c0 24 5 35 15 35 8 0 15 7 15 15 0 10 -11 15 -35 15 -32 0 -35 2 -35 30
0 17 -4 30 -10 30 -5 0 -10 9 -10 20 0 11 5 20 10 20 6 0 10 7 10 15 0 8 -4
15 -10 15 -5 0 -10 -7 -10 -15 0 -8 -9 -15 -20 -15 -13 0 -20 -7 -20 -20 0
-11 -7 -20 -15 -20 -11 0 -15 -12 -15 -45 0 -33 4 -45 15 -45 8 0 15 -7 15
-15 0 -8 -7 -15 -15 -15 -12 0 -15 -16 -15 -85 l0 -85 45 0 45 0 0 65 c0 58 2
65 20 65 11 0 20 -7 20 -15 0 -8 7 -15 15 -15 8 0 15 -9 15 -20 0 -11 -6 -19
-12 -17 -8 1 -14 -11 -16 -30 -2 -25 1 -33 12 -33 9 0 16 7 16 15 0 8 9 15 20
15 11 0 19 5 17 12 -1 6 6 14 16 16 24 5 22 -24 -3 -31 -11 -3 -20 -10 -20
-16 0 -6 9 -11 20 -11 11 0 20 7 20 15 0 10 11 15 35 15 24 0 35 -5 35 -15 0
-8 7 -15 15 -15 8 0 15 7 15 15 0 8 7 15 15 15 8 0 15 7 15 15 0 8 -7 15 -15
15 -8 0 -15 9 -15 20 0 16 7 20 30 20 29 0 30 -1 30 -50 0 -38 4 -50 15 -50 8
0 15 7 15 15 0 8 9 15 20 15 11 0 20 -7 20 -15 0 -8 7 -15 15 -15 8 0 15 7 15
15 0 10 11 15 35 15 24 0 35 -5 35 -15 0 -8 7 -15 15 -15 8 0 15 7 15 15 0 8
7 15 15 15 11 0 15 12 15 50 0 38 -4 50 -15 50 -8 0 -15 9 -15 20 0 11 -7 20
-15 20 -8 0 -15 7 -15 15 0 10 10 15 30 15 20 0 30 5 30 15 0 8 -7 15 -15 15
-8 0 -15 7 -15 15 0 8 7 15 15 15 10 0 15 11 15 35 0 24 5 35 15 35 10 0 15
-11 15 -35 0 -24 -5 -35 -15 -35 -8 0 -15 -7 -15 -15 0 -8 7 -15 15 -15 8 0
15 -7 15 -15 0 -8 -7 -15 -15 -15 -10 0 -15 -11 -15 -35 l0 -35 50 0 c38 0 50
-4 50 -15 0 -8 6 -15 14 -15 7 0 16 -10 19 -21 4 -15 11 -20 21 -16 13 5 16
-1 16 -28 0 -24 5 -35 15 -35 10 0 15 10 15 29 0 16 -6 31 -15 35 -8 3 -15 12
-15 21 0 8 -9 15 -20 15 -11 0 -20 7 -20 15 0 8 9 15 20 15 11 0 20 -7 20 -15
0 -10 11 -15 35 -15 24 0 35 5 35 15 0 8 5 15 10 15 6 0 10 -16 10 -35 0 -28
4 -35 20 -35 11 0 20 -7 20 -15 0 -10 -10 -15 -30 -15 -20 0 -30 -5 -30 -15 0
-11 12 -15 45 -15 l45 0 0 85 c0 69 -3 85 -15 85 -8 0 -15 -9 -15 -20 0 -13
-7 -20 -20 -20 -13 0 -20 7 -20 20 0 11 -4 20 -10 20 -5 0 -10 -9 -10 -20 0
-13 -7 -20 -20 -20 -16 0 -20 7 -20 35 l0 35 65 0 c51 0 65 3 65 15 0 10 -11
15 -35 15 -32 0 -35 2 -35 30 0 17 -4 30 -10 30 -5 0 -10 23 -10 50 0 28 5 50
10 50 6 0 10 -13 10 -30 0 -23 4 -30 20 -30 13 0 20 -7 20 -20 0 -11 7 -20 15
-20 10 0 15 11 15 35 0 24 -5 35 -15 35 -8 0 -15 7 -15 15 0 8 7 15 15 15 11
0 15 12 15 50 0 38 -4 50 -15 50 -8 0 -15 7 -15 15 0 8 7 15 15 15 11 0 15 12
15 50 0 38 -4 50 -15 50 -8 0 -15 9 -15 20 0 11 7 20 15 20 11 0 15 12 15 45
0 33 -4 45 -15 45 -8 0 -15 9 -15 20 0 11 7 20 15 20 8 0 15 7 15 15 0 8 -7
15 -15 15 -8 0 -15 7 -15 15 0 8 7 15 15 15 8 0 15 9 15 20 0 11 -7 20 -15 20
-10 0 -15 10 -15 30 0 23 -4 30 -20 30 -11 0 -20 -7 -20 -15 0 -8 -4 -15 -10
-15 -5 0 -10 7 -10 15 0 8 -9 15 -20 15 -18 0 -20 -7 -20 -65 l0 -65 -33 0
c-23 0 -34 5 -34 15 0 8 9 15 19 15 15 0 18 8 18 48 0 27 -3 51 -6 55 -14 13
-34 -7 -34 -34 0 -19 -5 -29 -15 -29 -8 0 -15 -9 -15 -20 0 -11 -7 -20 -15
-20 -8 0 -15 9 -15 20 0 16 -7 20 -35 20 -24 0 -35 5 -35 15 0 8 -7 15 -15 15
-8 0 -15 7 -15 15 0 8 7 15 15 15 8 0 15 -7 15 -15 0 -10 11 -15 35 -15 24 0
35 -5 35 -15 0 -8 7 -15 16 -15 11 0 14 8 12 33 -3 27 -6 32 -27 29 -44 -6
-71 6 -71 33 0 16 6 25 15 25 8 0 15 -4 15 -10 0 -5 9 -10 20 -10 16 0 20 7
20 30 0 28 -3 30 -35 30 -23 0 -35 -5 -35 -14 0 -8 -7 -16 -15 -20 -9 -3 -15
-18 -15 -36 0 -20 -5 -30 -15 -30 -8 0 -15 -7 -15 -15 0 -8 7 -15 15 -15 8 0
15 -7 15 -15 0 -8 7 -15 15 -15 8 0 15 -9 15 -20 0 -11 7 -20 15 -20 8 0 15
-7 15 -15 0 -8 -7 -15 -15 -15 -8 0 -15 -7 -15 -15 0 -8 -7 -15 -15 -15 -8 0
-15 7 -15 15 0 8 -7 15 -15 15 -8 0 -15 -7 -15 -15 0 -10 -11 -15 -35 -15 -32
0 -35 2 -35 30 0 20 -5 30 -15 30 -8 0 -15 9 -15 20 0 13 -7 20 -20 20 -11 0
-20 7 -20 15 0 11 -12 15 -45 15 -33 0 -45 -4 -45 -15 0 -10 -11 -15 -35 -15
-24 0 -35 5 -35 15 0 12 -14 15 -65 15 l-65 0 0 35 c0 28 -4 35 -20 35 -11 0
-20 5 -20 10 0 6 9 10 20 10 11 0 20 -4 20 -10 0 -5 7 -10 15 -10 10 0 15 10
15 30 0 28 -3 30 -35 30 -24 0 -35 -5 -35 -15 0 -8 -4 -15 -10 -15 -5 0 -10
14 -10 30 0 17 5 30 10 30 6 0 10 9 10 20 0 17 -7 20 -45 20 -38 0 -45 -3 -45
-20z m-140 -195 c0 -10 -10 -15 -30 -15 -20 0 -30 5 -30 15 0 10 10 15 30 15
20 0 30 -5 30 -15z m1060 -35 c0 -13 -7 -20 -20 -20 -11 0 -20 -7 -20 -15 0
-8 9 -15 20 -15 11 0 20 -7 20 -15 0 -8 -9 -15 -20 -15 -11 0 -20 7 -20 15 0
8 -4 15 -10 15 -5 0 -10 7 -10 15 0 8 5 15 10 15 6 0 10 9 10 20 0 13 7 20 20
20 13 0 20 -7 20 -20z m-1060 -35 c0 -10 11 -15 35 -15 24 0 35 -5 35 -15 0
-8 -7 -15 -15 -15 -8 0 -15 -9 -15 -20 0 -16 -7 -20 -35 -20 -28 0 -35 4 -35
20 0 11 6 20 14 20 24 0 30 21 7 27 -24 6 -29 33 -6 33 8 0 15 -7 15 -15z
m470 0 c0 -8 -7 -15 -15 -15 -8 0 -15 -7 -15 -15 0 -8 -9 -15 -20 -15 -16 0
-20 7 -20 30 0 28 3 30 35 30 24 0 35 -5 35 -15z m390 -30 c0 -8 7 -15 15 -15
8 0 15 -9 15 -20 0 -13 7 -20 20 -20 13 0 20 7 20 20 0 15 7 20 29 20 29 0 41
-14 41 -51 0 -10 3 -18 8 -18 38 6 52 -2 52 -31 0 -23 -4 -30 -20 -30 -11 0
-20 7 -20 15 0 8 -4 15 -9 15 -5 0 -11 9 -14 21 -3 12 -10 18 -16 14 -6 -3
-14 1 -17 9 -8 20 -34 21 -34 1 0 -9 -6 -12 -16 -8 -10 4 -17 -1 -21 -16 -4
-18 -13 -21 -54 -21 -36 0 -49 4 -49 14 0 9 12 16 32 18 55 5 46 28 -11 28
-44 0 -51 3 -51 20 0 16 7 20 35 20 24 0 35 5 35 15 0 8 7 15 15 15 8 0 15 -7
15 -15z m-130 -35 c0 -11 -7 -20 -15 -20 -8 0 -15 9 -15 20 0 11 7 20 15 20 8
0 15 -9 15 -20z m-660 -35 c0 -10 11 -15 35 -15 32 0 35 -2 35 -30 0 -19 -5
-30 -14 -30 -7 0 -16 -9 -19 -20 -4 -15 -14 -20 -36 -20 -21 0 -31 -5 -31 -15
0 -10 11 -15 35 -15 24 0 35 -5 35 -15 0 -10 -11 -15 -35 -15 -28 0 -35 -4
-35 -20 0 -16 7 -20 35 -20 24 0 35 -5 35 -15 0 -10 -11 -15 -35 -15 -24 0
-35 -5 -35 -15 0 -8 -9 -15 -20 -15 -11 0 -20 -7 -20 -15 0 -11 -12 -15 -45
-15 -33 0 -45 4 -45 15 0 8 7 15 15 15 8 0 15 7 15 15 0 8 7 15 15 15 8 0 15
-7 15 -15 0 -8 6 -15 14 -15 8 0 16 7 20 15 4 10 -1 15 -14 15 -16 0 -20 7
-20 35 0 24 -5 35 -15 35 -8 0 -15 7 -15 15 0 8 7 15 15 15 8 0 15 7 15 15 0
10 11 15 35 15 28 0 35 4 35 20 0 16 7 20 35 20 24 0 35 5 35 15 0 10 -11 15
-35 15 -25 0 -35 -4 -35 -16 0 -9 -7 -14 -17 -12 -26 5 -28 59 -2 65 10 3 19
9 19 14 0 5 7 9 15 9 8 0 15 -7 15 -15z m690 -30 l0 -45 65 0 c51 0 65 3 65
15 0 8 9 15 20 15 11 0 20 -7 20 -15 0 -10 11 -15 35 -15 33 0 35 -2 35 -35 0
-32 2 -35 30 -35 20 0 30 -5 30 -15 0 -12 -14 -15 -65 -15 -58 0 -65 -2 -65
-20 0 -16 7 -20 35 -20 24 0 35 -5 35 -15 0 -8 5 -15 10 -15 6 0 10 -7 10 -15
0 -8 9 -15 20 -15 11 0 20 -7 20 -15 0 -10 -10 -15 -29 -15 -20 0 -30 -6 -34
-20 -3 -13 -10 -18 -21 -14 -11 4 -16 19 -16 50 0 32 -4 44 -15 44 -8 0 -15
-7 -15 -15 0 -8 -9 -15 -20 -15 -11 0 -20 -7 -20 -15 0 -8 -7 -15 -15 -15 -10
0 -15 10 -15 30 0 20 -5 30 -15 30 -10 0 -15 -10 -15 -30 0 -28 -3 -30 -35
-30 -24 0 -35 5 -35 15 0 8 7 15 15 15 8 0 15 7 15 15 0 8 -7 15 -15 15 -8 0
-15 7 -15 15 0 12 14 15 65 15 51 0 65 -3 65 -15 0 -8 9 -15 20 -15 11 0 20 6
20 14 0 7 -9 16 -20 19 -11 3 -20 10 -20 17 0 7 9 14 20 17 14 4 20 14 20 34
0 26 -3 29 -35 29 -24 0 -35 -5 -35 -15 0 -8 7 -15 15 -15 8 0 15 -7 15 -15 0
-8 -7 -15 -15 -15 -8 0 -15 7 -15 15 0 8 -7 15 -15 15 -8 0 -15 -7 -15 -15 0
-8 -9 -15 -20 -15 -16 0 -20 7 -20 30 0 20 -5 30 -15 30 -8 0 -15 9 -15 20 0
11 -7 20 -15 20 -8 0 -15 7 -15 15 0 8 -7 15 -15 15 -8 0 -15 9 -15 20 0 11 7
20 15 20 8 0 15 5 15 10 0 6 7 10 15 10 11 0 15 -12 15 -45z m-290 0 c0 -8 -7
-15 -15 -15 -8 0 -15 7 -15 15 0 8 7 15 15 15 8 0 15 -7 15 -15z m230 -100 c0
-8 7 -15 15 -15 8 0 15 -7 15 -15 0 -8 -7 -15 -15 -15 -8 0 -15 -9 -15 -20 0
-16 -7 -20 -35 -20 -24 0 -35 -5 -35 -15 0 -8 -7 -15 -15 -15 -8 0 -15 7 -15
15 0 8 -9 15 -20 15 -13 0 -20 7 -20 20 0 13 7 20 20 20 13 0 20 -7 20 -20 0
-11 7 -20 15 -20 8 0 15 9 15 20 0 16 7 20 35 20 24 0 35 5 35 15 0 10 -11 15
-35 15 -24 0 -35 5 -35 15 0 10 11 15 35 15 24 0 35 -5 35 -15z m-330 -30 c0
-8 -9 -15 -20 -15 -11 0 -20 7 -20 15 0 8 9 15 20 15 11 0 20 -7 20 -15z m560
-160 c0 -8 -9 -15 -20 -15 -20 0 -26 11 -13 23 12 13 33 7 33 -8z m30 -40 c0
-8 -7 -15 -15 -15 -8 0 -15 7 -15 15 0 8 7 15 15 15 8 0 15 -7 15 -15z m-560
-65 c0 -16 -7 -20 -30 -20 -23 0 -30 4 -30 20 0 16 7 20 30 20 23 0 30 -4 30
-20z m-190 -35 c0 -8 -9 -15 -20 -15 -11 0 -20 7 -20 15 0 8 9 15 20 15 11 0
20 -7 20 -15z m390 0 c0 -8 7 -15 15 -15 8 0 15 -7 15 -15 0 -8 6 -15 14 -15
15 0 29 -27 21 -40 -3 -5 4 -14 15 -20 33 -18 25 -40 -15 -40 l-35 0 0 50 0
50 -35 0 c-32 0 -35 2 -35 30 0 23 4 30 20 30 11 0 20 -7 20 -15z m330 -60 l0
-45 -50 0 -50 0 0 45 0 45 50 0 50 0 0 -45z m70 30 c0 -8 -9 -15 -20 -15 -11
0 -20 7 -20 15 0 8 9 15 20 15 11 0 20 -7 20 -15z m-770 -60 c0 -8 -4 -15 -10
-15 -5 0 -10 7 -10 15 0 8 5 15 10 15 6 0 10 -7 10 -15z m330 0 c0 -8 -7 -15
-15 -15 -8 0 -15 7 -15 15 0 8 7 15 15 15 8 0 15 -7 15 -15z m40 -35 c0 -11 7
-20 15 -20 8 0 15 -7 15 -15 0 -8 6 -15 14 -15 21 0 31 -21 15 -31 -22 -14
-29 -11 -29 11 0 27 -26 26 -33 -1 -3 -12 -12 -19 -19 -17 -14 5 -23 70 -14
94 8 21 36 17 36 -6z m-130 -35 c0 -8 -7 -15 -15 -15 -8 0 -15 7 -15 15 0 8 7
15 15 15 8 0 15 -7 15 -15z m-262 -32 c-2 -10 -10 -18 -18 -18 -8 0 -16 8 -18
18 -2 12 3 17 18 17 15 0 20 -5 18 -17z m522 -18 c0 -24 -5 -35 -15 -35 -10 0
-15 11 -15 35 0 24 5 35 15 35 10 0 15 -11 15 -35z m-260 -20 c0 -8 -7 -15
-15 -15 -8 0 -15 7 -15 15 0 8 7 15 15 15 8 0 15 -7 15 -15z"/>
        <path d="M120 575 c0 -8 9 -15 20 -15 11 0 20 7 20 15 0 8 -9 15 -20 15 -11 0
-20 -7 -20 -15z"/>
        <path d="M980 215 c0 -8 7 -15 15 -15 8 0 15 7 15 15 0 8 -7 15 -15 15 -8 0
-15 -7 -15 -15z"/>
        <path d="M560 1036 c0 -8 -9 -18 -20 -21 -16 -5 -20 -15 -20 -51 0 -44 0 -44
35 -44 23 0 35 5 35 14 0 8 7 17 16 20 18 7 16 57 -3 64 -9 2 -13 -8 -13 -32
0 -25 -4 -36 -15 -36 -10 0 -15 10 -15 29 0 16 6 31 15 35 8 3 15 12 15 21 0
8 -7 15 -15 15 -8 0 -15 -6 -15 -14z"/>
        <path d="M452 983 c2 -17 10 -29 21 -31 13 -3 17 3 17 27 0 25 -4 31 -21 31
-16 0 -20 -5 -17 -27z"/>
        <path d="M330 885 c0 -28 -4 -35 -20 -35 -16 0 -20 -7 -20 -30 0 -27 3 -30 30
-30 l30 0 0 65 c0 37 -4 65 -10 65 -5 0 -10 -16 -10 -35z"/>
        <path d="M457 724 c-14 -15 -6 -34 14 -34 14 0 19 5 17 17 -3 18 -20 27 -31
17z"/>
        <path d="M30 675 c0 -8 7 -15 15 -15 8 0 15 7 15 15 0 8 -7 15 -15 15 -8 0
-15 -7 -15 -15z"/>
        <path d="M590 445 c0 -10 10 -15 30 -15 20 0 30 5 30 15 0 10 -10 15 -30 15
-20 0 -30 -5 -30 -15z"/>
        <path d="M190 410 c0 -11 3 -19 8 -19 20 3 32 -2 32 -16 0 -10 -11 -15 -35
-15 -24 0 -35 -5 -35 -15 0 -8 -9 -15 -20 -15 -11 0 -20 7 -20 15 0 10 -10 15
-30 15 -20 0 -30 -5 -30 -15 0 -10 10 -15 29 -15 20 0 30 -6 34 -20 4 -15 14
-20 36 -20 21 0 31 -5 31 -15 0 -8 9 -15 20 -15 11 0 20 7 20 15 0 8 -9 15
-20 15 -13 0 -20 7 -20 20 0 16 7 20 35 20 24 0 35 5 35 15 0 8 7 15 15 15 8
0 15 9 15 20 0 11 -7 20 -15 20 -8 0 -15 7 -15 15 0 10 -11 15 -35 15 -28 0
-35 -4 -35 -20z"/>
        <path d="M784 313 c4 -26 36 -29 36 -4 0 14 -6 21 -19 21 -13 0 -18 -6 -17
-17z"/>
        <path d="M60 275 c0 -8 7 -15 15 -15 8 0 15 7 15 15 0 8 -7 15 -15 15 -8 0
-15 -7 -15 -15z"/>
        <path d="M0 115 l0 -115 115 0 116 0 -3 113 -3 112 -112 3 -113 3 0 -116z
m190 0 l0 -85 -80 0 -80 0 0 85 0 85 80 0 80 0 0 -85z"/>
        <path d="M64 156 c-3 -8 -4 -31 -2 -52 3 -39 3 -39 51 -42 l47 -3 0 55 0 56
-45 0 c-30 0 -47 -5 -51 -14z"/>
        <path d="M910 45 c0 -8 9 -15 20 -15 11 0 20 -7 20 -15 0 -8 7 -15 15 -15 10
0 15 10 15 30 0 28 -3 30 -35 30 -24 0 -35 -5 -35 -15z"/>
    </g>
</svg>
