<?xml version="1.0" encoding="UTF-8"?>
<svg version="1.1" xmlns="http://www.w3.org/2000/svg" width="400" height="400">
<path d="M0 0 C22.44 0 44.88 0 68 0 C68 22.44 68 44.88 68 68 C45.56 68 23.12 68 0 68 C0 45.56 0 23.12 0 0 Z M10 10 C10 26.17 10 42.34 10 59 C26.17 59 42.34 59 59 59 C59 42.83 59 26.66 59 10 C42.83 10 26.66 10 10 10 Z " fill="#000000" transform="translate(19,19)"/>
<path d="M0 0 C3.3 0 6.6 0 10 0 C10 3.3 10 6.6 10 10 C6.7 10 3.4 10 0 10 C0 6.7 0 3.4 0 0 Z " fill="#000000" transform="translate(97,19)"/>
<path d="M0 0 C2.97 0 5.94 0 9 0 C9 6.6 9 13.2 9 20 C2.73 20 -3.54 20 -10 20 C-10 16.7 -10 13.4 -10 10 C-6.7 10 -3.4 10 0 10 C0 6.7 0 3.4 0 0 Z " fill="#000000" transform="translate(117,19)"/>
<path d="M0 0 C2.97 0 5.94 0 9 0 C9 3.3 9 6.6 9 10 C12.3 10 15.6 10 19 10 C19 6.7 19 3.4 19 0 C31.87 0 44.74 0 58 0 C58 3.3 58 6.6 58 10 C54.7 10 51.4 10 48 10 C48 13.3 48 16.6 48 20 C45.03 20 42.06 20 39 20 C39 16.7 39 13.4 39 10 C35.7 10 32.4 10 29 10 C29 13.3 29 16.6 29 20 C22.4 20 15.8 20 9 20 C9 22.97 9 25.94 9 29 C6.03 29 3.06 29 0 29 C0 19.43 0 9.86 0 0 Z " fill="#000000" transform="translate(156,19)"/>
<path d="M0 0 C12.87 0 25.74 0 39 0 C39 3.3 39 6.6 39 10 C35.7 10 32.4 10 29 10 C29 13.3 29 16.6 29 20 C22.73 20 16.46 20 10 20 C10 16.7 10 13.4 10 10 C6.7 10 3.4 10 0 10 C0 6.7 0 3.4 0 0 Z " fill="#000000" transform="translate(263,19)"/>
<path d="M0 0 C22.44 0 44.88 0 68 0 C68 22.44 68 44.88 68 68 C45.56 68 23.12 68 0 68 C0 45.56 0 23.12 0 0 Z M9 10 C9 26.17 9 42.34 9 59 C25.17 59 41.34 59 58 59 C58 42.83 58 26.66 58 10 C41.83 10 25.66 10 9 10 Z " fill="#000000" transform="translate(312,19)"/>
<path d="M0 0 C3.3 0 6.6 0 10 0 C10 6.27 10 12.54 10 19 C6.7 19 3.4 19 0 19 C0 22.3 0 25.6 0 29 C9.57 29 19.14 29 29 29 C29 25.7 29 22.4 29 19 C32.3 19 35.6 19 39 19 C39 25.6 39 32.2 39 39 C42.3 39 45.6 39 49 39 C49 32.4 49 25.8 49 19 C55.27 19 61.54 19 68 19 C68 22.3 68 25.6 68 29 C71.3 29 74.6 29 78 29 C78 41.87 78 54.74 78 68 C81.3 68 84.6 68 88 68 C88 74.6 88 81.2 88 88 C84.7 88 81.4 88 78 88 C78 90.97 78 93.94 78 97 C81.3 97 84.6 97 88 97 C88 100.3 88 103.6 88 107 C90.97 107 93.94 107 97 107 C97 110.3 97 113.6 97 117 C100.3 117 103.6 117 107 117 C107 120.3 107 123.6 107 127 C103.7 127 100.4 127 97 127 C97 129.97 97 132.94 97 136 C100.3 136 103.6 136 107 136 C107 139.3 107 142.6 107 146 C103.7 146 100.4 146 97 146 C97 152.6 97 159.2 97 166 C94.03 166 91.06 166 88 166 C88 168.97 88 171.94 88 175 C90.97 175 93.94 175 97 175 C97 178.3 97 181.6 97 185 C100.3 185 103.6 185 107 185 C107 188.3 107 191.6 107 195 C103.7 195 100.4 195 97 195 C97 198.3 97 201.6 97 205 C94.03 205 91.06 205 88 205 C88 207.97 88 210.94 88 214 C90.97 214 93.94 214 97 214 C97 217.3 97 220.6 97 224 C94.03 224 91.06 224 88 224 C88 230.6 88 237.2 88 244 C84.7 244 81.4 244 78 244 C78 234.1 78 224.2 78 214 C74.7 214 71.4 214 68 214 C68 211.03 68 208.06 68 205 C71.3 205 74.6 205 78 205 C78 201.7 78 198.4 78 195 C71.4 195 64.8 195 58 195 C58 191.7 58 188.4 58 185 C61.3 185 64.6 185 68 185 C68 175.43 68 165.86 68 156 C64.7 156 61.4 156 58 156 C58 152.7 58 149.4 58 146 C61.3 146 64.6 146 68 146 C68 142.7 68 139.4 68 136 C71.3 136 74.6 136 78 136 C78 139.3 78 142.6 78 146 C81.3 146 84.6 146 88 146 C88 136.43 88 126.86 88 117 C78.1 117 68.2 117 58 117 C58 113.7 58 110.4 58 107 C61.3 107 64.6 107 68 107 C68 103.7 68 100.4 68 97 C64.7 97 61.4 97 58 97 C58 94.03 58 91.06 58 88 C55.03 88 52.06 88 49 88 C49 81.4 49 74.8 49 68 C39.1 68 29.2 68 19 68 C19 64.7 19 61.4 19 58 C16.03 58 13.06 58 10 58 C10 51.73 10 45.46 10 39 C6.7 39 3.4 39 0 39 C0 45.27 0 51.54 0 58 C-3.3 58 -6.6 58 -10 58 C-10 55.03 -10 52.06 -10 49 C-13.3 49 -16.6 49 -20 49 C-20 36.13 -20 23.26 -20 10 C-13.4 10 -6.8 10 0 10 C0 6.7 0 3.4 0 0 Z M49 39 C49 42.3 49 45.6 49 49 C51.97 49 54.94 49 58 49 C58 45.7 58 42.4 58 39 C55.03 39 52.06 39 49 39 Z M19 49 C19 51.97 19 54.94 19 58 C22.3 58 25.6 58 29 58 C29 55.03 29 52.06 29 49 C25.7 49 22.4 49 19 49 Z M39 49 C39 51.97 39 54.94 39 58 C42.3 58 45.6 58 49 58 C49 55.03 49 52.06 49 49 C45.7 49 42.4 49 39 49 Z M58 49 C58 55.27 58 61.54 58 68 C61.3 68 64.6 68 68 68 C68 61.73 68 55.46 68 49 C64.7 49 61.4 49 58 49 Z " fill="#000000" transform="translate(224,29)"/>
<path d="M0 0 C6.6 0 13.2 0 20 0 C20 3.3 20 6.6 20 10 C16.7 10 13.4 10 10 10 C10 12.97 10 15.94 10 19 C6.7 19 3.4 19 0 19 C0 12.73 0 6.46 0 0 Z " fill="#000000" transform="translate(243,29)"/>
<path d="M0 0 C9.57 0 19.14 0 29 0 C29 9.57 29 19.14 29 29 C19.43 29 9.86 29 0 29 C0 19.43 0 9.86 0 0 Z " fill="#000000" transform="translate(39,39)"/>
<path d="M0 0 C6.6 0 13.2 0 20 0 C20 6.27 20 12.54 20 19 C16.7 19 13.4 19 10 19 C10 15.7 10 12.4 10 9 C6.7 9 3.4 9 0 9 C0 6.03 0 3.06 0 0 Z " fill="#000000" transform="translate(126,39)"/>
<path d="M0 0 C9.57 0 19.14 0 29 0 C29 9.57 29 19.14 29 29 C19.43 29 9.86 29 0 29 C0 19.43 0 9.86 0 0 Z " fill="#000000" transform="translate(331,39)"/>
<path d="M0 0 C6.6 0 13.2 0 20 0 C20 3.3 20 6.6 20 10 C13.4 10 6.8 10 0 10 C0 6.7 0 3.4 0 0 Z " fill="#000000" transform="translate(97,48)"/>
<path d="M0 0 C3.3 0 6.6 0 10 0 C10 3.3 10 6.6 10 10 C6.7 10 3.4 10 0 10 C0 6.7 0 3.4 0 0 Z " fill="#000000" transform="translate(175,48)"/>
<path d="M0 0 C3.3 0 6.6 0 10 0 C10 3.3 10 6.6 10 10 C6.7 10 3.4 10 0 10 C0 6.7 0 3.4 0 0 Z " fill="#000000" transform="translate(126,58)"/>
<path d="M0 0 C3.3 0 6.6 0 10 0 C10 3.3 10 6.6 10 10 C6.7 10 3.4 10 0 10 C0 6.7 0 3.4 0 0 Z " fill="#000000" transform="translate(165,58)"/>
<path d="M0 0 C6.27 0 12.54 0 19 0 C19 6.27 19 12.54 19 19 C16.03 19 13.06 19 10 19 C10 16.03 10 13.06 10 10 C6.7 10 3.4 10 0 10 C0 6.7 0 3.4 0 0 Z " fill="#000000" transform="translate(107,68)"/>
<path d="M0 0 C3.3 0 6.6 0 10 0 C10 3.3 10 6.6 10 10 C6.7 10 3.4 10 0 10 C0 6.7 0 3.4 0 0 Z " fill="#000000" transform="translate(146,68)"/>
<path d="M0 0 C3.3 0 6.6 0 10 0 C10 2.97 10 5.94 10 9 C6.7 9 3.4 9 0 9 C0 6.03 0 3.06 0 0 Z " fill="#000000" transform="translate(97,78)"/>
<path d="M0 0 C3.3 0 6.6 0 10 0 C10 2.97 10 5.94 10 9 C13.3 9 16.6 9 20 9 C20 12.3 20 15.6 20 19 C16.7 19 13.4 19 10 19 C10 22.3 10 25.6 10 29 C6.7 29 3.4 29 0 29 C0 25.7 0 22.4 0 19 C-3.3 19 -6.6 19 -10 19 C-10 15.7 -10 12.4 -10 9 C-6.7 9 -3.4 9 0 9 C0 6.03 0 3.06 0 0 Z " fill="#000000" transform="translate(136,78)"/>
<path d="M0 0 C2.97 0 5.94 0 9 0 C9 2.97 9 5.94 9 9 C6.03 9 3.06 9 0 9 C0 6.03 0 3.06 0 0 Z " fill="#000000" transform="translate(156,78)"/>
<path d="M0 0 C3.3 0 6.6 0 10 0 C10 2.97 10 5.94 10 9 C6.7 9 3.4 9 0 9 C0 6.03 0 3.06 0 0 Z " fill="#000000" transform="translate(175,78)"/>
<path d="M0 0 C2.97 0 5.94 0 9 0 C9 2.97 9 5.94 9 9 C6.03 9 3.06 9 0 9 C0 6.03 0 3.06 0 0 Z " fill="#000000" transform="translate(195,78)"/>
<path d="M0 0 C3.3 0 6.6 0 10 0 C10 3.3 10 6.6 10 10 C6.7 10 3.4 10 0 10 C0 6.7 0 3.4 0 0 Z " fill="#000000" transform="translate(107,87)"/>
<path d="M0 0 C3.3 0 6.6 0 10 0 C10 3.3 10 6.6 10 10 C13.3 10 16.6 10 20 10 C20 6.7 20 3.4 20 0 C23.3 0 26.6 0 30 0 C30 3.3 30 6.6 30 10 C32.97 10 35.94 10 39 10 C39 6.7 39 3.4 39 0 C42.3 0 45.6 0 49 0 C49 6.6 49 13.2 49 20 C42.73 20 36.46 20 30 20 C30 23.3 30 26.6 30 30 C32.97 30 35.94 30 39 30 C39 32.97 39 35.94 39 39 C32.73 39 26.46 39 20 39 C20 42.3 20 45.6 20 49 C10.43 49 0.86 49 -9 49 C-9 61.87 -9 74.74 -9 88 C-6.03 88 -3.06 88 0 88 C0 94.6 0 101.2 0 108 C-2.97 108 -5.94 108 -9 108 C-9 110.97 -9 113.94 -9 117 C-15.6 117 -22.2 117 -29 117 C-29 114.03 -29 111.06 -29 108 C-32.3 108 -35.6 108 -39 108 C-39 101.4 -39 94.8 -39 88 C-41.97 88 -44.94 88 -48 88 C-48 84.7 -48 81.4 -48 78 C-45.03 78 -42.06 78 -39 78 C-39 75.03 -39 72.06 -39 69 C-32.4 69 -25.8 69 -19 69 C-19 62.4 -19 55.8 -19 49 C-22.3 49 -25.6 49 -29 49 C-29 45.7 -29 42.4 -29 39 C-32.3 39 -35.6 39 -39 39 C-39 36.03 -39 33.06 -39 30 C-29.1 30 -19.2 30 -9 30 C-9 32.97 -9 35.94 -9 39 C-6.03 39 -3.06 39 0 39 C0 26.13 0 13.26 0 0 Z M10 20 C10 23.3 10 26.6 10 30 C13.3 30 16.6 30 20 30 C20 26.7 20 23.4 20 20 C16.7 20 13.4 20 10 20 Z M-29 98 C-29 101.3 -29 104.6 -29 108 C-25.7 108 -22.4 108 -19 108 C-19 104.7 -19 101.4 -19 98 C-22.3 98 -25.6 98 -29 98 Z " fill="#000000" transform="translate(165,87)"/>
<path d="M0 0 C3.3 0 6.6 0 10 0 C10 3.3 10 6.6 10 10 C6.7 10 3.4 10 0 10 C0 6.7 0 3.4 0 0 Z " fill="#000000" transform="translate(224,87)"/>
<path d="M0 0 C2.97 0 5.94 0 9 0 C9 3.3 9 6.6 9 10 C6.03 10 3.06 10 0 10 C0 6.7 0 3.4 0 0 Z " fill="#000000" transform="translate(39,97)"/>
<path d="M0 0 C9.57 0 19.14 0 29 0 C29 3.3 29 6.6 29 10 C19.43 10 9.86 10 0 10 C0 6.7 0 3.4 0 0 Z " fill="#000000" transform="translate(58,97)"/>
<path d="M0 0 C3.3 0 6.6 0 10 0 C10 3.3 10 6.6 10 10 C13.3 10 16.6 10 20 10 C20 6.7 20 3.4 20 0 C22.97 0 25.94 0 29 0 C29 6.6 29 13.2 29 20 C26.03 20 23.06 20 20 20 C20 22.97 20 25.94 20 29 C16.7 29 13.4 29 10 29 C10 26.03 10 23.06 10 20 C6.7 20 3.4 20 0 20 C0 13.4 0 6.8 0 0 Z " fill="#000000" transform="translate(97,97)"/>
<path d="M0 0 C2.97 0 5.94 0 9 0 C9 6.6 9 13.2 9 20 C6.03 20 3.06 20 0 20 C0 26.27 0 32.54 0 39 C-3.3 39 -6.6 39 -10 39 C-10 32.73 -10 26.46 -10 20 C-13.3 20 -16.6 20 -20 20 C-20 16.7 -20 13.4 -20 10 C-13.4 10 -6.8 10 0 10 C0 6.7 0 3.4 0 0 Z " fill="#000000" transform="translate(234,97)"/>
<path d="M0 0 C3.3 0 6.6 0 10 0 C10 3.3 10 6.6 10 10 C6.7 10 3.4 10 0 10 C0 6.7 0 3.4 0 0 Z " fill="#000000" transform="translate(341,97)"/>
<path d="M0 0 C3.3 0 6.6 0 10 0 C10 9.57 10 19.14 10 29 C6.7 29 3.4 29 0 29 C0 32.3 0 35.6 0 39 C3.3 39 6.6 39 10 39 C10 48.57 10 58.14 10 68 C6.7 68 3.4 68 0 68 C0 65.03 0 62.06 0 59 C-3.3 59 -6.6 59 -10 59 C-10 61.97 -10 64.94 -10 68 C-12.97 68 -15.94 68 -19 68 C-19 65.03 -19 62.06 -19 59 C-22.3 59 -25.6 59 -29 59 C-29 55.7 -29 52.4 -29 49 C-22.73 49 -16.46 49 -10 49 C-10 42.4 -10 35.8 -10 29 C-16.27 29 -22.54 29 -29 29 C-29 26.03 -29 23.06 -29 20 C-25.7 20 -22.4 20 -19 20 C-19 16.7 -19 13.4 -19 10 C-12.73 10 -6.46 10 0 10 C0 6.7 0 3.4 0 0 Z " fill="#000000" transform="translate(370,97)"/>
<path d="M0 0 C6.6 0 13.2 0 20 0 C20 6.27 20 12.54 20 19 C16.7 19 13.4 19 10 19 C10 16.03 10 13.06 10 10 C6.7 10 3.4 10 0 10 C0 6.7 0 3.4 0 0 Z " fill="#000000" transform="translate(19,107)"/>
<path d="M0 0 C3.3 0 6.6 0 10 0 C10 3.3 10 6.6 10 10 C13.3 10 16.6 10 20 10 C20 16.27 20 22.54 20 29 C26.27 29 32.54 29 39 29 C39 25.7 39 22.4 39 19 C42.3 19 45.6 19 49 19 C49 22.3 49 25.6 49 29 C52.3 29 55.6 29 59 29 C59 32.3 59 35.6 59 39 C65.27 39 71.54 39 78 39 C78 42.3 78 45.6 78 49 C75.03 49 72.06 49 69 49 C69 51.97 69 54.94 69 58 C65.7 58 62.4 58 59 58 C59 61.3 59 64.6 59 68 C62.3 68 65.6 68 69 68 C69 74.6 69 81.2 69 88 C65.7 88 62.4 88 59 88 C59 84.7 59 81.4 59 78 C55.7 78 52.4 78 49 78 C49 74.7 49 71.4 49 68 C45.7 68 42.4 68 39 68 C39 71.3 39 74.6 39 78 C36.03 78 33.06 78 30 78 C30 81.3 30 84.6 30 88 C26.7 88 23.4 88 20 88 C20 90.97 20 93.94 20 97 C23.3 97 26.6 97 30 97 C30 100.3 30 103.6 30 107 C23.4 107 16.8 107 10 107 C10 97.43 10 87.86 10 78 C6.7 78 3.4 78 0 78 C0 81.3 0 84.6 0 88 C-2.97 88 -5.94 88 -9 88 C-9 90.97 -9 93.94 -9 97 C-6.03 97 -3.06 97 0 97 C0 100.3 0 103.6 0 107 C-6.27 107 -12.54 107 -19 107 C-19 113.6 -19 120.2 -19 127 C-22.3 127 -25.6 127 -29 127 C-29 101.26 -29 75.52 -29 49 C-25.7 49 -22.4 49 -19 49 C-19 45.7 -19 42.4 -19 39 C-12.73 39 -6.46 39 0 39 C0 35.7 0 32.4 0 29 C3.3 29 6.6 29 10 29 C10 25.7 10 22.4 10 19 C6.7 19 3.4 19 0 19 C0 12.73 0 6.46 0 0 Z M10 39 C10 45.27 10 51.54 10 58 C3.73 58 -2.54 58 -9 58 C-9 61.3 -9 64.6 -9 68 C6.84 68 22.68 68 39 68 C39 64.7 39 61.4 39 58 C32.73 58 26.46 58 20 58 C20 51.73 20 45.46 20 39 C16.7 39 13.4 39 10 39 Z M30 39 C30 42.3 30 45.6 30 49 C32.97 49 35.94 49 39 49 C39 45.7 39 42.4 39 39 C36.03 39 33.06 39 30 39 Z " fill="#000000" transform="translate(48,107)"/>
<path d="M0 0 C3.3 0 6.6 0 10 0 C10 6.27 10 12.54 10 19 C3.73 19 -2.54 19 -9 19 C-9 16.03 -9 13.06 -9 10 C-6.03 10 -3.06 10 0 10 C0 6.7 0 3.4 0 0 Z " fill="#000000" transform="translate(321,107)"/>
<path d="M0 0 C2.97 0 5.94 0 9 0 C9 2.97 9 5.94 9 9 C6.03 9 3.06 9 0 9 C0 6.03 0 3.06 0 0 Z " fill="#000000" transform="translate(78,117)"/>
<path d="M0 0 C3.3 0 6.6 0 10 0 C10 6.27 10 12.54 10 19 C6.7 19 3.4 19 0 19 C0 12.73 0 6.46 0 0 Z " fill="#000000" transform="translate(243,117)"/>
<path d="M0 0 C3.3 0 6.6 0 10 0 C10 2.97 10 5.94 10 9 C12.97 9 15.94 9 19 9 C19 12.3 19 15.6 19 19 C16.03 19 13.06 19 10 19 C10 22.3 10 25.6 10 29 C6.7 29 3.4 29 0 29 C0 19.43 0 9.86 0 0 Z " fill="#000000" transform="translate(263,117)"/>
<path d="M0 0 C2.97 0 5.94 0 9 0 C9 3.3 9 6.6 9 10 C6.03 10 3.06 10 0 10 C0 6.7 0 3.4 0 0 Z " fill="#000000" transform="translate(39,126)"/>
<path d="M0 0 C3.3 0 6.6 0 10 0 C10 3.3 10 6.6 10 10 C6.7 10 3.4 10 0 10 C0 6.7 0 3.4 0 0 Z " fill="#000000" transform="translate(331,126)"/>
<path d="M0 0 C3.3 0 6.6 0 10 0 C10 3.3 10 6.6 10 10 C6.7 10 3.4 10 0 10 C0 6.7 0 3.4 0 0 Z " fill="#000000" transform="translate(185,136)"/>
<path d="M0 0 C3.3 0 6.6 0 10 0 C10 3.3 10 6.6 10 10 C13.3 10 16.6 10 20 10 C20 16.27 20 22.54 20 29 C13.4 29 6.8 29 0 29 C0 32.3 0 35.6 0 39 C-2.97 39 -5.94 39 -9 39 C-9 29.43 -9 19.86 -9 10 C-6.03 10 -3.06 10 0 10 C0 6.7 0 3.4 0 0 Z " fill="#000000" transform="translate(204,136)"/>
<path d="M0 0 C6.6 0 13.2 0 20 0 C20 3.3 20 6.6 20 10 C13.4 10 6.8 10 0 10 C0 6.7 0 3.4 0 0 Z " fill="#000000" transform="translate(165,146)"/>
<path d="M0 0 C2.97 0 5.94 0 9 0 C9 3.3 9 6.6 9 10 C6.03 10 3.06 10 0 10 C0 6.7 0 3.4 0 0 Z " fill="#000000" transform="translate(234,146)"/>
<path d="M0 0 C3.3 0 6.6 0 10 0 C10 3.3 10 6.6 10 10 C6.7 10 3.4 10 0 10 C0 6.7 0 3.4 0 0 Z " fill="#000000" transform="translate(253,146)"/>
<path d="M0 0 C3.3 0 6.6 0 10 0 C10 12.87 10 25.74 10 39 C12.97 39 15.94 39 19 39 C19 45.27 19 51.54 19 58 C16.03 58 13.06 58 10 58 C10 61.3 10 64.6 10 68 C6.7 68 3.4 68 0 68 C0 64.7 0 61.4 0 58 C-3.3 58 -6.6 58 -10 58 C-10 54.7 -10 51.4 -10 48 C-6.7 48 -3.4 48 0 48 C0 32.16 0 16.32 0 0 Z " fill="#000000" transform="translate(263,156)"/>
<path d="M0 0 C3.3 0 6.6 0 10 0 C10 3.3 10 6.6 10 10 C6.7 10 3.4 10 0 10 C0 6.7 0 3.4 0 0 Z " fill="#000000" transform="translate(175,165)"/>
<path d="M0 0 C3.3 0 6.6 0 10 0 C10 3.3 10 6.6 10 10 C13.3 10 16.6 10 20 10 C20 19.57 20 29.14 20 39 C0.53 39 -18.94 39 -39 39 C-39 36.03 -39 33.06 -39 30 C-29.1 30 -19.2 30 -9 30 C-9 26.7 -9 23.4 -9 20 C-6.03 20 -3.06 20 0 20 C0 13.4 0 6.8 0 0 Z " fill="#000000" transform="translate(360,165)"/>
<path d="M0 0 C6.6 0 13.2 0 20 0 C20 6.6 20 13.2 20 20 C13.4 20 6.8 20 0 20 C0 13.4 0 6.8 0 0 Z " fill="#000000" transform="translate(214,175)"/>
<path d="M0 0 C3.3 0 6.6 0 10 0 C10 3.3 10 6.6 10 10 C6.7 10 3.4 10 0 10 C0 6.7 0 3.4 0 0 Z " fill="#000000" transform="translate(243,175)"/>
<path d="M0 0 C3.3 0 6.6 0 10 0 C10 3.3 10 6.6 10 10 C6.7 10 3.4 10 0 10 C0 6.7 0 3.4 0 0 Z " fill="#000000" transform="translate(341,175)"/>
<path d="M0 0 C3.3 0 6.6 0 10 0 C10 3.3 10 6.6 10 10 C13.3 10 16.6 10 20 10 C20 12.97 20 15.94 20 19 C29.57 19 39.14 19 49 19 C49 25.6 49 32.2 49 39 C42.73 39 36.46 39 30 39 C30 35.7 30 32.4 30 29 C26.7 29 23.4 29 20 29 C20 38.57 20 48.14 20 58 C26.27 58 32.54 58 39 58 C39 61.3 39 64.6 39 68 C36.03 68 33.06 68 30 68 C30 71.3 30 74.6 30 78 C26.7 78 23.4 78 20 78 C20 74.7 20 71.4 20 68 C16.7 68 13.4 68 10 68 C10 64.7 10 61.4 10 58 C3.73 58 -2.54 58 -9 58 C-9 55.03 -9 52.06 -9 49 C-6.03 49 -3.06 49 0 49 C0 45.7 0 42.4 0 39 C-2.97 39 -5.94 39 -9 39 C-9 35.7 -9 32.4 -9 29 C-6.03 29 -3.06 29 0 29 C0 25.7 0 22.4 0 19 C-2.97 19 -5.94 19 -9 19 C-9 16.03 -9 13.06 -9 10 C-6.03 10 -3.06 10 0 10 C0 6.7 0 3.4 0 0 Z " fill="#000000" transform="translate(87,185)"/>
<path d="M0 0 C9.57 0 19.14 0 29 0 C29 6.27 29 12.54 29 19 C26.03 19 23.06 19 20 19 C20 16.03 20 13.06 20 10 C13.4 10 6.8 10 0 10 C0 6.7 0 3.4 0 0 Z " fill="#000000" transform="translate(175,185)"/>
<path d="M0 0 C6.27 0 12.54 0 19 0 C19 2.97 19 5.94 19 9 C12.73 9 6.46 9 0 9 C0 6.03 0 3.06 0 0 Z " fill="#000000" transform="translate(234,195)"/>
<path d="M0 0 C12.87 0 25.74 0 39 0 C39 3.3 39 6.6 39 10 C32.4 10 25.8 10 19 10 C19 13.3 19 16.6 19 20 C22.3 20 25.6 20 29 20 C29 23.3 29 26.6 29 30 C22.4 30 15.8 30 9 30 C9 26.7 9 23.4 9 20 C6.03 20 3.06 20 0 20 C0 13.4 0 6.8 0 0 Z " fill="#000000" transform="translate(156,204)"/>
<path d="M0 0 C3.3 0 6.6 0 10 0 C10 6.6 10 13.2 10 20 C6.7 20 3.4 20 0 20 C0 13.4 0 6.8 0 0 Z " fill="#000000" transform="translate(204,204)"/>
<path d="M0 0 C3.3 0 6.6 0 10 0 C10 6.6 10 13.2 10 20 C6.7 20 3.4 20 0 20 C0 13.4 0 6.8 0 0 Z " fill="#000000" transform="translate(224,204)"/>
<path d="M0 0 C3.3 0 6.6 0 10 0 C10 3.3 10 6.6 10 10 C6.7 10 3.4 10 0 10 C0 6.7 0 3.4 0 0 Z " fill="#000000" transform="translate(48,214)"/>
<path d="M0 0 C3.3 0 6.6 0 10 0 C10 3.3 10 6.6 10 10 C6.7 10 3.4 10 0 10 C0 6.7 0 3.4 0 0 Z " fill="#000000" transform="translate(243,214)"/>
<path d="M0 0 C3.3 0 6.6 0 10 0 C10 3.3 10 6.6 10 10 C12.97 10 15.94 10 19 10 C19 6.7 19 3.4 19 0 C25.6 0 32.2 0 39 0 C39 9.57 39 19.14 39 29 C35.7 29 32.4 29 29 29 C29 26.03 29 23.06 29 20 C25.7 20 22.4 20 19 20 C19 22.97 19 25.94 19 29 C16.03 29 13.06 29 10 29 C10 26.03 10 23.06 10 20 C6.7 20 3.4 20 0 20 C0 13.4 0 6.8 0 0 Z " fill="#000000" transform="translate(341,214)"/>
<path d="M0 0 C3.3 0 6.6 0 10 0 C10 3.3 10 6.6 10 10 C6.7 10 3.4 10 0 10 C0 6.7 0 3.4 0 0 Z " fill="#000000" transform="translate(58,224)"/>
<path d="M0 0 C3.3 0 6.6 0 10 0 C10 3.3 10 6.6 10 10 C6.7 10 3.4 10 0 10 C0 6.7 0 3.4 0 0 Z " fill="#000000" transform="translate(214,224)"/>
<path d="M0 0 C3.3 0 6.6 0 10 0 C10 6.27 10 12.54 10 19 C6.7 19 3.4 19 0 19 C0 12.73 0 6.46 0 0 Z " fill="#000000" transform="translate(29,234)"/>
<path d="M0 0 C3.3 0 6.6 0 10 0 C10 6.27 10 12.54 10 19 C13.3 19 16.6 19 20 19 C20 22.3 20 25.6 20 29 C26.27 29 32.54 29 39 29 C39 25.7 39 22.4 39 19 C45.6 19 52.2 19 59 19 C59 16.03 59 13.06 59 10 C61.97 10 64.94 10 68 10 C68 12.97 68 15.94 68 19 C74.6 19 81.2 19 88 19 C88 25.6 88 32.2 88 39 C84.7 39 81.4 39 78 39 C78 42.3 78 45.6 78 49 C71.73 49 65.46 49 59 49 C59 51.97 59 54.94 59 58 C55.7 58 52.4 58 49 58 C49 51.73 49 45.46 49 39 C45.7 39 42.4 39 39 39 C39 45.27 39 51.54 39 58 C35.7 58 32.4 58 29 58 C29 61.3 29 64.6 29 68 C32.3 68 35.6 68 39 68 C39 71.3 39 74.6 39 78 C42.3 78 45.6 78 49 78 C49 81.3 49 84.6 49 88 C45.7 88 42.4 88 39 88 C39 90.97 39 93.94 39 97 C42.3 97 45.6 97 49 97 C49 100.3 49 103.6 49 107 C45.7 107 42.4 107 39 107 C39 110.3 39 113.6 39 117 C35.7 117 32.4 117 29 117 C29 123.27 29 129.54 29 136 C26.03 136 23.06 136 20 136 C20 133.03 20 130.06 20 127 C13.4 127 6.8 127 0 127 C0 129.97 0 132.94 0 136 C-3.3 136 -6.6 136 -10 136 C-10 142.6 -10 149.2 -10 156 C-12.97 156 -15.94 156 -19 156 C-19 152.7 -19 149.4 -19 146 C-22.3 146 -25.6 146 -29 146 C-29 142.7 -29 139.4 -29 136 C-25.7 136 -22.4 136 -19 136 C-19 129.73 -19 123.46 -19 117 C-16.03 117 -13.06 117 -10 117 C-10 113.7 -10 110.4 -10 107 C-6.7 107 -3.4 107 0 107 C0 110.3 0 113.6 0 117 C3.3 117 6.6 117 10 117 C10 113.7 10 110.4 10 107 C16.27 107 22.54 107 29 107 C29 97.43 29 87.86 29 78 C26.03 78 23.06 78 20 78 C20 81.3 20 84.6 20 88 C16.7 88 13.4 88 10 88 C10 81.4 10 74.8 10 68 C13.3 68 16.6 68 20 68 C20 64.7 20 61.4 20 58 C13.4 58 6.8 58 0 58 C0 51.73 0 45.46 0 39 C-3.3 39 -6.6 39 -10 39 C-10 35.7 -10 32.4 -10 29 C-6.7 29 -3.4 29 0 29 C0 25.7 0 22.4 0 19 C-3.3 19 -6.6 19 -10 19 C-10 16.03 -10 13.06 -10 10 C-6.7 10 -3.4 10 0 10 C0 6.7 0 3.4 0 0 Z M10 29 C10 35.6 10 42.2 10 49 C16.27 49 22.54 49 29 49 C29 45.7 29 42.4 29 39 C26.03 39 23.06 39 20 39 C20 35.7 20 32.4 20 29 C16.7 29 13.4 29 10 29 Z " fill="#000000" transform="translate(136,224)"/>
<path d="M0 0 C3.3 0 6.6 0 10 0 C10 2.97 10 5.94 10 9 C6.7 9 3.4 9 0 9 C0 6.03 0 3.06 0 0 Z " fill="#000000" transform="translate(224,234)"/>
<path d="M0 0 C3.3 0 6.6 0 10 0 C10 2.97 10 5.94 10 9 C6.7 9 3.4 9 0 9 C0 6.03 0 3.06 0 0 Z " fill="#000000" transform="translate(263,234)"/>
<path d="M0 0 C3.3 0 6.6 0 10 0 C10 2.97 10 5.94 10 9 C6.7 9 3.4 9 0 9 C0 6.03 0 3.06 0 0 Z " fill="#000000" transform="translate(331,234)"/>
<path d="M0 0 C9.9 0 19.8 0 30 0 C30 3.3 30 6.6 30 10 C26.7 10 23.4 10 20 10 C20 13.3 20 16.6 20 20 C23.3 20 26.6 20 30 20 C30 23.3 30 26.6 30 30 C23.4 30 16.8 30 10 30 C10 23.4 10 16.8 10 10 C6.7 10 3.4 10 0 10 C0 6.7 0 3.4 0 0 Z " fill="#000000" transform="translate(48,243)"/>
<path d="M0 0 C3.3 0 6.6 0 10 0 C10 9.9 10 19.8 10 30 C13.3 30 16.6 30 20 30 C20 32.97 20 35.94 20 39 C26.27 39 32.54 39 39 39 C39 42.3 39 45.6 39 49 C32.73 49 26.46 49 20 49 C20 58.57 20 68.14 20 78 C22.97 78 25.94 78 29 78 C29 81.3 29 84.6 29 88 C26.03 88 23.06 88 20 88 C20 94.6 20 101.2 20 108 C22.97 108 25.94 108 29 108 C29 110.97 29 113.94 29 117 C35.6 117 42.2 117 49 117 C49 120.3 49 123.6 49 127 C52.3 127 55.6 127 59 127 C59 130.3 59 133.6 59 137 C49.1 137 39.2 137 29 137 C29 133.7 29 130.4 29 127 C26.03 127 23.06 127 20 127 C20 130.3 20 133.6 20 137 C13.4 137 6.8 137 0 137 C0 133.7 0 130.4 0 127 C3.3 127 6.6 127 10 127 C10 114.13 10 101.26 10 88 C6.7 88 3.4 88 0 88 C0 78.43 0 68.86 0 59 C3.3 59 6.6 59 10 59 C10 55.7 10 52.4 10 49 C6.7 49 3.4 49 0 49 C0 45.7 0 42.4 0 39 C-3.3 39 -6.6 39 -10 39 C-10 36.03 -10 33.06 -10 30 C-12.97 30 -15.94 30 -19 30 C-19 32.97 -19 35.94 -19 39 C-25.6 39 -32.2 39 -39 39 C-39 36.03 -39 33.06 -39 30 C-35.7 30 -32.4 30 -29 30 C-29 26.7 -29 23.4 -29 20 C-25.7 20 -22.4 20 -19 20 C-19 16.7 -19 13.4 -19 10 C-16.03 10 -13.06 10 -10 10 C-10 13.3 -10 16.6 -10 20 C-6.7 20 -3.4 20 0 20 C0 13.4 0 6.8 0 0 Z " fill="#000000" transform="translate(253,243)"/>
<path d="M0 0 C6.27 0 12.54 0 19 0 C19 3.3 19 6.6 19 10 C12.73 10 6.46 10 0 10 C0 6.7 0 3.4 0 0 Z " fill="#000000" transform="translate(78,253)"/>
<path d="M0 0 C3.3 0 6.6 0 10 0 C10 6.6 10 13.2 10 20 C6.7 20 3.4 20 0 20 C0 13.4 0 6.8 0 0 Z " fill="#000000" transform="translate(282,253)"/>
<path d="M0 0 C3.3 0 6.6 0 10 0 C10 3.3 10 6.6 10 10 C6.7 10 3.4 10 0 10 C0 6.7 0 3.4 0 0 Z " fill="#000000" transform="translate(341,253)"/>
<path d="M0 0 C6.6 0 13.2 0 20 0 C20 9.57 20 19.14 20 29 C7.13 29 -5.74 29 -19 29 C-19 32.3 -19 35.6 -19 39 C-15.7 39 -12.4 39 -9 39 C-9 42.3 -9 45.6 -9 49 C-12.3 49 -15.6 49 -19 49 C-19 58.57 -19 68.14 -19 78 C-15.7 78 -12.4 78 -9 78 C-9 87.57 -9 97.14 -9 107 C-18.9 107 -28.8 107 -39 107 C-39 100.73 -39 94.46 -39 88 C-41.97 88 -44.94 88 -48 88 C-48 94.27 -48 100.54 -48 107 C-51.3 107 -54.6 107 -58 107 C-58 100.73 -58 94.46 -58 88 C-61.3 88 -64.6 88 -68 88 C-68 81.4 -68 74.8 -68 68 C-71.3 68 -74.6 68 -78 68 C-78 61.73 -78 55.46 -78 49 C-74.7 49 -71.4 49 -68 49 C-68 45.7 -68 42.4 -68 39 C-61.4 39 -54.8 39 -48 39 C-48 32.73 -48 26.46 -48 20 C-45.03 20 -42.06 20 -39 20 C-39 22.97 -39 25.94 -39 29 C-35.7 29 -32.4 29 -29 29 C-29 26.03 -29 23.06 -29 20 C-16.13 20 -3.26 20 10 20 C10 16.7 10 13.4 10 10 C6.7 10 3.4 10 0 10 C0 6.7 0 3.4 0 0 Z M-58 49 C-58 58.57 -58 68.14 -58 78 C-48.43 78 -38.86 78 -29 78 C-29 68.43 -29 58.86 -29 49 C-38.57 49 -48.14 49 -58 49 Z " fill="#000000" transform="translate(360,253)"/>
<path d="M0 0 C3.3 0 6.6 0 10 0 C10 3.3 10 6.6 10 10 C6.7 10 3.4 10 0 10 C0 6.7 0 3.4 0 0 Z " fill="#000000" transform="translate(29,263)"/>
<path d="M0 0 C3.3 0 6.6 0 10 0 C10 3.3 10 6.6 10 10 C6.7 10 3.4 10 0 10 C0 6.7 0 3.4 0 0 Z " fill="#000000" transform="translate(97,263)"/>
<path d="M0 0 C3.3 0 6.6 0 10 0 C10 3.3 10 6.6 10 10 C6.7 10 3.4 10 0 10 C0 6.7 0 3.4 0 0 Z " fill="#000000" transform="translate(321,263)"/>
<path d="M0 0 C3.3 0 6.6 0 10 0 C10 2.97 10 5.94 10 9 C6.7 9 3.4 9 0 9 C0 6.03 0 3.06 0 0 Z " fill="#000000" transform="translate(19,273)"/>
<path d="M0 0 C2.97 0 5.94 0 9 0 C9 2.97 9 5.94 9 9 C6.03 9 3.06 9 0 9 C0 6.03 0 3.06 0 0 Z " fill="#000000" transform="translate(39,273)"/>
<path d="M0 0 C2.97 0 5.94 0 9 0 C9 2.97 9 5.94 9 9 C6.03 9 3.06 9 0 9 C0 6.03 0 3.06 0 0 Z " fill="#000000" transform="translate(78,273)"/>
<path d="M0 0 C2.97 0 5.94 0 9 0 C9 2.97 9 5.94 9 9 C6.03 9 3.06 9 0 9 C0 6.03 0 3.06 0 0 Z " fill="#000000" transform="translate(117,273)"/>
<path d="M0 0 C3.3 0 6.6 0 10 0 C10 3.3 10 6.6 10 10 C6.7 10 3.4 10 0 10 C0 6.7 0 3.4 0 0 Z " fill="#000000" transform="translate(29,282)"/>
<path d="M0 0 C3.3 0 6.6 0 10 0 C10 3.3 10 6.6 10 10 C6.7 10 3.4 10 0 10 C0 6.7 0 3.4 0 0 Z " fill="#000000" transform="translate(48,282)"/>
<path d="M0 0 C2.97 0 5.94 0 9 0 C9 3.3 9 6.6 9 10 C12.3 10 15.6 10 19 10 C19 13.3 19 16.6 19 20 C15.7 20 12.4 20 9 20 C9 26.27 9 32.54 9 39 C6.03 39 3.06 39 0 39 C0 26.13 0 13.26 0 0 Z " fill="#000000" transform="translate(234,282)"/>
<path d="M0 0 C3.3 0 6.6 0 10 0 C10 3.3 10 6.6 10 10 C6.7 10 3.4 10 0 10 C0 6.7 0 3.4 0 0 Z " fill="#000000" transform="translate(19,292)"/>
<path d="M0 0 C9.57 0 19.14 0 29 0 C29 3.3 29 6.6 29 10 C19.43 10 9.86 10 0 10 C0 6.7 0 3.4 0 0 Z " fill="#000000" transform="translate(58,292)"/>
<path d="M0 0 C3.3 0 6.6 0 10 0 C10 6.6 10 13.2 10 20 C6.7 20 3.4 20 0 20 C0 13.4 0 6.8 0 0 Z " fill="#000000" transform="translate(126,292)"/>
<path d="M0 0 C6.27 0 12.54 0 19 0 C19 3.3 19 6.6 19 10 C22.3 10 25.6 10 29 10 C29 16.27 29 22.54 29 29 C25.7 29 22.4 29 19 29 C19 26.03 19 23.06 19 20 C15.7 20 12.4 20 9 20 C9 16.7 9 13.4 9 10 C6.03 10 3.06 10 0 10 C0 6.7 0 3.4 0 0 Z " fill="#000000" transform="translate(195,292)"/>
<path d="M0 0 C3.3 0 6.6 0 10 0 C10 3.3 10 6.6 10 10 C6.7 10 3.4 10 0 10 C0 6.7 0 3.4 0 0 Z " fill="#000000" transform="translate(97,302)"/>
<path d="M0 0 C6.6 0 13.2 0 20 0 C20 6.27 20 12.54 20 19 C16.7 19 13.4 19 10 19 C10 25.6 10 32.2 10 39 C13.3 39 16.6 39 20 39 C20 45.27 20 51.54 20 58 C16.7 58 13.4 58 10 58 C10 55.03 10 52.06 10 49 C6.7 49 3.4 49 0 49 C0 39.1 0 29.2 0 19 C-2.97 19 -5.94 19 -9 19 C-9 16.03 -9 13.06 -9 10 C-6.03 10 -3.06 10 0 10 C0 6.7 0 3.4 0 0 Z " fill="#000000" transform="translate(360,302)"/>
<path d="M0 0 C22.44 0 44.88 0 68 0 C68 22.44 68 44.88 68 68 C45.56 68 23.12 68 0 68 C0 45.56 0 23.12 0 0 Z M10 9 C10 25.17 10 41.34 10 58 C26.17 58 42.34 58 59 58 C59 41.83 59 25.66 59 9 C42.83 9 26.66 9 10 9 Z " fill="#000000" transform="translate(19,312)"/>
<path d="M0 0 C6.27 0 12.54 0 19 0 C19 2.97 19 5.94 19 9 C16.03 9 13.06 9 10 9 C10 12.3 10 15.6 10 19 C6.7 19 3.4 19 0 19 C0 22.3 0 25.6 0 29 C-3.3 29 -6.6 29 -10 29 C-10 22.4 -10 15.8 -10 9 C-6.7 9 -3.4 9 0 9 C0 6.03 0 3.06 0 0 Z " fill="#000000" transform="translate(107,312)"/>
<path d="M0 0 C2.97 0 5.94 0 9 0 C9 2.97 9 5.94 9 9 C6.03 9 3.06 9 0 9 C0 6.03 0 3.06 0 0 Z " fill="#000000" transform="translate(195,312)"/>
<path d="M0 0 C2.97 0 5.94 0 9 0 C9 2.97 9 5.94 9 9 C6.03 9 3.06 9 0 9 C0 6.03 0 3.06 0 0 Z " fill="#000000" transform="translate(312,312)"/>
<path d="M0 0 C3.3 0 6.6 0 10 0 C10 3.3 10 6.6 10 10 C6.7 10 3.4 10 0 10 C0 6.7 0 3.4 0 0 Z " fill="#000000" transform="translate(136,321)"/>
<path d="M0 0 C3.3 0 6.6 0 10 0 C10 3.3 10 6.6 10 10 C13.3 10 16.6 10 20 10 C20 13.3 20 16.6 20 20 C23.3 20 26.6 20 30 20 C30 16.7 30 13.4 30 10 C36.27 10 42.54 10 49 10 C49 16.6 49 23.2 49 30 C45.7 30 42.4 30 39 30 C39 32.97 39 35.94 39 39 C42.3 39 45.6 39 49 39 C49 42.3 49 45.6 49 49 C45.7 49 42.4 49 39 49 C39 52.3 39 55.6 39 59 C23.16 59 7.32 59 -9 59 C-9 55.7 -9 52.4 -9 49 C-12.3 49 -15.6 49 -19 49 C-19 52.3 -19 55.6 -19 59 C-25.6 59 -32.2 59 -39 59 C-39 55.7 -39 52.4 -39 49 C-35.7 49 -32.4 49 -29 49 C-29 45.7 -29 42.4 -29 39 C-25.7 39 -22.4 39 -19 39 C-19 36.03 -19 33.06 -19 30 C-12.73 30 -6.46 30 0 30 C0 20.1 0 10.2 0 0 Z M0 30 C0 32.97 0 35.94 0 39 C3.3 39 6.6 39 10 39 C10 42.3 10 45.6 10 49 C13.3 49 16.6 49 20 49 C20 42.73 20 36.46 20 30 C13.4 30 6.8 30 0 30 Z " fill="#000000" transform="translate(204,321)"/>
<path d="M0 0 C9.57 0 19.14 0 29 0 C29 9.57 29 19.14 29 29 C19.43 29 9.86 29 0 29 C0 19.43 0 9.86 0 0 Z " fill="#000000" transform="translate(39,331)"/>
<path d="M0 0 C3.3 0 6.6 0 10 0 C10 3.3 10 6.6 10 10 C6.7 10 3.4 10 0 10 C0 6.7 0 3.4 0 0 Z " fill="#000000" transform="translate(185,331)"/>
<path d="M0 0 C3.3 0 6.6 0 10 0 C10 3.3 10 6.6 10 10 C6.7 10 3.4 10 0 10 C0 6.7 0 3.4 0 0 Z " fill="#000000" transform="translate(175,341)"/>
<path d="M0 0 C3.3 0 6.6 0 10 0 C10 2.97 10 5.94 10 9 C6.7 9 3.4 9 0 9 C0 6.03 0 3.06 0 0 Z " fill="#000000" transform="translate(97,351)"/>
<path d="M0 0 C6.6 0 13.2 0 20 0 C20 6.6 20 13.2 20 20 C16.7 20 13.4 20 10 20 C10 16.7 10 13.4 10 10 C6.7 10 3.4 10 0 10 C0 6.7 0 3.4 0 0 Z " fill="#000000" transform="translate(136,360)"/>
<path d="M0 0 C2.97 0 5.94 0 9 0 C9 3.3 9 6.6 9 10 C6.03 10 3.06 10 0 10 C0 6.7 0 3.4 0 0 Z " fill="#000000" transform="translate(312,360)"/>
<path d="M0 0 C3.3 0 6.6 0 10 0 C10 3.3 10 6.6 10 10 C13.3 10 16.6 10 20 10 C20 13.3 20 16.6 20 20 C13.4 20 6.8 20 0 20 C0 13.4 0 6.8 0 0 Z " fill="#000000" transform="translate(360,360)"/>
<path d="M0 0 C6.6 0 13.2 0 20 0 C20 3.3 20 6.6 20 10 C13.4 10 6.8 10 0 10 C0 6.7 0 3.4 0 0 Z " fill="#000000" transform="translate(321,370)"/>
</svg>
